<mxfile host="app.diagrams.net" agent="Mozilla/5.0 (Windows NT 10.0; Win64; x64) AppleWebKit/537.36 (KHTML, like Gecko) Chrome/128.0.0.0 Safari/537.36 Edg/128.0.0.0" version="24.7.10">
  <diagram name="第 1 页" id="RgjBdr0NA0YbaWVkRlCC">
    <mxGraphModel dx="506" dy="732" grid="1" gridSize="10" guides="1" tooltips="1" connect="1" arrows="1" fold="1" page="1" pageScale="1" pageWidth="827" pageHeight="1169" math="0" shadow="0">
      <root>
        <mxCell id="0" />
        <mxCell id="1" parent="0" />
        <mxCell id="rLr-IdZesuFoyCVZBpzc-1" value="" style="rounded=0;whiteSpace=wrap;html=1;fillColor=#e1d5e7;strokeColor=#9673a6;fontFamily=Helvetica;" vertex="1" parent="1">
          <mxGeometry x="100" y="545" width="667" height="94" as="geometry" />
        </mxCell>
        <mxCell id="rLr-IdZesuFoyCVZBpzc-2" value="" style="rounded=0;whiteSpace=wrap;html=1;fillColor=#d5e8d4;strokeColor=#82b366;fontFamily=Helvetica;" vertex="1" parent="1">
          <mxGeometry x="100" y="370" width="667" height="170" as="geometry" />
        </mxCell>
        <mxCell id="rLr-IdZesuFoyCVZBpzc-3" value="" style="rounded=0;whiteSpace=wrap;html=1;fillColor=#fff2cc;strokeColor=#d6b656;fontFamily=Helvetica;" vertex="1" parent="1">
          <mxGeometry x="100" y="240" width="667" height="126" as="geometry" />
        </mxCell>
        <mxCell id="rLr-IdZesuFoyCVZBpzc-4" value="&lt;font style=&quot;&quot; size=&quot;1&quot;&gt;&lt;span style=&quot;font-size: 18px;&quot;&gt;&lt;b&gt;动态图计算队列&lt;/b&gt;&lt;/span&gt;&lt;/font&gt;" style="rounded=0;whiteSpace=wrap;html=1;fontFamily=Helvetica;" vertex="1" parent="1">
          <mxGeometry x="209.5" y="190" width="491" height="33" as="geometry" />
        </mxCell>
        <mxCell id="rLr-IdZesuFoyCVZBpzc-5" value="" style="rounded=0;whiteSpace=wrap;html=1;fontFamily=Helvetica;" vertex="1" parent="1">
          <mxGeometry x="157" y="266" width="580" height="90" as="geometry" />
        </mxCell>
        <mxCell id="rLr-IdZesuFoyCVZBpzc-6" value="" style="rounded=0;whiteSpace=wrap;html=1;fontFamily=Helvetica;" vertex="1" parent="1">
          <mxGeometry x="157" y="400" width="580" height="120" as="geometry" />
        </mxCell>
        <mxCell id="rLr-IdZesuFoyCVZBpzc-7" style="edgeStyle=orthogonalEdgeStyle;rounded=0;orthogonalLoop=1;jettySize=auto;html=1;entryX=0;entryY=0.5;entryDx=0;entryDy=0;startArrow=classic;startFill=1;fontFamily=Helvetica;endArrow=none;endFill=0;" edge="1" parent="1" source="rLr-IdZesuFoyCVZBpzc-8" target="rLr-IdZesuFoyCVZBpzc-23">
          <mxGeometry relative="1" as="geometry" />
        </mxCell>
        <mxCell id="rLr-IdZesuFoyCVZBpzc-8" value="" style="rounded=0;whiteSpace=wrap;html=1;fontFamily=Helvetica;" vertex="1" parent="1">
          <mxGeometry x="167" y="281" width="180" height="60" as="geometry" />
        </mxCell>
        <mxCell id="rLr-IdZesuFoyCVZBpzc-9" style="edgeStyle=orthogonalEdgeStyle;rounded=1;orthogonalLoop=1;jettySize=auto;html=1;exitX=1;exitY=0.5;exitDx=0;exitDy=0;entryX=0;entryY=0.5;entryDx=0;entryDy=0;startArrow=classic;endArrow=none;endFill=0;fontFamily=Helvetica;" edge="1" parent="1" source="rLr-IdZesuFoyCVZBpzc-10" target="rLr-IdZesuFoyCVZBpzc-12">
          <mxGeometry relative="1" as="geometry" />
        </mxCell>
        <mxCell id="rLr-IdZesuFoyCVZBpzc-10" value="" style="rounded=0;whiteSpace=wrap;html=1;fontFamily=Helvetica;" vertex="1" parent="1">
          <mxGeometry x="130" y="572" width="147" height="60" as="geometry" />
        </mxCell>
        <mxCell id="rLr-IdZesuFoyCVZBpzc-11" style="edgeStyle=orthogonalEdgeStyle;rounded=1;orthogonalLoop=1;jettySize=auto;html=1;exitX=1;exitY=0.5;exitDx=0;exitDy=0;entryX=0;entryY=0.5;entryDx=0;entryDy=0;startArrow=classic;fontFamily=Helvetica;" edge="1" parent="1" source="rLr-IdZesuFoyCVZBpzc-12" target="rLr-IdZesuFoyCVZBpzc-13">
          <mxGeometry relative="1" as="geometry" />
        </mxCell>
        <mxCell id="rLr-IdZesuFoyCVZBpzc-12" value="" style="rounded=0;whiteSpace=wrap;html=1;fontFamily=Helvetica;" vertex="1" parent="1">
          <mxGeometry x="373.5" y="578" width="157" height="48" as="geometry" />
        </mxCell>
        <mxCell id="rLr-IdZesuFoyCVZBpzc-13" value="" style="rounded=0;whiteSpace=wrap;html=1;fontFamily=Helvetica;" vertex="1" parent="1">
          <mxGeometry x="616" y="572" width="120" height="60" as="geometry" />
        </mxCell>
        <mxCell id="rLr-IdZesuFoyCVZBpzc-14" value="&lt;b&gt;&lt;font&gt;压缩数据&lt;/font&gt;&lt;/b&gt;" style="text;html=1;strokeColor=none;fillColor=none;align=center;verticalAlign=middle;whiteSpace=wrap;rounded=0;fontFamily=Helvetica;" vertex="1" parent="1">
          <mxGeometry x="307" y="578" width="60" height="30" as="geometry" />
        </mxCell>
        <mxCell id="rLr-IdZesuFoyCVZBpzc-15" value="&lt;span style=&quot;font-size: 18px;&quot;&gt;&lt;b&gt;&lt;font&gt;②&lt;/font&gt;&lt;/b&gt;&lt;/span&gt;&lt;font&gt;&lt;span style=&quot;font-size: 18px;&quot;&gt;&lt;b&gt;面向分层内存架构的近内存计算和内存管理&lt;/b&gt;&lt;/span&gt;&lt;/font&gt;" style="text;html=1;strokeColor=none;fillColor=none;align=center;verticalAlign=middle;whiteSpace=wrap;rounded=0;fontFamily=Helvetica;" vertex="1" parent="1">
          <mxGeometry x="227" y="370" width="450" height="30" as="geometry" />
        </mxCell>
        <mxCell id="rLr-IdZesuFoyCVZBpzc-16" value="&lt;font&gt;&lt;b&gt;&lt;span style=&quot;font-size: 18px;&quot;&gt;①&lt;/span&gt;&lt;/b&gt;&lt;span style=&quot;font-size: 18px;&quot;&gt;&lt;b&gt;基于高带宽显存的页感知数据访问加速技术&lt;/b&gt;&lt;/span&gt;&lt;/font&gt;" style="text;html=1;strokeColor=none;fillColor=none;align=center;verticalAlign=middle;whiteSpace=wrap;rounded=0;fontFamily=Helvetica;" vertex="1" parent="1">
          <mxGeometry x="269.5" y="240" width="371" height="30" as="geometry" />
        </mxCell>
        <mxCell id="rLr-IdZesuFoyCVZBpzc-17" value="&lt;font&gt;&lt;span style=&quot;font-size: 18px;&quot;&gt;&lt;b&gt;③基于FPGA的近存储图处理加速与优化&lt;/b&gt;&lt;/span&gt;&lt;/font&gt;" style="text;html=1;strokeColor=none;fillColor=none;align=center;verticalAlign=middle;whiteSpace=wrap;rounded=0;fontFamily=Helvetica;" vertex="1" parent="1">
          <mxGeometry x="229" y="542" width="450" height="30" as="geometry" />
        </mxCell>
        <mxCell id="rLr-IdZesuFoyCVZBpzc-18" value="" style="rounded=0;whiteSpace=wrap;html=1;fontFamily=Helvetica;" vertex="1" parent="1">
          <mxGeometry x="561" y="281" width="160" height="60" as="geometry" />
        </mxCell>
        <mxCell id="rLr-IdZesuFoyCVZBpzc-19" value="&lt;font&gt;&lt;span style=&quot;font-size: 16px;&quot;&gt;&lt;b&gt;GPU块映射管理&lt;/b&gt;&lt;/span&gt;&lt;/font&gt;" style="text;html=1;strokeColor=none;fillColor=none;align=center;verticalAlign=middle;whiteSpace=wrap;rounded=0;fontFamily=Helvetica;" vertex="1" parent="1">
          <mxGeometry x="589" y="322" width="120" height="15" as="geometry" />
        </mxCell>
        <mxCell id="rLr-IdZesuFoyCVZBpzc-73" style="edgeStyle=orthogonalEdgeStyle;rounded=0;orthogonalLoop=1;jettySize=auto;html=1;exitX=0;exitY=0.75;exitDx=0;exitDy=0;entryX=1;entryY=0.75;entryDx=0;entryDy=0;" edge="1" parent="1" source="rLr-IdZesuFoyCVZBpzc-20" target="rLr-IdZesuFoyCVZBpzc-21">
          <mxGeometry relative="1" as="geometry" />
        </mxCell>
        <mxCell id="rLr-IdZesuFoyCVZBpzc-20" value="&lt;font size=&quot;1&quot;&gt;&lt;b style=&quot;font-size: 14px;&quot;&gt;物理块&lt;/b&gt;&lt;/font&gt;" style="rounded=1;whiteSpace=wrap;html=1;fillColor=#dae8fc;strokeColor=#6c8ebf;fontFamily=Helvetica;" vertex="1" parent="1">
          <mxGeometry x="660" y="288" width="54" height="30" as="geometry" />
        </mxCell>
        <mxCell id="rLr-IdZesuFoyCVZBpzc-72" style="edgeStyle=orthogonalEdgeStyle;rounded=0;orthogonalLoop=1;jettySize=auto;html=1;exitX=1;exitY=0.25;exitDx=0;exitDy=0;entryX=0;entryY=0.25;entryDx=0;entryDy=0;" edge="1" parent="1" source="rLr-IdZesuFoyCVZBpzc-21" target="rLr-IdZesuFoyCVZBpzc-20">
          <mxGeometry relative="1" as="geometry" />
        </mxCell>
        <mxCell id="rLr-IdZesuFoyCVZBpzc-21" value="&lt;font size=&quot;1&quot;&gt;&lt;b style=&quot;font-size: 14px;&quot;&gt;逻辑块&lt;/b&gt;&lt;/font&gt;" style="rounded=1;whiteSpace=wrap;html=1;fontFamily=Helvetica;fillColor=#dae8fc;strokeColor=#6c8ebf;" vertex="1" parent="1">
          <mxGeometry x="569" y="288" width="61" height="30" as="geometry" />
        </mxCell>
        <mxCell id="rLr-IdZesuFoyCVZBpzc-22" style="edgeStyle=orthogonalEdgeStyle;rounded=0;orthogonalLoop=1;jettySize=auto;html=1;entryX=0;entryY=0.5;entryDx=0;entryDy=0;startArrow=none;startFill=0;fontFamily=Helvetica;" edge="1" parent="1" source="rLr-IdZesuFoyCVZBpzc-23" target="rLr-IdZesuFoyCVZBpzc-18">
          <mxGeometry relative="1" as="geometry" />
        </mxCell>
        <mxCell id="rLr-IdZesuFoyCVZBpzc-23" value="" style="rounded=0;whiteSpace=wrap;html=1;fontFamily=Helvetica;" vertex="1" parent="1">
          <mxGeometry x="377" y="281" width="156" height="60" as="geometry" />
        </mxCell>
        <mxCell id="rLr-IdZesuFoyCVZBpzc-24" value="&lt;font size=&quot;1&quot;&gt;&lt;b style=&quot;font-size: 16px;&quot;&gt;调度器&lt;/b&gt;&lt;/font&gt;" style="text;html=1;strokeColor=none;fillColor=none;align=center;verticalAlign=middle;whiteSpace=wrap;rounded=0;fontFamily=Helvetica;" vertex="1" parent="1">
          <mxGeometry x="421" y="321" width="68" height="16" as="geometry" />
        </mxCell>
        <mxCell id="rLr-IdZesuFoyCVZBpzc-25" value="&lt;font size=&quot;1&quot;&gt;&lt;b style=&quot;font-size: 14px;&quot;&gt;子图划分&lt;/b&gt;&lt;/font&gt;" style="rounded=1;whiteSpace=wrap;html=1;fillColor=#dae8fc;strokeColor=#6c8ebf;fontFamily=Helvetica;" vertex="1" parent="1">
          <mxGeometry x="457" y="288" width="70" height="30" as="geometry" />
        </mxCell>
        <mxCell id="rLr-IdZesuFoyCVZBpzc-26" value="&lt;font size=&quot;1&quot;&gt;&lt;b style=&quot;font-size: 14px;&quot;&gt;缓存引擎&lt;/b&gt;&lt;/font&gt;" style="rounded=1;whiteSpace=wrap;html=1;fillColor=#dae8fc;strokeColor=#6c8ebf;fontFamily=Helvetica;" vertex="1" parent="1">
          <mxGeometry x="382.5" y="288" width="70" height="30" as="geometry" />
        </mxCell>
        <mxCell id="rLr-IdZesuFoyCVZBpzc-27" style="edgeStyle=orthogonalEdgeStyle;rounded=0;orthogonalLoop=1;jettySize=auto;html=1;entryX=0.5;entryY=0;entryDx=0;entryDy=0;strokeWidth=2;fontFamily=Helvetica;" edge="1" parent="1" source="rLr-IdZesuFoyCVZBpzc-4" target="rLr-IdZesuFoyCVZBpzc-23">
          <mxGeometry relative="1" as="geometry" />
        </mxCell>
        <mxCell id="rLr-IdZesuFoyCVZBpzc-28" value="&lt;b&gt;图计算&lt;/b&gt;" style="text;html=1;strokeColor=none;fillColor=none;align=center;verticalAlign=middle;whiteSpace=wrap;rounded=0;fontFamily=Helvetica;" vertex="1" parent="1">
          <mxGeometry x="387.5" y="217" width="68" height="30" as="geometry" />
        </mxCell>
        <mxCell id="rLr-IdZesuFoyCVZBpzc-29" value="&lt;font&gt;&lt;b&gt;图神经网络&lt;/b&gt;&lt;/font&gt;" style="text;html=1;strokeColor=none;fillColor=none;align=center;verticalAlign=middle;whiteSpace=wrap;rounded=0;fontFamily=Helvetica;" vertex="1" parent="1">
          <mxGeometry x="453" y="217" width="68" height="30" as="geometry" />
        </mxCell>
        <mxCell id="rLr-IdZesuFoyCVZBpzc-31" value="" style="rounded=0;whiteSpace=wrap;html=1;fontFamily=Helvetica;" vertex="1" parent="1">
          <mxGeometry x="169" y="415" width="160" height="90" as="geometry" />
        </mxCell>
        <mxCell id="rLr-IdZesuFoyCVZBpzc-33" value="" style="group;fontFamily=Helvetica;" vertex="1" connectable="0" parent="1">
          <mxGeometry x="367" y="415" width="580" height="217.1935483870967" as="geometry" />
        </mxCell>
        <mxCell id="rLr-IdZesuFoyCVZBpzc-34" value="" style="rounded=0;whiteSpace=wrap;html=1;fontFamily=Helvetica;" vertex="1" parent="rLr-IdZesuFoyCVZBpzc-33">
          <mxGeometry width="160" height="90" as="geometry" />
        </mxCell>
        <mxCell id="rLr-IdZesuFoyCVZBpzc-35" value="&lt;font size=&quot;1&quot;&gt;&lt;b style=&quot;font-size: 16px;&quot;&gt;异构分页管理&lt;/b&gt;&lt;/font&gt;" style="text;html=1;strokeColor=none;fillColor=none;align=center;verticalAlign=middle;whiteSpace=wrap;rounded=0;fontFamily=Helvetica;" vertex="1" parent="rLr-IdZesuFoyCVZBpzc-33">
          <mxGeometry x="28.5" width="103" height="30" as="geometry" />
        </mxCell>
        <mxCell id="rLr-IdZesuFoyCVZBpzc-36" value="&lt;span style=&quot;font-size: 14px;&quot;&gt;&lt;b&gt;动态分析&lt;/b&gt;&lt;/span&gt;" style="rounded=1;whiteSpace=wrap;html=1;fillColor=#dae8fc;strokeColor=#6c8ebf;fontFamily=Helvetica;" vertex="1" parent="rLr-IdZesuFoyCVZBpzc-33">
          <mxGeometry x="6" y="30" width="70" height="20" as="geometry" />
        </mxCell>
        <mxCell id="rLr-IdZesuFoyCVZBpzc-37" value="&lt;font size=&quot;1&quot;&gt;&lt;b style=&quot;font-size: 14px;&quot;&gt;迁移线程&lt;/b&gt;&lt;/font&gt;" style="rounded=1;whiteSpace=wrap;html=1;fillColor=#dae8fc;strokeColor=#6c8ebf;fontFamily=Helvetica;" vertex="1" parent="rLr-IdZesuFoyCVZBpzc-33">
          <mxGeometry x="86" y="30" width="70" height="20" as="geometry" />
        </mxCell>
        <mxCell id="rLr-IdZesuFoyCVZBpzc-38" value="&lt;font size=&quot;1&quot;&gt;&lt;b style=&quot;font-size: 14px;&quot;&gt;预取线程&lt;/b&gt;&lt;/font&gt;" style="rounded=1;whiteSpace=wrap;html=1;fillColor=#dae8fc;strokeColor=#6c8ebf;fontFamily=Helvetica;" vertex="1" parent="rLr-IdZesuFoyCVZBpzc-33">
          <mxGeometry x="5.5" y="60" width="70" height="20" as="geometry" />
        </mxCell>
        <mxCell id="rLr-IdZesuFoyCVZBpzc-39" value="&lt;font size=&quot;1&quot;&gt;&lt;b style=&quot;font-size: 14px;&quot;&gt;分页管理&lt;/b&gt;&lt;/font&gt;" style="rounded=1;whiteSpace=wrap;html=1;fillColor=#dae8fc;strokeColor=#6c8ebf;fontFamily=Helvetica;" vertex="1" parent="rLr-IdZesuFoyCVZBpzc-33">
          <mxGeometry x="86" y="60" width="70" height="20" as="geometry" />
        </mxCell>
        <mxCell id="rLr-IdZesuFoyCVZBpzc-40" style="edgeStyle=orthogonalEdgeStyle;rounded=0;orthogonalLoop=1;jettySize=auto;html=1;fontFamily=Helvetica;endArrow=none;endFill=0;startArrow=classic;startFill=1;" edge="1" parent="1" source="rLr-IdZesuFoyCVZBpzc-41">
          <mxGeometry relative="1" as="geometry">
            <mxPoint x="527" y="459.9999999999999" as="targetPoint" />
          </mxGeometry>
        </mxCell>
        <mxCell id="rLr-IdZesuFoyCVZBpzc-41" value="" style="rounded=0;whiteSpace=wrap;html=1;fontFamily=Helvetica;" vertex="1" parent="1">
          <mxGeometry x="569" y="415" width="160" height="90" as="geometry" />
        </mxCell>
        <mxCell id="rLr-IdZesuFoyCVZBpzc-45" value="&lt;font&gt;&lt;span style=&quot;font-size: 14px;&quot;&gt;&lt;b&gt;流量交错&lt;/b&gt;&lt;/span&gt;&lt;/font&gt;" style="rounded=1;whiteSpace=wrap;html=1;fillColor=#dae8fc;strokeColor=#6c8ebf;fontFamily=Helvetica;" vertex="1" parent="1">
          <mxGeometry x="678" y="443.75" width="43" height="55" as="geometry" />
        </mxCell>
        <mxCell id="rLr-IdZesuFoyCVZBpzc-46" style="edgeStyle=orthogonalEdgeStyle;rounded=0;orthogonalLoop=1;jettySize=auto;html=1;entryX=1;entryY=0.5;entryDx=0;entryDy=0;fontFamily=Helvetica;" edge="1" parent="1">
          <mxGeometry relative="1" as="geometry">
            <mxPoint x="367" y="461.0000000000001" as="sourcePoint" />
            <mxPoint x="329" y="460.9999999999999" as="targetPoint" />
          </mxGeometry>
        </mxCell>
        <mxCell id="rLr-IdZesuFoyCVZBpzc-54" style="rounded=0;orthogonalLoop=1;jettySize=auto;html=1;exitX=0.5;exitY=1;exitDx=0;exitDy=0;entryX=0.391;entryY=-0.013;entryDx=0;entryDy=0;entryPerimeter=0;strokeWidth=2;fontFamily=Helvetica;" edge="1" parent="1">
          <mxGeometry relative="1" as="geometry">
            <mxPoint x="685" y="341" as="sourcePoint" />
            <mxPoint x="685.4460000000001" y="414.61" as="targetPoint" />
          </mxGeometry>
        </mxCell>
        <mxCell id="rLr-IdZesuFoyCVZBpzc-55" style="rounded=0;orthogonalLoop=1;jettySize=auto;html=1;exitX=0.5;exitY=1;exitDx=0;exitDy=0;entryX=0.391;entryY=-0.013;entryDx=0;entryDy=0;entryPerimeter=0;strokeWidth=2;fontFamily=Helvetica;" edge="1" parent="1">
          <mxGeometry relative="1" as="geometry">
            <mxPoint x="453" y="341" as="sourcePoint" />
            <mxPoint x="453" y="415" as="targetPoint" />
          </mxGeometry>
        </mxCell>
        <mxCell id="rLr-IdZesuFoyCVZBpzc-56" style="rounded=0;orthogonalLoop=1;jettySize=auto;html=1;exitX=0.5;exitY=1;exitDx=0;exitDy=0;entryX=0.391;entryY=-0.013;entryDx=0;entryDy=0;entryPerimeter=0;strokeWidth=2;fontFamily=Helvetica;" edge="1" parent="1">
          <mxGeometry relative="1" as="geometry">
            <mxPoint x="213" y="341" as="sourcePoint" />
            <mxPoint x="213" y="415" as="targetPoint" />
          </mxGeometry>
        </mxCell>
        <mxCell id="rLr-IdZesuFoyCVZBpzc-57" value="&lt;b&gt;近存计算&lt;/b&gt;" style="text;html=1;strokeColor=none;fillColor=none;align=center;verticalAlign=middle;whiteSpace=wrap;rounded=0;fontFamily=Helvetica;" vertex="1" parent="1">
          <mxGeometry x="153" y="370" width="68" height="30" as="geometry" />
        </mxCell>
        <mxCell id="rLr-IdZesuFoyCVZBpzc-58" value="&lt;b&gt;存内空间&lt;/b&gt;" style="text;html=1;strokeColor=none;fillColor=none;align=center;verticalAlign=middle;whiteSpace=wrap;rounded=0;fontFamily=Helvetica;" vertex="1" parent="1">
          <mxGeometry x="679" y="370" width="68" height="30" as="geometry" />
        </mxCell>
        <mxCell id="rLr-IdZesuFoyCVZBpzc-59" value="&lt;font&gt;&lt;b&gt;任务 调度&lt;/b&gt;&lt;/font&gt;" style="text;html=1;strokeColor=none;fillColor=none;align=center;verticalAlign=middle;whiteSpace=wrap;rounded=0;fontFamily=Helvetica;" vertex="1" parent="1">
          <mxGeometry x="408" y="350" width="90" height="30" as="geometry" />
        </mxCell>
        <mxCell id="rLr-IdZesuFoyCVZBpzc-60" value="" style="shape=image;verticalLabelPosition=bottom;labelBackgroundColor=default;verticalAlign=top;aspect=fixed;imageAspect=0;image=data:image/jpeg,/9j/4AAQSkZJRgABAQAAAQABAAD/2wBDAAsJCQcJCQcJCQkJCwkJCQkJCQsJCwsMCwsLDA0QDBEODQ4MEhkSJRodJR0ZHxwpKRYlNzU2GioyPi0pMBk7IRP/2wBDAQcICAsJCxULCxUsHRkdLCwsLCwsLCwsLCwsLCwsLCwsLCwsLCwsLCwsLCwsLCwsLCwsLCwsLCwsLCwsLCwsLCz/wAARCADzAQoDASIAAhEBAxEB/8QAHAABAAEFAQEAAAAAAAAAAAAAAAYBAgQFBwMI/8QARRAAAQMDAgMFBAYJAQcFAQAAAQIDBAAFERIhBjFBEyJRYXEUIzKBBxVCUpHwM2JygqGxwdHhkiQlNENjovFEU3Ojshb/xAAYAQEBAQEBAAAAAAAAAAAAAAAAAQIDBP/EACsRAQEAAgICAQMCBQUAAAAAAAABAhEDIRIxUQQiQRNxIzJhgbEzUqHR4f/aAAwDAQACEQMRAD8A63SlKBSlKBSlKBSlKBSlKBXjIkMRWH5L6whlhtbrij0SkZOPPwr2rnXH99wUWaMv4Sl6aUnmvZSG/lso+ZHhUt1GM8vGbbq3cc2CYrspBXCdKiE9uQpkjOB7xI288getShtxt1CXG1pW2sZQttSVJUPEKTtXEPZ+Fhw8JJnyDxAXN4w1dmn3unTo06dOnfVqzn/TVljuPEbEyPFszr6pEhaktx0LQG3VJSVnUl4hvkCcmueOd/LnM8p77d1pURicUymY3tF1jtLjtMxFypcAqSlhyQotpaUw+QtRBG5QVDy2qRwrjbbi32sGUy+jAJ7NXeTn76D3h8xWsc5l6dtz0y6UpW1KUpQKUpQKUpQKUpQKUpQKUpQKUpQKUpQKUpQKUpQKUpQKUpQKUpQay+XZmzW6TNXpLgHZxkK/5j6gdI9BuT5A1wqVJdlPvPurK3HVrccUrdSlqJUVE+J51JeNL99a3AsR15hQ9TTOOTi8993n1Ow8gPGtRYLNIv1zjwG1Kba0l+Y8jcsxkEAkZ21KPdT57/Zrnvd28uV88umLBt1yubxYt8ORKdTp7QMpGhvP/uOKIQn5qFSJr6PuL1pBU3b2T91yWoqHr2Tah/GurQYNutURuLDZbjxWE5CU7DzWtR3JPUk5NXuPygkqjxC74BbqWSr0CgT+OK1p2nHJHGrxYOMoiGF3KNJkMRWEx2HmF+1tMsI5IGga0pHmkVpI8uVFcQ9GecacSe64yspKT5KSc13Fd8RGP+8oFwhJHN9TQkRR6vRCvA/aArCncN8I8RNGW2hjW7nTOtjiEqUfFSm8oV8wamvhnLj36Q61fSHdY2hu5NJmMjALgw2+By+JI0n5p+dTu18T2C7aUxpaUPq5R5OGnc+CcnSfkTXPLr9H1+hBbsBbdxYGTpbAalAD/pLOk/JXyqIrS/HcW2626062oJcQ6hbbiFcwFJWAR+FO4zvPH2+jKVxO08ZcQ2sIbD/tMdOAGZeXEgeCVZ1j5Kx5VPbVx7YZ+huXqgvnA98dbBPLZ1I2+aR61fL5bnLL7S+lWNuNOoQ40tDjaxlC21JUhQ8QpJxV9adSlKUClKUClKUClKUClKUClKUClKUClKUClKUClKUCopxre/qu3GKwrEuelbYIO7cf4Vrz4n4R6k/ZqTuvMsNuPPOIbabSVuOOKSlCEjqpR2rmPHd4tFxVAZhOIfXHS+HXmx3D2hTpbSo88YJPTfnk7YzvXTly5ax6QNaslSjk+IA3PgAP5V2jg6w/UdrSp9AFxn6JE3xb293HB8EA7+ZJ61B+BLCbncvrGQjMG1uJUkKHdfm4CkJ8MN7KPnprrDhXgIScLcylKvuj7S/l088VYnFj+VpAecyd2mVbA8lup6+ienn+zXrmrcJQlKEjCUgJAz0FWqVg8z8uVR6ZF+rzrVP2G2OuuSovbW+cvdcq2L9ncWc598gAtL/eQa2Gqq5P5/rQ01Qf4mt+PaI7V3jJ5vQAiNPSnnlcV1XZKP7Lif2aopXCnEyVxn0MPvtD3kaS2uPcI52zltwJfT68vWttr/r+TWLNt1ruaUJmxm3VN7suHKX2T4svIIcSfMKFXaWIRd/o2/SPWaX4kRph/gh5I/mPnUEuFqu9pd7O4RHo5zhCljLa/wBhacpPyNdl9l4it+DAnJuMcf8ApLwoiQB4NT2k59NaFetPrq0yNMC8RlQX3sJ9lvDaAw8rHJmRvHX5YXnyFRyy45XH7bfLxal64Mx1sZyUBWppf7SFZSfwqeWf6RUPuR4tyhLL7ykttLgJU4t1Z2AEfdRP7JPpWZdfo9sc3U5b1Lt75ydKAXI6j/8AGo5HyV8qiKrPxVwq466u3NS4bjsVb0mMFKcCI7hcw3IRh5onkSAP4VnLeM3i5zC411mHcrbcA57HJadU0ooebBKXmVg4KXWlYWkjqCkVl1wOXf7jJfYdZcMZMVyQqEGFHtmUPOdoUrkbOrPmo/z3kdp+kS7RdDVybTNZGB2mQ3IA5fEkYPzT86uOV190a/UkvbrVK0Vr4q4cu3ZpYlpafXgCPKKWnSo7YTk6SfQmt5+Nbl26Sy+laUpVUpSlApSlApSlApSlApSlApSlApStXfruzZbbJmL0lwDs4yD/AMx9Q7o9BuT5CnpLZJuoZx/ft0WWMvZBS7OKTzXspDXy+I+ZHhXP4kaXcJUWHFTrky3UMMg5I1HcqV+qkAqV5A1SS+9KfefdWpbjri3FrV8SlKJUSfWuj/R5YexYcv0lsB2Wgs29KhuiJnvO+rhG36oH3q5yb7rzYzzy2mNqtsSzW6Jb4+zUZrvuKACnHD3nHl+ajkn/ABWU2CrU6oYKxhAI3S3zA9TzP+KOe8WGvsp0rd8xzSj58z5Dzq9RNar1yLFGvPOSdquUfzmrNth+fWo2rtVDjw+dM4/O/wDeqHH9KBnz8qavPp61Tf8ArVM8v6ZoL9Rq1xDEhpbMhpt5lwYW08hLjax+shYKT+FW+nrQkj8ag1n1M/CwqxT3YKQSfYpAVLtquukMrV2iB+wselXfXkqCNN8t7sRAGDOha5tuV5rUhPbI/ebx51sQvlVwcI3z86u000Vw4Y4R4ha9rbQyFO7om2xbeFnxUUZbPzGagt1+j7iGDrdglFxjjJAb7kkJ82jzPoTXQnrJblPLlQlP2yc4dS5NrUlntTz9+wQWF+epB9aombxJbziZCRc4yc/7VaEhqWkDq7AdVgnxKHD+zRzywl9uVWmZZ4HasXCI/Hmlu4NSJTzIkq0OICW2EQ38ISoEfHnO3gslGwi8cXWA+PYWuyt4Q0lMCU+7MQgpQEqKXncOjJ3wDj1roq2+EeKW3ELRFmONgpcSpKmZ8byWhQS+k+oqHXX6NnmwXLJL7VOSfZZiglYB6Id+E+WQn1rnOOTLyYyxy1rFI7T9IFgn6G5muC+cA9r32CeWziRkfNI9alrTzD7aHWXW3WljKHGlJWhQ5ZSpJI/jXz8YptMxbN+tUtQDLyW46nVxNbxT3HEupBCkp3yASDnrjB3kjilENxa7KXESlriuuTG0GHHKEMhC4/1anUzjO+rnv5Am3kymWtbSZWT7q7TSucWn6S2VaGrzF0E4T7REGQSdhlpRzn0V8qncO5W2eF+ySW3Ft/pWjqQ+1no6y4A4n5pFdPKem8c5l6ZlKfhStNFKUoFKUoFKUoFKUoFcb4zv31tcFNMLzCh6mo+OSznvu/vY28gPGptxvfRbLeYbK8S56VJOPibjfCpXqr4R8z0rkBJJKiFEnYBIypSicBKR4nkKxbu6efky3fGNvw5ZHL9dGIR1CKgCRcVjbTFSrGgH7yz3R8z9mu4nsozSUoQEoQlDTTaAEjbCUISBt5f+K0XCNh+o7UhDyR9YTCmTPUN9LhThLIPggbeuT1rdp964XObbRKG/BS9wpfy5D51Y64Y6i5tHZowo5WolTih9pZ5/2HkKoo1erevInf8Ah6Go7Rbk/nnVP4c9qqc/h5VTy8hRTnjn41Q/x/pTlnb8Koc5I/l/aoKZH4efKqZH9s1XPrVD58zQU/ziqE+X8d6qatJ261RTI/HnVNx1Py5UyPnjw5VTP/gUFdXP8irgvzzzryzVCcEfy5UHlNtlquSm1y4yVSGsFiU0tbMxk+LUlkh0f6seVYgRxRbsezSGrzFHJi4qRFuKUjo3MbT2K/30JJ+9Ww1/nqKuCz0/zRNMFN1sF2JtdwZDMpwHNsvbCWnldMs9pltfkULNaC6/RzbJGty0yFwXcE+zyNT0XPgCfeJ/E+lSeVGgz2FxpsZiTHV/y5CEuIB8U53B8wQa1vsV7tA12aS7OhowVWi6OqdWEDG0Cav3iTjklZUPMUZuMvtzd+1cQ8LuyHplqjvNux1xkylt+1RmtSkq7Zh5GNDgx3SQMeBxVlx4kly3tcNtURKZIltOqdU9cO1LQaV2k04cKdth02H2QE9lhTI9whsS2ArsZKN23kgLQeSm3UnbI3BqB8YcIRUNrulqaSyc/wC0xmxhrWrkptI5auWOWSPvbc7hjb5VyywutRbw5xpxQ6ptmTGbmRQssrmyliI20sI7QIcllPZaiOQIyfGp1B4itM32dClOQ5EhpDzMe4J7Bx1peyVtEkoUD0wo1wuDdLlbltLiyFJSh4SAysdpHU7oLYcWwvKCcHY4yPlt5OypchwOPvuurA0pLilHSjJUEIBOAkZOAAAPCk85l/Rzmfjj0+kaVx3hniG+s+yRY1xckyn7gzEZtkqOt1n2ZScqfEnVlON8pGOWd67DXTHOZO2OXkrSlK20UpSgV4S5MeHGkSpC9LEdtTriuuEjkPM8h6171zbj++61izxlEtsqS5MKD8T2MpbyOieZ8z+rWcrqMcmfhNobe7lJu9wlTXsgurIQnmltsd1CB6D+p61IeAbD9YXA3WQjMO2OAMA/C9OxkH0bBz6kfdqLQ4kq4yocCHlUia4lpoKGUtjmpxXXCRlR9POu6223w7Pb4kCONLERrTqV8SyMqW6vzUcqPrUxjhxY291kuqUNLaDhbuQCM9xI+Jfy6eZFXABCUoSMJSAlI8ANqsaCjrdXkKdwUpPNDY+FPr1Pr5Vco88Va9cWqJHn61YTtvzFVOfztVv41GzHOqYJ2A58gMmtderzbLBAduFwcKWkENttt4Lsh4glLTQJ3Jx8gMnlWhhQuJuJkomX1+Ra7U/34tjt7q2XnGVcjPkpw6dQ5pGP3eVNJtKXJMRlt116RHaaacS066680lttxSggNrUpWAokgAZzv51j3G62m1JZXcJKWUvKWlr3b7pWUAFWEsJUdsjp1qEXJzhW7XFr6P4tultw4jilIkWp5CG40xtClOl1pYKVJRnClKUTqyAM7mbW1FuixkW22vsqatSG4TjTL6XHGFNp+F/QchXMnPjTRK1Y414IKin67ioUOjrcpsfPtGhWwj3rh+YUpiXe1PrOMIZmxyv/AEFQV/Cs9el1JDiQsEYIWlKwc9CFAitNM4Y4UnhYk2W3KKh3ltsJju8v/cj6VfxodtypKk4ykj+vz5V5ny6Goorg16BlfDfEN2tShumM86ZkDI+yW3MH/wDVY6+I+K7AQOKLQiVBSQDd7FlSEc+8+ycAfgjyzTRtMTv/AGqhwM/jvWLb7na7tHEu2y2pMcnSVNkhTaj9l1CsLSfIj8ayvP150FPz51Q4Ph4029P61Qn51BQjl18qetN/8UP8enn6UFcjavRGpSkpHMqAHhknrXkOg5bfjWo4knyIdvTEglRut5dNstoT8aFODDr4IP2EnY+KhRHrYZqJC7s42QYsu8zxDI5KSgrXrT5HBPzrcyGhJiy2FYw9HeT6K0lST8jgj0qJ8OMs+3IRFXm22KI/bIZT8EiSpSW5MskDJBUgtN89m1HrvteJL03YrNLlkj2h5Ko0NP8A1Vp3URnkkb+uPGpBxSQpJky9IAT7Q8QByAKicCsuDa59xR2sYxA2JrMAqkSmmdL7qdQylR1afE4/HG2paK1JUrPfWVKyfFRJyan1lmN3BcKxWdFyaV7J7Gw/IMJYisPq7S4qd0t5UFDHZ5OQcfDnB58uWWEnjO3lkm7tvfo84eXHMy7y0oLqXHoULSpK0YbWW3nm1jYgkaUkdAfvV0XavCLGjw48aJGbDbEZpthlA5JbQNIFe9dsMfGdu2OPjNFKUrbRSlUJABJIAG5J5Y86DU8QXduy21+VlJfUOxiIO+p9QOCR4J+I+nnXD3nnJDzrzqllxalOLWo5KlEkkk+J61I+Lr2bzcVpZUTCi6mIuM4Xv3ncfrEfgBWDw3ZFX26MwlBRhRwJNxWMj3AOEtA+KyNPpqPSuXu7eLLL9TLUTb6PrEY8Zy+Sm8SJ6CiElQwWoWQdYz1cIz6BPjU2c944GuaE4W7nkTzSj+p9POqqKGWwEIACQhtttAAGfhSlI5YqiUlCdOdSiStavvLO5P8Aaunp7ccddLyasUatKs/narT61lsJ3FMHbHp4H5U/8Uzjl0x/eg5y6UcT/SJ7G+e0tvC0dx1tlQJQ5JaU2FKUnON3FDPiGh41JuLr6vh+xy5rX/FvOIhQioZSiQ8lSu1XnbuJSpXLcgDrUHjy08M/SReDOUG4t2efQXl7IS1PUiSy4T90LGlR6b+FdMn2+33OOqHcYzciMpxpxTToJAcaVrSdt/7gkcjg2pHNrMlHBXC8viOWkG+XtPZW1t/BcbbWO0bK9WT/ANZzxwkbGsC28Jz0WB/i529yrZcuzfubLhUR2kUjUkvLSQ5rdO4wVfENjq2mfEPCT3EF6s82VcEqtUQJQ9by2pJ0A9osNLSSk9qQkLyAQBsTjFaXjqXcbvdLRwbbWlo7ZbT8lZQpDK1adSMHABbZTlasEjOBzRVRtOFuKZMrhm5Xq/fDan3GlyEISgywlDakp0owntCpQRtgEkdQa8+B+Ib5f13t25SoJaQ/mJFQGkymQshZACSFFlAISklJJPXu7x6/s+3z7F9HthJRBtZSma8UjSZITrefd07e7BUo7jK1kdBWZdpll4PuTVs4UtcZV/lRokF9+YvLUdCwOzQoOLSjtF91bhJSOROc7DbpPPb151YRzHQggjoUnmCDUAd4k424amW1PFrFvft09ZQJEJKEuM4KQopLQAOnIJBRuOStq3vGPEH/APO2pxbK0i5TVOR7ftq7PSPeSsHbCBy595Q2rOmttZeOF5VvfXfuEFGFcmkqVKt7AHss9obqShk93P6nI9NKvi3HDnEMPiKB7U0A1IZKWp0bJUWHSMgpz3ihWCUnyIO6d7bVdLsxaLC/fWnXLjcnEhIhxg2WGlhK21SRkJC8d5QAHPGMpOYwkfUv0mGPF0oi3xlKn2kE6NUplT2QOWziCoftHxq+0dDODjf5VbvnmMYqnl6ef4U8fyKypttmqbfPNUOc45jr4VUDnt12zRF4x1KQACSpZASlIGSpR8ANzUBenvXCTIvbSltrn9vZeFjg6osBkFUu6ADT3sElP6y0D7O294kfdkCHw7EdDUm9JUuc7nAiWdsntnFqyMBeCkeSVVj2GOzOkm5oaKILTLEWztKABbt7R1sZGAdTp9+5n/pjpUo31ntzUCHHjNtpbISjUk7hsJQEpQVfqJABPjk9a5HxvxAb9eVx4682636o7GDkOEHvOfvH+FT/AI7vwstlVHZUBcLqFsM4Pebj8nXPHf4R6nwrjkdvSkFXxKOT5k9K1Jpzzy1GQgaQPkK7H9Hli9gtyro+jEq5pSWsjCm4gOU8/vnvHyx4VzzhWxrvt3jRlpV7KziRNPLDCCMo9VHuj1PhXeUpShKUJASlKQlKUjASkDAAArM+7L9nHjnlfJdSlK6vQUpSgVD+OL59XwTb46v9rnoIcwcFuNnSrfxXukeQPhUomTI0GLJmSFaWY7ZccI5nGwSnzJwB61w67XKRdJ0ma/nW+4SkAjShIGyAfBI2HpnrWMr+Hn5s9TU91rySVZSlRcUoJQhKcrWtZ0hKcc8nAFdp4VsQsNqbZcCTOkkSZ6hg++UAA2k/dQMJHzP2qhfAVj9unLvMhGYluWW4QUNnZmN3PRsHb9Y/qV091R7jSCQtzIyOaED4l/LkPMiki8OHjNrUHWtTh/Rtkpb8FK5KX/QfPxoonJ/GvQhKUpSkYCQAAOgHSvFXhVr1RTOc/n8apT5/jzoQN/XbwrKm/wCd6pn89KofDB/hzqh6c/CiItxnwqjiSI29F0Ju0JCxFKyEoksqOpUdxR8TugnkT4KJET4a46l2VQsvErMgMxFCOmQtCzMhBOwakN/EpA6EbgfeHw9IeuLLNzt1rW052k+HNlMu5T2eYqkBbZHPODkGsC/cMWLiJOma32c1lCUty45QmWyk5KUuA5ynwCh6Ec61+6fs3EaXDnR25UKQzIjODKHmFpcbPlqT18QcHyr0wk4UoAlOoIJwSArGQD0z1rjj/C/HvCb7kyyvvyGB3lP2rJWpI6SoK85/0rHnWwtv0oyUkNXm2oeKSErftyuweGNiXI72UZ/eT6U0bSh/g9scSM8RQbjJiFx/t7lGa5SsgFSEOZyErIHaJII54xyqFXGPZrbxjxCeL4br1tu6pTkGSA4UtpeeQ4h1stkK7oGhWMkY5EGp1D454LnaALqmK4oAdncWnIxSfArUC1/31tiuy3Zgs9pbLhHVuWy7EltKPjoyoZ+VOxzpnhS2XhMGVbeJnJfCtrmPmSzcu3C4LLKUPvpZKkgYICRuhOxzv1ttyHeO+K5V4lNH6ltamuxYcT3VISoqjxyOWVHLrvPw6ip3c+HWH7Hd7Rb40e3ImsHBix0MtB1KkOAuBoDIVpCVHc4Plgxx2Pxbw3b7TZeFbU3JUllci6XJ5tgoemvEauzDziAMYwSQdgkfZ3u0TKXLiw48iZNkIjxGUlT77h7ifIAblR5ADJJOMb1zrhsSeJuLrlxQtlbUCCVNREq6O9j7MyzvkEoRla8HYkfer0Rwhxbf32ZPFt4KWW+8iJGcQ44nIIKUBtIjIztuAo1PIcKHb4seHBYQxEjo0NNNg4T1JJOVEnmokkms+le23gfTwpv+FVqw5J59Ov8ASoKb5yeZ5fkUdfjRWJEmUsNxozLkiQs/YabGpRHn0HmR41eBzztUX4klx5UtFmdcLdstzKb3xM4nYiOz7yPDG+6lnCsY5lAojVATJ5eckNrRcOKgiTKaBUlcPh5tYZYhJUCCC+QEegWqprHTGhRyXVttssNuPyXeSEpSNTi8DoOSfIAdK09ljSXlSbnMbDUuW72q20gaY+lHZNx0YGNLKPdj9YrNRv6Rb2qLGbsUdWH5iUPTdJOUsZ1NtbfeI1HyA8ak7pvSFX+8vcR3qVcFhSYySGYbROezYRshPrjc+ZrM4ehw5t4tUWYrTHfkttuZOnKSFd3V01HCfn51pmGwhIHM9amvAdjVdbuiU6g+xW0okO5Hdcezlpv8RqPknzqcnc08ud8rqOu2+2QLahSIseOzqCQvsGkN5CeQOnc46ZNZ1KVrj48ePHxx9PSUpSugUpWpvt0FshpLamxMlupiwg4e4lxexecwCdDY7yzjp51LZJupbqbQnj6+9s8mzxlZajq1yik/G/g4Rt0T/M/q1CoEGVc5sK3RBh+W4GwSMpZQndby8dEjJ/AdatuTUhibJbfWl1YcUUvoK1NSEk57VlxYBUk77gb710H6Nrc2I1zvCwC88+YLCjzQyyEqXj9pR3/ZFc8e+3lmNzz3km9vhQ7XBiQYyQiNEZS2jUd8J3UtZ8SclR8TXpHysGQoYL2CgHmlofAPnzPr5Vh3yWIVslvaVK2Q3pRupSVqAWEjxxnFZsWTFmMMSYrqHWHkIcbW2oFJSoAjlXR69L1da8iOv4CvY1YpJPL/ABWa3HiBy8v409PnV5BGPOrTkZ/O1FWE1jTZsK3RX5s54MRmNHaOaHHPjUEJCUNgqJJOAAKyj/TpVuSCSNjyyKCCXR+/Xa98GPNsybFEdeu0GLJkBpV0cQ/EQ84sxlAobyEaUZUVDOcdDsI0m12aRdollsl0ubsNSF8Qz2HWHpKnykuaXHpTgcddAJKkpwBnAwTgb+ZAjzXrQ+4p1LlrnCfHLSk4UstqZUhwKSe6QfI+fjFI/DLrLgt79sfWt6TN08TWe4tw5/ZTHluqMxCilwkasYwsHG1VhMYclidFizYa1PRZTSH2HEpUMoWNQyCMg+IrCuNj4fu4zcrbEkrIwHnG9L4Hk+2Uuf8AdURjROHnbVd7xeFvJgWdyVa7VEbmOsuWpi35jtpSltaT7U8oaiVZJyOhxWytl44oU3DtyLc1crhbrXCcvq5EtUR0TJA1txG1LbLZeCN3M7Z6g82l2wZn0Y8OvFaoUu4wyeSStuUynb7rqQv/AOytG99FdwTkxrxAcxy9oiPMq/8ArUupq7xZbharbdY8eRIFx7b2WMSGnQWHUsvBasKHcJxsDnnsBkbWDOauEOLNabdbQ+lZLbwAdaWhamltrxkZSQR8vOm6IBYPo+uEC6RZd3lQZEWIr2hqPFXJV2slBBb7RLqEp0g947nOkDGDXRjg8xk778z86pkb58/Shz8j/OpTWj8MVbmq/P8ACqZ/h16VBQk8tvMVQDPL8n0qpxj+39KuAzgY69M5oMO53GPaLfNuL6dYjIHZNZ3kSHDoaZSD95WAduWfCohChTVusW99Wuc7KZvfETqsgO3R4F+LEWOWhhPvljHRA61lXiemZdXHA37RbuF3kNsRgoYunE0n3TMcAncN5wTjbCzW6sMBUaP2zzgelSFuuuv4x7Q88vtH5GB0WoAJ/VQipfgZsh+DaLfJmP8AdiQI5cUCe85p2SgH7yzt6nNcEmzpN3uFwusxWXZDq3VY5JHRKfJIASPSpv8ASXfg8/H4chuAoYWH7kpBGDI5JaJH3BufM+VR7hqEw7LVKfJES0mPIeDbsNLnbLXpjjs5Z0qRqGXPL13ZZTDHbnld9R4P2y4Q5EaFIZSJUlqM+w00608pbcjZvBZURlXL/Bye68N2VuxWmJCASXyO2mLH25CwCr5DZI8hUe4et5m3EPPBJjWV1bqwlENTLt9kp1vuRnYyRlpAI0g7gnxRtOqxw25zyyZxwky2UpSvQ6FKUoKEpSCpRASASoqIAAG5JJrmUriOLcb7JUp8RW0tdhbZj0pxhiPHQsLkJUhCTlT4GAcbYHVO8m4qn5EGxNSm4z12WESZDqw2mPCydZBUQNSsFKRny61zri+1t2m8vssI0xX2WJMVOSrDZT2ak5O+ygevWuGWUyy8HHPK73Pw1V0uDlxlF7DiI7SEsQmHHVPeyxkDuMpcWAogb8/Guj/RtNZctdwt+R28Kap4jqWZaQtK8eoWn92uVZSrOCCPKsq23i4WCfHukLC1tpLMlhRIRJjKOpTSiOW+6T0I68juddMYZfduu7XiAu526VDbeLD6g09FfHNmUw4l9lzboFJTkdRkda5/Fuj9olLiyf8AcFwS6UqQ8hS7FcMnbsnU5CFevrkZxUwsHF3DvELbfscpKJZHvIUkpbkoUBkhKScKA8Uk/LkMi8WUXNBLUj2eRp0nW03IivJHJEmM6ChQ8DsR0IrVn5eliMcTxmwym7sLg9qB2UsHt7a/k4y3KbygfMj1qQIW06hDjS0LbWApC21BSFA9UqTtXMZFqudiLykoetbSz7123ocuXD0jzkwXAp9vzOFgeIqyJcHrckSkBdtadORPsSvrLh+QT1ei5KkE9cbjwFZ38q6gRVpSM8s5/O1RyHxQexS7PYaciE6U3O0L9rhH/wCVKfeIPiCKkEeTDmNJfiPtPNKAwtlYUNxnfG4qtSrVJ3OK8yDnFZJB6j0xVhT+RRXhVD5/wq5SfzirCCOe435VBr3bNYXZzdzetkFy4NqStMlbKC8FpxpcUeRUnAwSCdhvtWrdtVwt9jftlocW7cLnMcE+5vFtt1BnLKpU9aUkEqCe6gJORtzxvI8irDz2PLw/GqmmEbVaDAi2tcNpyBEbbZjtPAq0pbToCsg5yd9Rzvk+NZSW0NIbbaQhDTaEobbbSEIQhI0hKEp2wOQq7z9Kp1/lUFCeef8AIoD57dKE+P8A5qm23r/53oiuRtneqn8/yqzr1qu3zNAwPw/AVrb7cXrZACoiQu6TnkW60NDBKpjwwHNO+zYyo7dAOtbVKSopAGSojGfHxqDyZ7txmvXiM6kAKk2HhNShltGE6p95KSfhQASk43wkdaD1tdtbVIi25hanINm9pY7cFWZdzWAm4Tio4yU57Bs45qWfs1JL3do1gtMy5OBCSykMw2wNlyFDDaEp8BzPkmrLTCZgRY7DLZR7tpttCjlxDSQezQs/e3Kl/rLNct49v31zdk2+K5qt9rUtlBTydfzh138e6nyHnUx77S3SLIU9IeelPErekOlRKua1uKzz8ya6Xb2HrZGhQID6XJ7UlLcZLEqC/m9y2SlUtn3JUqMlCiFgnYgjGRqEc4ViEPLuSXmmnYqhHt6vaAy63NdwgSy2ppYUy0Ce18M7jaul8LQvaX3LooqVDhe0wLMkviQ0VKcJmTGHQhJKXVDCfIHGAcDzct/VznHHKb9/KSWu3RrVAiQI/wCjYRgqwAXHFEqW4rHVRJJ9azaUr2yamo6FKUqhSlKDEnW+DcWizMjsvNkHuvICwPMZ3B9DUKvPAinm2/YJjqUMBYYjTHFusNpWdSksubqSD4EGugVSvNn9PLfLG6qXGZTVcrfhshiDb7uwtL7EG221gzmmELWv2jvt2qXHAZSCOalknl51D7nHajT7jGaSUtMSnmkJU6h8pQk4ALqO6fM/2rvz8WNIbcbdbQttwFK0LSlaFg9FIUCk/hUNu3AFrkhTkAmG7uQlAK4/+gnUPkceVcpeTiv3zc+YxnhbOnGnoXeDjSy2sHUMcgobggjcVI7P9IXGFjKGZihcoacDRMKi6lOfsSRlf+rV6V6XThq+WkqVIjKWwP8Anse8Z+akjb5gVo1IByCOfQivThyY5zeNcpyXG6rslj+kDhS99m0qR7DMXgezzylCVKxuG3v0Z8twfKthM4XtbzrsuCt62T3Rlci3FKEveUlhQLKx46kGvn92C0oko7ivTun1Fbi18UcYcOaUxZxehpwBHkZfiEeDZXhSfQEfOt9V2mcqezLBdba8qUYsht3kbrwoFJcUPGZalnCh46FH9mtJJv8AHtMqM5KW2pUgO6btw2sRZQW2rSpudbXtKdQyNQKUH1rFuf0nX+bEDEdLUNxadLrsdKkOAlJHddWs4Gd9gD5jrAX2Ja0+0Fp1SFqUtTqgVKWonJUpR7x9T40mLe3drTxa/JbK0Kj3qMgAuPWr3VwZT1VJt7uF/NIx51JYN0tdzRqhSUOKx32vgfRj7zS8KGPSvl5qRIYcbeZcW262oKbcbWpDiFDqlaSFA/OphB40ccLKbwwJakaQmYlz2S5t42ymW0NKv30H9qli7d7Kc/nnXmpJGdt6hVn4rkvdm3EmM3VJ3ESfphXhKccmySWXP3VE1JoV9tM9wxg4uNNSdK4c9PYSEq5YCV7H5E1ldsrRvzPP88q8jnJzWWpGc5GDn0/nXips0a28Dz/j+TVM/wBedemgg/PFWKB3xyzRFD08qp4n5nzp5U3x5nYD+tBTGd8nfnVwHKqJ9Bt1/wAVcpxllp599xLTDDTj77q86WmW061rPoKqNJxHKkKah2KC5ouN+U4wXQd4duR/xUpRGcbd1J8z92sKyRY82QJTDRTa40ZmHaWyMBNtaXqQoggd6SsF1W3woQPtVqu0fua5U2Qh1EviVpKUMAkPQOFmHA02wnvbOSlENjb7alfZqdQojcRgIWptBALslacJaSoJGrQDgBCAAlI6BIrN76RHeNb19RWh1Ta9M+4FceJg95A/5r/7oOB5q8q45BivPussIID0lxDaVKC1Jb1HGtegFWlI7ytuQNbXiu9K4hvkh9BV7FG/2aEk7YYbJ0nHio5UfXyrc8LQVMNruZdEd93WzEfUucyuBGSkqenrDKNCmV4DedWATzB5TkznHjtzv3XSQQ47mi3We2PrbW4VQYS49wkOKisalOTrm0FtJSpl4YCO8QDjBBPc6ZFjR4ceNFjNhtiO02yygckoQNIFRzhSDqacvDjTjXtjbce1x3HnXxDtbWA2htbwC8LI7TkNikdNpTXP6fCyeV91qd9lKUr1KUpSgUpSgUpSgUpSgsW22vOocxgkcyPA1FrtwTZLjrcba9mfVk9pFCUpJ8Vs/Aflg1LKV58+DDK+Xq/MLJZquJ3Xgy/W7tFtt+1x05PaRgpSkp8VtHvj8D61GVBTes7pODkEgA46HO1fSCkJVsQD4eP41orvwrY7uHC/HSHlAjt2cNvfvKA0q/eSa5/xuP390/5cbxf7XHJVpl25TjzseK8yh1lhU+3luRGL7rYcDKXUgZUBzwP8+KVhe6VZ/nXTpFrvsCUiWoLm6HS4qVbksRrm20mKqOllmM7/ALIRyyQM46bDEZctFnuAabQhuPKaas0R1cFlyO7FedcWHUuwF5ceeP2lDA6/YOqYfVS3V/8AS4fCMps9untuKXlMlRUG/Z/0idIGNbYSc6snly09NW2nmcOXWOFONNqktAnJaT71OEhZ1tZJ5HO2akkm0XOMl51kIlsR25EiQWSBJgssvKZBnNHdCzgnTlRGD9w15sXN1CkoeSXUoVktuqdadSrOSdSCFZ5cweVeiZb9J5ZY+0KQ8+ycJURg5KFDKcj9U9akMPjG6toRHuKGbpCTgJYuOtbjSfCPLB7dOOneI8qy7i3b5oYHYKy22lK3l4D6iEpT3lJO+MfxOw6aF+1OoyphXaJ+6cBf9q6Tt0mcrp1l4zjOdmiDdC0okD6r4kWC0dvhi3JG3pr0+hqZscRQFOJj3Jl+1yl/AicB2DuerMpPuyPDcV83jWyvC0HIIKkLBAIB5KHnXWGY5s8ViOFz7XGebbcEPiVKbhZH+1AcCRIQkBtWDg5S2duZ51L026eUAhJ2wQCkjcEHqCNq8lII/wA1A2Jsi1FvSuRZO1wpsOldz4ck5+024MrQD4jPrUha4lQy2hV3iKjMLx2dxgq9utTvn2zOVJ+YPrWdtbbZQ5557birSPyOlezS40ppL8V5p5lQBS6w4lxs/vIOKoUfnpQWJAqM8TSY8t9Fjcd7O3sMJvPFDyT+itrJ1tRQRk63VDOOeANjqrdXW5xbNBdmvJLi9SWIcZH6SXLX+jjt9ck/FtsATUZjQZ6XUxJKw9c5UyPdL6s5Lb12cR20SFg7dlGSO3WOXdQPt0vpG1scN95+Tc5jQafddQssDGmMtLXZMRE6QBiM2dJ2+NxZ5p2130iX76qtSbZHWRNuqSlWnOpuHnCv9Z2HkDUtzCtkJxx1ZRDgsLddcWcrUlOVKWonmpR3PiVVwK9XSRfrxOub5wlSyGUE5S00jZKB0wBST5TK6edqtzk6SxFSvswvU5KkqaecbisJGpx97sRkJHLOQN+Y5jp0OELhMiWiO27Gjrb1SWUSbmFW6zMlLfso9pCQpuURqTsMAkYOkEaCwwWrfBdmSwphcloPzXHGLo2qHb0q7kWQGQEluVjY/wD6xhPS+GLc9EhLmS0LROuSkyXm3HHHTFZwewhpW4SrS2k49Sa8t/jcmp6jEn4+W9SlKEpSgBKUgJSlIwkJAwAAPCrqUr3NlKUoFKUoFKUoFKUoFKUoFKUoFDSlBQgEYIB8iK1s6zW2eW1vsJLzRCmHklSJDKhyUy+2Q4k+iq2dK5cnFhyfzQQadw5do6EJiuomssNhuI3NKW5UTMhMhTkeSgaFOZAKS4OYBOdwvQXGNbZjshE6IETc3qZouH+75+yE9k7JnJy06B9hCBgDG57M6ur1iTLdAnNKYlR2Xmjv2byA4jPiArkfMYrx5fT8mHfHd/5TTjEjhq4Nvdjb3VS3C6wy1DlIEW6Oao/tCnjFXgBsbjJV0xjbfSBYBAcSptShkBxJTkZxlOoDI866/M4YkspPsD6Xo/tHtblvuxckxXngyWEkv/8AEAAYwCpQ2qNy4qNDUS8xFJWpFkgoNxSFCQGnlFxuFdGO4y0M75GojbYqzTD6m43xzjneOfsg2EBTLhabdLLjb6EuJ1BRaUFhJ64OMH1rsVm4r4Y4lbS02821LdSNcKWUJcUSNw3q7qh6b+Vc3mcPdmgPwpIbDiZrzceUrLT5blCO3Gtj+Pek5A1EJzlJ+33I1PtEmFIfZkMOw5DT3ZuoWdTHbaQvCXUEpzgg7E869mPJjn6Md4+3a5HCjTPaqs0ly2lwlTsZCEPW18/9aE8C18wEnzqNPQrhZ3XHVR5NqWo+9mWJK5tpe8TLtzuXUjxwHPlURs3H3FtkLbL73t8NOAGbjqUtKfBt8d8eWSfSuk2bj/hK9BDTzv1fLVt2M9SQ0pXg3IHuz89J8q1Y6yyo62+w0k3BTaoaFd033hBwvQSSf/Ww0kqQfEEfKtkq+8QNNFyJxFwlNaUnKHLgjsXQP1ktKQf+ypBO4XtUl4zI3bwJyhtNtbpjvqB++Ud1Q8lAitLI4Z4iJIEjhyaknZy4WRpL/j3zGUlBP7tZ1YqPQb247cXZ7zyL9f47a0w3Mey8O2NhQJXJccWE4G2VHSCQnGrO9TLh2G4mMibIW464+lxTLzzfZvPJfX2z0x1sjKVPqwoJ+yhLadsEViW/hBfaMu3mW3LbYX2rECLFZhWxtwbpWYrACVKHQqzW8vN3g2KA9OlOI1hC/Zmlk65D2NsDOcAkaj/U4N9iC/SZfi21H4fir77hRInlJ+bbR9PiP+KhNhtiZstlDoKYMfQ/OeXHkvsBAPdZe9m7w7UjRnPU1gPyZNynSp8hSnHZDylkkZUpSj0A8eQqd2yEm0W/38UqkK0PTG5EK5N+0TnkAR7JJCVhB+JK0qxjONt8r582fjj17c73f6N9abeblc2Yzja0MQhHn3VpRnJWyvBXFs7okK0rba/SDbGwwBq73Q8Vq7DbFWq3tMvLLkx5SpU95SlrU7JdwVd9ZKiE7JTk8kitrV4OPwx791qfJSlK7qUpSgUpSgUpSgUpSgUpSgUpSgUpSgUpSgUpSgV4ux2HkLbcbQpCwQtKkpUlYPRSVDB/CvalYzwxzmspsRWXwmyESvquQ5BMiOuK60gdtDcYWvWpox3DlKVb6tCk8z8o/NjTIaXE3KC2zFSu6SA5HiquVnY7aPoT2MIEOpdJySpW2VK6O9zpVWKQhXMb+PI/iK8WX0tx/wBO/wBr/wBpqfhxeXwzbpKQ5DdahpK7bHKlSvbrU12zGtapE4gL7UnbSE4yU9HO5FJ9gnQ0MuvRnGm5Ef2tl1AC2VxlL0JeUUZCUq+zqwdxtvXd5fDUBx5EuEXIM1t3t0PwtCMu6VI1uMLBYUcEjJRnfnUXlWe729DrbkREqOtEJt163NH35alF9ci7QVHW7zJwlWDkjbV3MTn5OK65IzZrtzez8T8WcO6Uw5i1wwc+zPe/jEeSFHIz+qRU2i/S0wpCRLs/vdtRjSNKT+64M1hS7PZrimTIjJIezfJa127PbPFlxPZmTbntmGhnxyfVVRufw1OjpW8ltmdETJbhomW7LzL0hTIkFtpA96cDmdGNuderHnxyN2TaUXD6VpKkLTbrcywoggOPqLyk+BSDhOfUGoJNud3vL65E6Q66tZ3W4onbfASOW3TAAHQb15pjsA5SlGxI23wa9dOkEgZIBwM4yR0ruxeT4bjhy2e0yDJcil6LBHu2XYkh+NPnEAMwVLZICSrIUCcjYZG+/SeHreJ10XJcPaxrM6tJeWiW07Muqx3vaW5LiiVRh3Ekk8+fdwI5b4zceBb2rcY8tckpjwHTCntM3W4yFntHVq7QISuIArSrHIHGCO71G129i1QIkFlSlhhvC3F7redUdTjqzz1KJJPrXjxn6vJu+o3J+GbSlK9zZSlKBSlKBSlKBSlKBSlKBSlKBSlKBSlKBSlKBSlKBSlKBSlKBVqkpUMKAPh5elXUqWSzVGlufDlnuYWX2AHlIKC+ytTMjSdtJdbwSPI5FR6ZZL9FlGak/WSu3U+5IaLcG99mIxjpjsyEgM6ORIAST61O6oQCMEZHga8ef0mPvjuv8Go4JxElpL1tQltDbrNtYZlNJt6oKmXklWUOBZytXivGD88DRZSDz3xkDr4cq+iJ9otdya7KXGaeQPhDqclHmhXxD5GohI4DeZEyPaZ6o8O5qjtXFh9CHCphtzX7t7SVZG5HLzNYnJnxY+OeP9/bhlx5b3O3h9HFmeDC7xLLhRqeZtjS1qLbYUQHnkIJ0gqICcgdD410evGLHYiR48WOgIYjtoaaSOQQgYFe1e3DHxjrjj4zRSlK20UpSgUpSgUpSgUpSgUpSgUpSgUpSgUpSgUpSgUpSgUpSgUpSgUpSgUpSgpSlKh+VaUpVClKUClKUClKUClKUClKUH//2Q==;fontFamily=Helvetica;" vertex="1" parent="1">
          <mxGeometry x="172.28" y="416" width="37.22" height="34" as="geometry" />
        </mxCell>
        <mxCell id="rLr-IdZesuFoyCVZBpzc-61" value="" style="shape=image;verticalLabelPosition=bottom;labelBackgroundColor=default;verticalAlign=top;aspect=fixed;imageAspect=0;image=https://www.hellotech.com/blog/wp-content/uploads/2020/02/what-is-a-gpu.jpg;fontFamily=Helvetica;" vertex="1" parent="1">
          <mxGeometry x="569" y="416" width="56.67" height="34" as="geometry" />
        </mxCell>
        <mxCell id="rLr-IdZesuFoyCVZBpzc-63" value="&lt;b style=&quot;&quot;&gt;&lt;font style=&quot;font-size: 14px;&quot;&gt;CPU&lt;/font&gt;&lt;/b&gt;" style="text;html=1;strokeColor=none;fillColor=none;align=center;verticalAlign=middle;whiteSpace=wrap;rounded=0;fontFamily=Helvetica;" vertex="1" parent="1">
          <mxGeometry x="172.28" y="450" width="37" height="12" as="geometry" />
        </mxCell>
        <mxCell id="rLr-IdZesuFoyCVZBpzc-64" value="&lt;b style=&quot;&quot;&gt;&lt;font style=&quot;font-size: 14px;&quot;&gt;GPU&lt;/font&gt;&lt;/b&gt;" style="text;html=1;strokeColor=none;fillColor=none;align=center;verticalAlign=middle;whiteSpace=wrap;rounded=0;fontFamily=Helvetica;" vertex="1" parent="1">
          <mxGeometry x="578.8" y="450" width="37" height="12" as="geometry" />
        </mxCell>
        <mxCell id="rLr-IdZesuFoyCVZBpzc-66" value="&lt;b&gt;计算状态&lt;/b&gt;" style="text;html=1;strokeColor=none;fillColor=none;align=center;verticalAlign=middle;whiteSpace=wrap;rounded=0;fontFamily=Helvetica;" vertex="1" parent="1">
          <mxGeometry x="535" y="577" width="80" height="30" as="geometry" />
        </mxCell>
        <mxCell id="rLr-IdZesuFoyCVZBpzc-67" style="edgeStyle=orthogonalEdgeStyle;rounded=0;orthogonalLoop=1;jettySize=auto;html=1;entryX=0.466;entryY=0.003;entryDx=0;entryDy=0;entryPerimeter=0;strokeWidth=2;fontFamily=Helvetica;" edge="1" parent="1" source="rLr-IdZesuFoyCVZBpzc-34" target="rLr-IdZesuFoyCVZBpzc-12">
          <mxGeometry relative="1" as="geometry" />
        </mxCell>
        <mxCell id="rLr-IdZesuFoyCVZBpzc-68" value="&lt;b&gt;PCIe交换&lt;/b&gt;" style="text;html=1;strokeColor=none;fillColor=none;align=center;verticalAlign=middle;whiteSpace=wrap;rounded=0;fontFamily=Helvetica;" vertex="1" parent="1">
          <mxGeometry x="442" y="520" width="68" height="30" as="geometry" />
        </mxCell>
        <mxCell id="rLr-IdZesuFoyCVZBpzc-69" value="&lt;font size=&quot;1&quot;&gt;&lt;b style=&quot;font-size: 14px;&quot;&gt;流水线调度&lt;/b&gt;&lt;/font&gt;" style="rounded=1;whiteSpace=wrap;html=1;fillColor=#dae8fc;strokeColor=#6c8ebf;fontFamily=Helvetica;" vertex="1" parent="1">
          <mxGeometry x="447" y="602" width="80" height="20" as="geometry" />
        </mxCell>
        <mxCell id="rLr-IdZesuFoyCVZBpzc-70" value="&lt;font size=&quot;1&quot;&gt;&lt;b style=&quot;font-size: 14px;&quot;&gt;序列切片&lt;/b&gt;&lt;/font&gt;" style="rounded=1;whiteSpace=wrap;html=1;fillColor=#dae8fc;strokeColor=#6c8ebf;fontFamily=Helvetica;" vertex="1" parent="1">
          <mxGeometry x="377" y="602" width="65" height="20" as="geometry" />
        </mxCell>
        <mxCell id="rLr-IdZesuFoyCVZBpzc-71" value="&lt;b&gt;&lt;font style=&quot;font-size: 16px;&quot;&gt;近存储加速框架&lt;/font&gt;&lt;/b&gt;" style="text;html=1;strokeColor=none;fillColor=none;align=center;verticalAlign=middle;whiteSpace=wrap;rounded=0;fontFamily=Helvetica;" vertex="1" parent="1">
          <mxGeometry x="396" y="574" width="114.5" height="30" as="geometry" />
        </mxCell>
        <mxCell id="rLr-IdZesuFoyCVZBpzc-75" value="&lt;font size=&quot;1&quot;&gt;&lt;b style=&quot;font-size: 16px;&quot;&gt;图数据输入/转换&lt;/b&gt;&lt;/font&gt;" style="text;html=1;strokeColor=none;fillColor=none;align=center;verticalAlign=middle;whiteSpace=wrap;rounded=0;fontFamily=Helvetica;" vertex="1" parent="1">
          <mxGeometry x="193.5" y="321" width="127" height="16" as="geometry" />
        </mxCell>
        <mxCell id="rLr-IdZesuFoyCVZBpzc-77" value="" style="shape=image;verticalLabelPosition=bottom;verticalAlign=top;imageAspect=0;aspect=fixed;image=data:image/webp,UklGRqzPAABXRUJQVlA4WAoAAAAYAAAA8gQAdQMAQUxQSKVMAAAB/yckSPD/eGtEpO45DtpGkqSk+LPump65B0BETABnJ2TN0wAM8AwEl4Wg9Mb2JChoA5UZcEu3KDhB5oKqyiLhNkkIAkOmBnQHCjhpVmaSi6CgoaqgoFQnBWcCVrpbVLDz9HCZhaa5zaXHTPc39xsBv5O19ARgxdEGqlTDhSpTlaN/n4dJ2IaqGo+JHUzUTZWHfn74/cCJgFyfbtk7w8uF74MB/3/XUaJdu4vtKnZ9NYy9Ehc7qLHvjoqxgj3iCnaDrmPXoGDB1VjH7lhYpawbK2IdFuyzGoQVWRiNAi7YJiLSy/d5ZjIp53/OueeGPC8R/acESZLYNqo+mCIM6mBKlABwZrZnn7QqSrJkK1aungt4eKvgC1kXIdcG68pgOmJHVJ1HRPSfFmy7cRvpYpbeFzqMZAgAH/DpAdu21W2jbVv3WktLsmRbtmU7ZpAtBcxxYmamgBlix07iUBkDk3KbtCnNlJMyM8Mzdsrchso4SWGgXDfU4Zlz23Tf9xLYlpaUbPNE9J8WJLt1W2mQl7i6DjayRAIEINqfXi2eVvrPTmXt3jc8OGr8tLlzp40f9eANvdeuptLjiqHPvDlhNrMnvPnM0Cv2rpqwy+Wjl1FCy0ZfvktVlI36PDmDUprxZJ+NqiCc/xVl6qvzq54c8Trl6vUjqhz0mwzLKVeT+1U1OeoNKtEbR1YxSEyiQk1KVC05egyVaszRVQpWfxoFenr16iQpWE7FSlUn3mPLslzFf9keVUg2fwU1emXzKsTnXI4iLe9XdaT+e1RpRn21getRqOurjCRQqUSVISQGpTq/qkhv1Kp3NYE4ihWvIia69FykmEU9qwccuFg1iw6sGia67DwL1frfztUCusxEuWZ2qRYmukxCvSZVC7gLAd1VJUx0uQ4JXVcdYE9EtGdVMNGl21IRlnWrCpCRIVMVTHR5Dhk9Vw3gJIR0UhUw0aUeKdVXARgnxbgqYKLLm2K8Gf7pxnKE1C1YE13q/BG2QE5bhH4GghQDgzXRBa/Z/Q8uFuTiasD9gL4bR7UOdPgdvCvIu+H/vqC6BWuiC4Bz/Ay2QVLbhHwukOSCgE10AfCAya+gvyjnh3wGSzI4aBNdAHxU6E9wiyiDQj5NkjQFbqILAKzwI3hSlCdDPm9JssPnJrrs/juA3/oZ0YBVmojAyZJ87HsTXU7fA2BHor/Al6J8GfKZI8lBH5zoIt8B4Jsm/++EYe4bZ69ZrcEnJ7qsA4Az/D8WwvynjqzO3PHNiS4t3wK4XfT3Ngqr1n89ZI8qzCY+OtEl+TkAu7L9vF3GXZ3tlL54ycaBlgfy2YkuvwPwt36/74H2v3c2BXqoM7ASAu27E11WAsBmPzAE+oQRFOiHq0sCKIluPrx3Kf4YwBMWPzDRbaOLOl1beW9jaqCknIEv9yGEPgRgX6VfWM5gtwv/wK2JasQQCCla5eNnis4FgOP8xKJVdTcfYUNmbmsMfJQm9fXxQF0HAVzvL5Ym1Q09A0a+vDg7sLGZ6vOjvme9DuCV9NBYgD5p3V4w8sZJUZ5e+fdRHzOkBRJdbgQwEQ+RwwwVXvktGHmk2/Mr/z7mwyQ1QaLLSQC4PlQOJrnoPjDy07VlHl/59xkfGa4REl1qvwK80CVUDhketuYlbnkMm9I8vfLvExaGoRUSXWY8DUzaJ2Qaw5h9/mdcx7rc6OGVf99M+T+DJblQcEHuBDg3dNr/qbnxEFv34I7msOr8u8tM9fzFqCUSXc5aDNwdPk2eSUueAiPf3hENp86/D1ysmn+WaItElz9mgTFbuTk7/085s5RaeUw4YzcY+fjRWQqdfx+sYFutkeiy5nPAzKNCqWHb+Vf8BSCkOv8+Xy03BWmPRJdrAK5wc2/MvRVznMg/7PnlIdX5d1Tt/+F5fNaoPRJdjv0BeMrJvTFHP1N76FdNcP6dyAMKHY8BwBbtkejS7T3gk93d2xtzIq/0vb76KoLzb78JyCdjWSVr8H6+MDgB4LW52iPR5X5gXh99vDFXtWNufEPZ27hVBOffsRyQjSt1L5v0OLPIM+2R6NK/IGJQI2/MVe2YlBJSVQTn334aIO0rev1/PKI+8fBYouZIdOk5BchsqJE35pZ2jLKUDMOcfx/Qt+bjRc/yKuFTVSsv/3UAE4OaI9FlgxeBqQdp5I25qh1zZIWJt0dVEZx/++k80OzLXMu/GABuNGiORJdBABdo5I25oB2jqrxKNcH5dzQL5BNiERtNnwP4rME5El1OmQs8qFEzlu3sGBVF9Ga2F9GrKjj/Thb8go5UFJe7YNEPLe7E5RpvBoAhzpHosutHwNg6fZqx7GvH7F1QKvlHlk3pKJXco8rg/DuaKQiJqfQN1YqjRod+ARi/l2c1WX7KewL4qbc+zViWtmNehMYqhPPvRMEv6KhXIc2Vv9S3fRkApwheWm7V98Q2WRAhoU8zlp3tmCOAzQx3/h1eop59r1JyEKl4164AgEcTvPQoBbR9++KI6cDf19amGcvOdsx4SAWq8++eYkdjCvYPULBv894A8PMSb/3S2H9VlegicfFpNPBFD12asexsx5wOP5ju/DukRD2rOfzKeip0MQBs13thknCfxqHIdwHLztGlGcvGdoznTYULDXf+HUqintXsITR7StT8BwCf1nvle28k1CS6SOmcpcBdmjRjWdaOKZaXNMlw599hJOpZ0eGXOiNnxlu88wqoMhBXkegiqB5fAKO30KMZyzZ2jCLW+hVOMtv5dxiJelZDSuW156UHALyS62XJQUTv4lFr/x2YfqQWzVgWsmNUXeZ5pyrg/NvvFDuq9vBLmVKeBICTvSuAr3uJ0OsAklo0Y1nEjlH9Nu9BJttgnhM6op6VkYWYp1CnA8Aj8V6UCOT0LwTf+yfgCR2asaxhx6i/Avi80YSWqGcl4YBqx2R5E8BPA14CdW8K6a+6scBHu8o3Y1nDjlHM3sCOwXunlNhRpXsKeIp1CQBsU7xmOKApLpsfBOaeKj+IZQk7RrlehXTwbtJI7KjiX9BRyKov8rMPwCd1XpIkpA0aoXyQeDOWDewYoYpTi/zg/USNxI6qJS5yxmlinp4Xekcy5gx2etBU4EVfuBnLBnaMiD6Fa4M3BLqO2FFDDr+GDwF4Jccb0mxQeZQNM8CUnrLNWBawY2Q4F6YHcKJbGbGjAlkRUinhKU8BwElekBxEDCsWI+qn79/4O0ZM38J5wVvOoJXYUbXhgDI6AwAejvN6pzHgGaQ+85DV9/Q7Ro6r4d8BXLSqiNhRqcOvmCek+W8B+LHf253HkPVM0u6fyPIj+46RZP35cGyoKk2q2hx0pbGjBp5xbgWAG3TTDYk3hczSU8FORbHmFb9ihHU3jA5ZBejVm4OuIHZULisi7wmqdT+Aj2u93WPZtMvoAFSaUVjJK0aa7YF9w9swQ6pGzSs3dtTQM85gZjR1gZcrWWXTXvIDUHndiLJfMfIaVvAue/gaTFK1OehyYkcFsyLkK8SNHAbw8p7WIgNxN5wxCCHxL+W9YjSgJ4XxAKFtyHBlDhhKxo4afcaZ+jQALrXZ57KpN2Y0lMS/lHzF6HNIf2fBSyeEGcNQaw66eOyo8WecZwIwylLXkDGNYEt0ExL/UuoVowknwG9dCvY7lNn/UWoOukjsqAXOOAveBn7sa62SVSYRdOUMlMS/FHvF6KMJxWylhjGTZ/Xq/PLOuKQwdtQSZ5xDARpXt1DJKsPCAYOvaJWQ+JciUc8aMQBajXP+7ZAkUKzmiDUush3zDfDlYVYqWWUOwV+a9HoUakHhK0YvzYIizrzClmHb41DL70mbnHGuV3D9aJCNwgEt3IxlQAUenaKeNeNG+MAw599ugdU1bnFPuySCnfs7MHaPgC5Z5QX/MENx44+kN14GR0l/jyol4SiLjThou5xx1r0OLL9EVWOtaUpWBelgklziXx4UD2yN5dU6/3YM7J5X2eaMswFg5ObqGmvNEQ4YtEOGU4l/2Q2ISuJn4Q1na6TKLyrJNolg+30K/NBHYWOtIUpWBa8xDCrxLyPhEeEY3HxUnfNv1wA39jwDcS1fdQ+tZonGWqOQDeCfPLmvLYcCW8iuSzpbU6SOGYY87ziPzQH/ObQD879349AcxM1Y5vYgvARcMKltGWXOv/vAs44ETyLY+s8UnHeobKxV888VxM1Y5n5O1Av8KE0W6Y51ztbgvGe1MKJEsH7zgObdLdBYa5MBnkvtZNg2eDTQJ8AJk5ccRFKN8+9KcK0JS5QItt1oYFmjwpy9evGSVYZuE4ADdNnI/MtJwEeT2FaG8+8SsVzNNAXiWvmfKRHsahTrV+Ffy0z8WBYMbr4geGaf7megZ9LafM/VZHu+E5STbf9pNmisFUOJFZQnAXNbbElev+Ei4MXJcn4k3W3xPcVTtz67WX54iJJVnh8v3D7fHI1l1Xlj1u1+8ipd8QAqJ6vNyTlflL/knWzcjbXGIGvq9rlUxOh2+ZLXYr0RuN9/avMGifKPrJPNrtYjf8kqP1Fk+04vXUXemK2PZcy/5AGYPRltcc/dINZdVGkiGH9F7ySkDdw+2759Zynxxqwn0c9VegK42tP9Yx6aPHfDWV2bqpMtwLktTZAwcHsrNDgf/fTMRuBfFi3d5qyhUlXaZ4DT+Zohbtb2zUnfEtPYkP2M9DeBszR0m7VSXlEnW4IzmHMQMWt7JT4pFvF18ExWyBzLOOFYCvzF021pL5wh6mQDUdqg6iFVVUBV6fbqqowUlABxWIT9wCrPulxy7etC2R1NJ5urnhqvklUaFFD1k522z0SVVhn53zaFuOod4Qxgrwfv6dVpXSjbRDMckEQ1l7yHVEnhjsq3V/p+0mx4T3/Ci38xHQEWeb4tjH0iSScbijZCaXeBYAFVP9Vp+6aoxOXVh7QnvfiXS4Exj400iq0LYSHQkuGAERSwNikpAaiygKrC7ZW01Hup7qQX/5IKoNhDXXHRdeE50S0KOSs+heLuApUFVMvaXi4ZiyM0J774lzuAOz0TDOtY62LcksWg2YoHyo+6C6JKUFlAVd32KnrUnrG11uQX/1IEIE2DthE63sTbITXuWUSNiGbmY+qLbi9rtvMneNvTWQWIf/k9cLmH2mKeS5Hi8WqqgjOKDJ0pRSCnnfmYeZ23Fx+ICbhfZwoQ/7IQOBKiPdtogugUZVM49x/nV7KqN6qVT2tht/Mq4CKN7zYg/mUPcKb2bEuRKtEMcRsmsDybxadfAdXl9/kaXXM4VN+7DYh/GQW+0J5tKRJicxAJMpKQtlgB1Q/guy20pQLxL38GhjVnW4qyJ4AXZHeaIGGxAqo7tsEYT1dVIP5lE/CW23+orHOtYylu97RsiiDbJANxmxVQPR64V1M6EP8S/k+g2U3DI+/M63R95T9cpS/IPlEOIlYroHo1MMDTUiWIf7kKeHIKt/2/hvn7MF3P7x4OBwyyEGjAcgVUm4BDtKQE8S+zAOS7MV0ose6lJWcT4ygO+uFwwABLdItC1nIFVFf5GL7ZzNNQBYh/KTzz8rt2/AL8+t6Ouy4/s3DKtL32YIFQhnLo7NMnSQZYOYMYNNuugOouv8LrnoYKL/4lbviu7+FMvrt7OM55W0r/5onSmr84aOWzFBJcRauS0GS9AqonAHd7gaHzrWD+ZdGLcFVePL4IfsE6E5onasoSStGk1YzgKk3aBCn7PTvXBUuP7MPMN/9yygcVFeL54BRt1qkcCr4oq5+h0By0Jm5mg6sAfQbiFjwGfhboFSRBgWabfzn9UyrVp6cXXFruWGdM80Q9mUozeLq4mQ2uYYZyELPglc7VWmDaxkFBM3xjsvmXB1GhBwvXNfvGNE/U1I9SZQ5aHzezlhlMUo2IDSdsYve58GpQkIPtzD3T3EtVY/mf7FXgvtuc5on+7ugflcaONbJNEVhDhkcgb8dpOTkZGBoQAOaaf+m/XN25/DxImfXuUEmmyBy0VkNSBJYxjChkLVlA9QagXyAQhZyk+RefG76OdYYZ8e3I1JuDljd4Flj2fxLQZMspdvo7cGAQEINmU2ODL0YttxvXPFFDJmEOWtAIALR0dDQVVCbPkpC25USKrfkZTNkoAEhCk6EZYGeiWmca1zxRP1a+Oejf5wiZg5buaMrExlqtSlbNwR6GJvacDy8FAClIl2n+ZYbuef7HoV7HmdY6TW02QTrzXUknDcFj2DYDcWvi9QHusAdqpxlsRycHUvqyqcT3z5xNDWuQqzYeh7+KYXBHU5cb3lhrDiJa31Gzm23SZ6feaQbPau95+zEk9JhhFVhrYwCMkMPQjqYiqSwK0fxEA3habyJnL8Dy/YzD5tqWAc7TmMOR0eGGNbvaGn+ErwXRt6MpBU6gyOvQWOuzAhB0/kR6/GECTN7AMHyubau8A5yqLx8J8ZFpLU23Zgtgc0nM6mjKT2TznbwtJnZU30iVWskqnUOgFdMWFsKLZuF0bVv/Y+DPthm6d6BhzRO1xnjhq2z15nQ05cc7rykcV1u6sVaBStM6J7oJ2mnAEJPwurZt+SUsPEhTJoox0bDpiWiNe2CQ/Qph+bFM0TWmN0WahrR9fFmpONo9yxjsrm07TYefolqyD3Lax6xJKGmN02G0KRFTveXWNOXp5Jui8+VzoxtrzUBce/d9kt1qL93HdHRPM9i7Db7ZTkfuEOQOw6YapzR2gJ9sFpjnx9Kd16SKHkUY3VhrDmI6eywVZZ2JMGk9u4cDVnS6vQQmbqYh0wSZZtqEMpVmP8IOZaKlEQC5NdlSa9Q01ipNRGsnzaK29xIYZTy6IkOOAz7ooh0HI6mDzWqeqDVeh9PtlGQbS+fKXmN2Y60RyGvtl146S/VWzXG+tp0OjNGOgaIMNMuXbmsMgrSFSqnEOgc659rX2EVRyBrWFYdKjYnZgDGz12IYct4fDY+d7xblbrPch7fGsfC+bQrmRTuvyaej9vEVkoCMxXofUjd7LYairP33Sg2Ps0aIMtKsHhNaY3NYWAYa/zRRuqZJxzUqlabt1+GalWZNQV1kSEo/B5MfivJhOdfCfT8SiUZjsXg8kUgmk6l0Ot3UlGlubs5mc7n8ctlOYlqzVuhRGmPPGf0iazIxW/lGaoKE3fqYVDh7LYahLzLkbu3CvKeL8mPhD9JMxw/SbC6fV5GT6eIML+tNdjPfGfCTRRI74hbzyZWBuAULqFpoBmQMRIY8Clyr1XVLa+p7bVwJT5SBzvEfKhJ3feu9b2lIAVWLGhM2DQdUoeeBSzRihijlHE22b5DLZbPNzZlMU1P7sWeqfatEIh6PxaLRaMR/z8E38Q6BL8rAsChfP95cIpHNagA2LKC6uY1mM8tA+++rwDl2WP1FqR+kvh9GPpHXBVi3NCblcvmxpmJr7Pi+pTHmY7xqTES4nV+jGThRn9RAUUYY1jxRchNU66N1xn7ZibtGBf6ZiJT0f1JbQNVa9EyM2/kN/w0cZYV4QIdMdFMvtX2VUQbzyk3cten7lsqWDCzVrICq6F1t7yS389v8F34/wAZZH2GhnIGCsPmRJtoILZm4axQmIiVTQELdtTzv6bUEuZ33dvseZu1ugdxes4pW9cZe8E1ptK6xbmoim91p6HEgrayAqv30WgBv51W6C/0NpkZMr+DyjWGlSYuz+bBFSfQeSSdWNJEtsC63RvKQ8VXF5flPrwXwdl5pngvweVfT6/SZ1TyRy/Ev9deSvpSNiq8kcTfIc0u/GXK+ogKqCNNr4QsHVG7b9F9rGl6N2X2HGRJ6MHaLYuaIsrhwsgL0XWNQskrd3JzENMyxFc4pdmAavSSvs4DXzB5zw6zBJJ2O0+ANg5jXvsbgRDYXkZJJIKljAVXhyjF8t/NqdREw3OiR1cwaMtzp2B5+NujOFLWJbNAlq6J5aCq7gOqPLJsiV0BVuT4gGYBIhzGPGzx+rmHGMNxOP8COJm2iTtglq/xsRY7UX4QHPH31ps2+FabVK+W/FbjHXJcEZtn/cTxegzNKYQEjAOQlq5oqs+56FCzeUA7lsz7UmXYvyeteYJCpXljMap7I9UjBveZOrkCecMAkFf48/hiukUP5RDfCcED1RwJXGep4yqzmiVyPY+ADi0yhBb0TP5qv9KT7XMjJoXxuL1s4oFg5gguM9LVnlmFb52MzWFQKrY0AWB0U4Ocqby1nBpylkPwfDBmxigujgTMMdC/q0La8tUns2Tu4DmTM5teQUeDB/wZ4X1P62+yQfxq+Uv61xwPHm3aF4mLPc9vmCyTlz11ok8tV5E78pIpznU2Ww2F6coulLuxO25fktckEWKbBl/d6lP/4M6fFFifkCngyqN6UNBMhHy/YqGI9rNQ9Zf7H95ItedW1wq/7yP9u/VBhvxn9PR3UI6useSI35GCYaEzoWaCFA0byarqOiAI7KSN+kGZU9D2mPX+AGbtIk4ZZivhsL69QhrTL54j8AVjPJgkGaE58FUUMFOgVwRBdZW3M2kzbV8rfcz58tbUGwVCqekfTRYqaJ3JHfQ6H2iSNlNqJn4Z8XFUo0rx1hVBWQI8WDiioPwGfbiB/CVNRh5DaSE3zRA7Jo9Bgk2Ih0E78hEJr7J/BlY5ECtLi7bO9u5pwd6/5wj5wK+LjU7wScusG5+WjkUYFYUk4hf52Ky5ioDCMZaoj3cmID4R0LvCS9Awzqej2u7RcZBobyBzUJhX+DaSSVX5W6Rw7zYa+brRJs3x6w2XAME3O57c8Z9jskvzw3DlbepqpdPNEny9ZPq/zZIW4qObBlgZ0NGV74tBcaTVSpbnRzW70iXIQ0SGi72HZVjfLmLmLL2Yzu9PMXeivSM5xp6prLBxvxCBewfW5kop73NkSOMiJQqC16JT/dmCopoNKGbLk457D8jeRMdd7i6Q+BlXJqmhe9QX+J2CYCyW6RSGnSYPyN0ke3IbZxesrY3v1M7X8cr71yUC8smqkyoexqQvMcgbT/w1segYYKDjCisH4WeddvO3gF/UklVZSBHhtN0OR6m93XLmeZzMCDf2/AXd6ShS+xkRSF4M7LwJ/EXtkWFtUvnu5s/Lfvnl4TJ0RgOOnGFJ6wlTzbBKBi01xmLOWEmxqTNCGA8q4QO4rNdxAuF28VwWu8mUg56s0AnBnQYT8oXZE9TiQsY6NREYrvEwJuDUmCP8LOAWIuiIuqOKZcEA9WPcj4Bghp6rmLh3nKwnPebkZ7lP/yzcfU2sE4IBxAPeurTVmmmdLFDEQOBRU5T2TtcYEkXSKTiKCIMqKIhOqiKLoRIFXgDgQdYriUI3TTfREOKAuv4T+A4sOVk8zxMPt4tXDh+ooMus4yo0AXLkEyPWxIqp+hRR5WUi8objaL3Cykm8d0hoTZBwHhmOCZdL/C+6IC1NI2n58VRJlFAWHAl82RBsl5k6PV1OVhNYJvJRlMYjTZqZ2h2/h5z+KPNLgBRdevE1hsdpvh2bI+uqNAGz/D4Dnt9EWT82zKbGLPbfB254KkdaYqACwsyDJKI4DKLObpQ0AtuXF6MlaqsDcWD0hEwBKHSqRBwCckGmR3Q8H1Kjf4V/g2x0EQnNC7uJ5U2EfxT+J8lERIwBn/Q+Yd6mmeGqeTQApuViWA1TgUWNCiTfaMszSDgCdBdG6jQ5urk8zilSBexvSTaIIAB0OlQjV7dyqBIWY87PukMUwaXP1k0kUdhfvebhIIbE8JIU6mlq/EeAdLUvKemqenfU7NAnGqT3tKRBpjQnpORze2upgENhBsX+Jb0+mUAU2MGwCHmdYeADvjbpNTLOfdccAH66r/JHmLinPkRkIT6l97z4jeHFuAsAtViOBQklmXx6gKPSYtMaEaEwqqC5INIqyJauSbkih6aVVeTMU4lCgpIrZ0MfkVTEbckRGZaXbG0ndfGf3Vf4GUQYSYXcRyj162qWlJ9NqEMDEP9uL40w5OnsHhqjAojUmiBwckzjDsYtosCTQuRGimOMSOjZp34Etti7YZNUum2xdsMmqa2201dbtmygPBxQ4rvFFxVvGTV3SnjNjABDqyfsbJ4UNk74F8IhvClhlGk6Bn1ezxJNm/AuZdnh3BWqvYWDkI/2mgsWhtcdzdzn08zpYzLp4LjDrHG2g1jz7ldqrtp7eTR+4hkAbGI93E/CAUkNv4XcRtgHrPUQT5DU4MNx6GMA/d9AAcjdcslhzMwHZfIEN4vHuAm5XaejNPNx7EUaBhz11Luvya/+Ub4BlV4mD/rB17d9AywLm9TNVzl6L3QD0PJzgOoWPdNSFeNoEmeLkAF97hEhen2+INe8BeL+nMOwhdXcVnUOIYGykygohyMOAS9WQgbiLLtZ92D+T+pU3A4PU4dwygR3UmcwoECuLrGrzGF/0OuASRZriPxwB4j3yHNSqKvYhHwMMXVUS+MSJ7QAt++9W2PSB5YjpGoL8MnCundLcUh2LH3isB7A5yigSAC/FhMhkHEB7hF4U7gfQTmMH1gDYQlUSJgDQuILJRY/r1Ekg5mmkawH+e4Ig9Omxzxc1F+seTZEmoUlLVnsPOFnRMHq+gy7CBgBX5MXoRQA7C5NNImV5RoRMxvnUx/UOtlOVCLi0yCnNZcBmD7VpNnBewdnf05tJYf0iKAdr5g5G9ey12I+UtqeXfgtwtH0emQSaAnAhfCaQdBNw9YKsMJmm//RWxCtqeUC2L/DNhrbMMEktR2gq0wOMe6qKgWY67ycgP0AI+5e6+1fxE9tAbHDeDlkXW38F83oqeaSJSwCii5rf0U8x2Rr7KEp8ZR+DEl/R10eRzBlt/QzGtPr+KY8VmPBIFYOYp502fgJg9B4V13+fXdbcU9i/oPFpMMvTQepnr8VMbFImb5eZMHtPFRPM5KCLIPDJj6I+Lr+qKNkk0ozHCseGSuojmzBJN1TSIoUpLd8Csz1RnE/P1LLJADcIzD1FEAxb0arfsGbl1phYyM/FZq/FCpj+vsW+c6C1m00emaSgum0gwic/EskUnRgbIhOa8RgfoVdLfWQTJukuKmmRU5sngSF3qxho/C1xG0DL4cpPCYNgcLK/wr9NeS1HPNsK8PTV4csgu0nlj3TRRS35kYjqWZGiwCugkjCpmhY5tTkHuNoTVQx01X5jAe7vot/cU+DJDV9vAdTrSulRQSyAVSqDHg+MW7tS5z9mLdkii4uEQE9xmoE33a9ioHXVrEXAd6dpF97B11RCGl7WlwpHBbF9OKCG5u7RlhhIMpkvWJxdUcC/iLvF+TTPuBgJMHxbhXNPEQx2UnYGumuOnykvF9uS4YBa60JgRIX/6nC8CMJnQIE7bSa8Ys+YASy4TGWqViCYhhoJjTqg3GKkNcMB9dZVwBOVOf8xhITzL8I9wPHuVjHQXus+CPCFyrmnSCAN73BYvrHeL2arlPe1TDHkW4B7K3pkyFxkziMixlx6P/Jz1OrXBAJAP4AbdCaS7zg3tAFWGr02DdxaySND8iKUAR+6V8XAlENc1XNPEYCzYYY0CryCWw6Tf9g9ATQY7fwn1rFEPKemHJuC3wP/dXWZgskK1gGUUA+gefZbOFccJRYjrRwOaICGAxeV/TZ1yF3ihu/6Hs7ku7uH4zzZZj97Coof8qAs1/E/s2yGtrZckwXxTLbA3AG7K8ufnAOLysqfTJrxKovmIefci1LL0aJVDEywvkzxCzGJr47aMvZZ++M7ifzJJkiE2KX7dbcC717v5ntb0dMyIwzOQ4RAm0vsr8xipN0wJiBPff5kM8TD6qKufZBoXjS+wow2NoAT3fpNruQ33OR+UlRmMdIBwgFV50/mIGLCko+6+KKsSSS/WTZRyoxmhRjKGUi1yzQpIUNFb3U5QTig2vzJKORC6rLXJ6jRJ3ulhL8tDGlJjaBoFVFTdDFLb6TzKa3K/Mk4NIfTpb/Chi/nyb7baErjkailSXtkUfIVz/bQpYiBldH4lFZh/uSNkNY8CO0nWDqho2cNx+Z6FKqSWtw2sRwL8BdnaXC4qMVIewOY7GNrPiRMCkJzZy5GLX8t+8mwibFs/9tboDbWU5b3dR2FnOE+tmJaoaD/NEfCW7xFB1ZpH8DfiSk6rARNihi4Qzhgb9TyF9OC0FwIr/NGbDA8qHV/VC07kg49ihgEVzggattfanrJdR5Qx+1iNPYVxoDEAxerZtGBOhQxIA8HND9/0rggNMeBdahCRsP9MU870R0v0cwu8kUM0MMBzc+fNDAIzWXgGJ2Vbdr69N6U0kPEEi9iwB4OaIH8SfOC0Pq7CyADUrNN88bemme1R8UmXcSAPRzQBvmT5gWhXeey/rulNLAU1mnRndDBnpEhI1fEgB7AFvmT0+6d/HFWJooxsRTWmYgFQM2zJyGkk0SLGMCHA9ohf9LEIDRHZR/ktI/dANQ8O06KcZJFDOjDAe2QP2liENqxbsodgtxhuTtaVj9DQ8+z3ViOkLrJFTHADwe0RP6kgUFov27qpEwTZFopAm3uKbQcwHcgcpdu5YoY4IcDWiJ/0sggNBflYCR1cAlsM/cUfJpnx8kxTqyIAX84oCXyJ80MQnNQBooyMBBDoD1PUzMu3RBUN6EiBgHCAW2RPzktg9AclLtFudtqiW54mmcvkOQCmSIGCcIBbTGlGdMzCM09GSHKyJIE0txT6Gusb7Akg5UXMYgAYI2Ja5meQWjuyYeClNMOuFXmnoJP82yTJE0iRQwShANa49L0NA1Cc06mizKjNEE19xTl97f7OzlBz7NvSfKWRBGDCOGA1ghAmKZBaM4JsiqNteeeQq4hFlGfPpMlmSxQxCBDOKA1wkynaRCaczJDlOk2G2bIw54FLjcxo2WOQBGDJsIB/XiqeakoC77d+8zNFx7XXpSsTK8gtFCxOrgGk1RakKCfiagvYlBCOKAfbd82j7gWQkV+eG/sti0ndpVag6ZDEJprMlKUERYbMtyFVd4BTjXwjvIiBgWEA/qxZDqbRw+1wSX5+cNn79x6Sm+FLXjqBqE5GbofAhYzhmFj638C/Nm8TWSKGISYapXMCXSyufi2+eZ08kNR3oyft2D1eduf3PXn/7g48P/0hXsuP32gepZ5qgWhORQON/r2sv9jZFtNhgW9PM+wTxRMRQxe2E2N4Al0LpOKRbX6RDF5LSvOuu7RN7928cYpR/7wygO/W7+0LiNiajiunAcvd661TJ5Z2c7T4cfuEgyW5FYlLed7FTHwCzYXOIHOZzOpqK9zCHRUduPIxqsfem3/X+GS/O2L1x++5jfLfpzkIDTX1DRBvinvZxnD7Cm8bJ88fF3XgUGJbsFVxECimxo/nsyUPoGO+gYlukVk1A2t++39L39+GFNMHAWW0Ez/g07d7NClMGGTAowpZ2CdIgaehSOUnEDnO06gDc6fNM+qHjj98nte+OTAlGC6o0CSgIMyewqndRm/dsHeGlK0KtiKGLywm5rKT6Bjvj3yJ022it5Ttt55QIM2k6RZJ549xRnAG51AKE365T+3IVN4F4H1Y+WdQOucP2lsEJqjwFNMx7j+u6ddAIw05263gCtiUK+wm5pLyjuB9k3Pn9TY8YAoJRMjz57iqqLFPfSPGTK0iAHSG4nSJ9Am509q9awPoMLYQPXfnZpwkj9M0tQiBjDu4tIn0IbmT2r/3F6Y408yz57inqKBeuJHhhtbxIApKGDpNVHfsPxJc4PQQpHjqcyzp3i8aBNO2sIwbFPEwF+FlIH5k9O0Tl8o8rWHNHsKsyacpOX/GFzEgCrBx8D8ST+iGjOOYIWgnnuKZwAMFaKvybPvu1ixiIHZpz+//MlzOHMDSJZMQM89hf4VtQudrlYeFx9oxyIGbm9y7fInz+FkNT/xWecLXkBSVpp7isi9wPLCN9ANNWzr52xRjdTsUYZd/qTn+bnuSvwdhRYDn8Jl3iBuzE7HUal/AHP2LdhTTW1527WIgVHAiln+ZJhxSfBU4bjvFLGndTqkjr4ol8tKx1HZ38HMgqYe9Wy+wMZFDDzCks3yJ830wuKwZCGuzC707QDWTXHAc7lK5sFXW3fsqY4ttli8iAFX8ln9TIX5k0YHobkseYioM4X/4JT/J+i5XEcDLYp/C/TIKlnDxB7WL2KgXGLAIn/S7CA0h+N1Q1I75YOK+PiUonEgy6Yy7LlcJwPvreZ5+rXLZ74jAjJBDFb5k2HLvehLhqSmssEj5UUAPVO3V6DP5TqXwnn00aop0skJGzgiQJM9Y5Q/Gb48Kr9ySGpbnjNsdkl+eK5UG29hO6f0YlLxQ0AuA4Yp39d+kythSj+LOSKgUCEFmz95vVKu99yWDMTLadZyNrO/KHfmLuI/BP5VPW3/QvmoBdMXHvY0anDeZo4IMFRI+eRPukW/GZmVw9m+BA4WTkdSVszluh0Yqs00NtjDEQGaUFWb/Enjugr6bC+rLalldOV+D3yT6Vtin9WaA7tRcLJCps2dO63zZIUEpiOCN0X5ppU/OYf55edPhsze0TyhFs5LjgD7rNM09tmCekafnEx7OCLIKTr/Ryi7pLd5HUK6L0mZY7b6/wLvzZhiBAkB+ads77BWaq8gZ2shk6C7p70UBqG58JYCWgTgzZCpRJYQkLeBPob8+sl1bOSOvAPlFrl1jW6/k+ueHgDwnDhlSBMCst5HkmbTZNorcMY7zxsRdqwgCM090WzGwEYBPDlFCBQCsuV/YOFBJr1zHuSbyL1/udLTXhUHobkyMchK7fHJAO4TBG1iOe70HfwUFcJK7RXE7KbmWrjTs4IceUvJ703cMtnkCgHp0Qa57aRRWsQgwEOgtegHTzsPDShivQjA1YKgTSzH2BKYuJkIAdxeQX97dFNzDLwRkslBTHjo2Et8TeyzVpGiD7pIYKX2CmJ2U7MPfBaO8QHRY5TtAM72ibHPjz1KHyOBldoriNlNzTYwMxwThaz0CDHM/Jo2sRwHAKP0/XYxK/Y5Zjc1a8GS0LxlkwY5DmsEQZtYjlcCT6n/9WOl9gpydlOTh66hmCYNzsvGACwVNIrlmALuU46V2ivI2U3NFNg1FJPV4D3YoFcBdAoaxXK8Gxii66+fhGcQObupGQexUExeh+G3I/cAaNYq2auPAdfoR8y4jXJ2UzMK+oTlLXV4i+1T4O8VgqOcOb4AXGz9IgY5u6l5EC4LwyQ0yRyY/Ufg53mukr36qppLrLabq4Gc3dTcBIPDMGldTs3yfwL+tIu2sc/0rDkWOMHyRQxydlMzAB4PxWlu2rxsK/4GTNlW19hnfOv6GXCERsQxb6Og3dTE4RXnoYshITQBfL6xo2SvJn8OHCr05t1P0G5qDoSPw/GWeU8XdQDGd3GU7NXMb4FvMnxmEQMXFVLHa9vDeS4EE9eqY/4h4E1XyV4tPgJ8ljRtup+QzRd8cYCeVbRhfkgu0qdZLus/HSV7VWgAsDvcV3Y/Fiqk0Pbp/x3WD8lbaqQrgGGuEvTWCeBF2Ud2PxYqpM5bDLywgYZ8DTuEX3K6WZ+9AXhUq+zVwDldfNJHFjHwUCG1+3jg66P04yPoGYaL9OU1tEWRdpWgtxMA3OMjux8TFVJ/Q8sKkS/BiYZS9xFDmuk+YHDgxT4/ekLJdt9YxMBFhdSpvwCvbq0Zj8KF4XhL3fQEcJ2rBL1tAXC5T9zJRoXUtqOBH0/Si1vh5tA8xJB2Ay9zuasEvV0D4FxfWMTASIVUCmCobhc9GsPvlnpeqHsZON9Vgt5uB3CaTyli4DHVqtkVuZD687fAWJ1yyk+BF0PxEEMasurbwOmuEvT2sIe6od3OGDDgggsvvOjwjUsXMXAPdR0BLEjowyEwPhQX6dNR634IxF3lWtk4gD73/ugDGj9cQBF99+rg4w0qYsB9rolOZ8E7w9SwSxKaPC212QTgyCC4VqZ7GWp1vb7VeWMpR98N2aVzEQM3Ua9JwGf76nLtEn4NwUMMpTTuKmpeT0cJeov5APhnpYsJwI1zKVvvfVVQxMBVtOaTAJd4emgR/CG00qNTp43kOq5J61hHeffv4ceo2Nw68V7HUxFcsn0F/DzXBZLvQ4X6zWkGwOm/DHhuXS2YDhFHIdUgmzTTvr/CtzvKPxUBpbk/A1/ZnPs2/g43xXUC1aIfAlMP14F/w74hBE61+Ycuhi+30qCR72BS5T+AD2Kc1MR8GZ6QCW7TL+K9ANdqwOtwnJuQbJBN2vlH4tMNdXgqAkltAN4wTcLKKJa6zU+B034FXtpCnKfgLyEE0s6RTgXGrqXFpFwEkfoAjE/CbcVcZ3TX7d4CZh1fgGDvC23wc2HvC25BzkE26VKT4HU9noog0koAD3NshSflXM9pdCvAbe1o0+GMq5Jumj0XA6M0mWCfANJpAG5nuAHQjh/HzQTe3UGnPrZcgYSDbKrXbVKOntbkqQggnQvgmsl410J+6+Y5jTZ9EZh7pvJuBSs5w5ncLwxA2dF5qYzURk2eigDS5Yz11wMPiwMN8NoA8IBOPalOSoQ3jkOtensaaSjwN02eigDSdgCXHdCe719H7Cvg0z/q1Xl0IFLmecwPAYM0GSI6gHQPJkmcp3vEPxT8+LxQWX/5y1GgbI9gJ+kgmzRLIOZqTZ6KQPbkJDHCcx5dVHBQuLZWswgRhLSprWYkcIkWdm8C6Sr/fyZt+e3Oox6fApMP0WquSIKQNhV0vQb008LUV86jEw3M8k1V6p8GrWYEJwgpUyfhGu8BfbSwbpjH23VgsvjWcyGd9Tvwj010mvelAKRNNaz+J8BxOhh0jcMGTJq4UauwO74LzDhWn9n9WnRgANKm5uktJ8HSwxSWIg3fTB6jPDfS7QC36jOHczO7BCBtKtvf/huYs78GZvvDcAByfOU5kuKzgDfryuMuBHRXENJm/yLdZ8OsPTRoqSSNagJBreVMr7mXgF9PK2sqwBDRngFInV0qHTAXWreTfyqyMEYShwrKvY4yR6TLyJAJQtrsRc47YhlM3Fz8qYjCKgslOdtzJx0+Ffiwe2nHbUI6KQgpoONMRUWuH60v/lRkkV4kyVDPobTeMGBZ/1LdA0kxLixxfkm84z5PA95dTfqpSMI55eOecxZzKcATaxSNRmU5QuoWkhgk3D26nJ0HvCL9VETJQBXEvaYeYN/PgEm9ijAQpBgYiMSfEYLowMmGCz8VSbhKlJs819LDAFcUvR9u774pyjfVRIeZsk9FC/f9V3rOpcQCYMRGne4DTnM3/LxfZI+CkX0qkvA3UQZ47qVd/wV8+6cOLpDkgoAk+1SHRDujFeZHEh4S5TTPxTS0c/GbwZIMrtLgPeIMXCjKVp6T6eQfgdHbek2SNIXhO6I2zRXuHCzJRM/R9H+vAb+c8pYkb4XgTZCWIgkbSfKA52y6kY4PJJkcgj8R01Ikse8EOdlzNx39jfQl7FCEleKN3SEE2ntdkI09h5P/AkvCLtJZZUhLEYXL5XjWczudNjXk3hGvHYC0FFkS7ZcKlqxyPIXcTcQrRDEtRRZ7XIqRnuMRcj+RleqAukVpUu9AKXo5H4MluTX0oEG1d6alCGMfyPCq53SE3UQ3Dcb04VqK9KX6ftvB6Qi75Qx0GLkRaSkqcGed7jmcQm/RKh3G52Zaijysn1PPPZ7DEXpLk2rhwgJpKSJN6MPNj2+6hdP7WnjtYVqKSJZWTKvDTetd+B1mSAtHZUxLEcqeUsrn23rOhvsMJtnBIJuYliKVPagyANz3XE0heMhwK7mjdRXDtsr7zfjnqp6r4UbGMPK7539hWopkdrMihnjOphBs/0ePTgeYliKbHfKhAt7Zx3NLusxUz/ddvPCl+hnqvqe+Ii1FwDYpllXI75d4ziZ9rDwuDjFWHjW6lmJaioBme9gdfrxrK8/Z1JFg2wIG2cS0FCEtYcN/yuT1vp676YxleSt0IMq0FEHtsKf+W4q2d29xuuoFJTVfkH+QTUxLkdbW7XnhI/8aO7b5vfdeueXEOs/tdMYttjzfTTzTUlwuy3/HIy1MDLaC/+EH2cS0FDfHamqXL/kgm5iW4u6YUlOkkxNeLZqWf+wOU/p5tVKSanC+VkpSY2yomdLTwwqZNnfutE6TFVKLp5X+M/+Z/6z0n/nP/OeuQ4jIyyqr1MQR2bplfAIAvnj24U2LYxVZJEevBjKEEL+AtBucv+pRs1EmR5NI69+2AwCw99mbNtXqdZJItD6WzYBTbrbHBh9F+igfhzMZDTVIRNuTuw8M31xxfE/3GezT4vzqzGh94ARCiKaxFdPGAacclxZllDQ9/RNguHfpUF9HW3PTA5Qz2gvjDSQg43ymtqJGOa33XLS8p3vLuwy9pfZwHdHwtAIM20eHuxtLcufMaQPww2hXYZwX5Eycz7eGaA1bkfNVHblseLB3cWtT8x8A/DDUkhOlaHhyJlj+b/VIR2VmYmRYWLSDncsXz41SAiBYtgBOuSktKkjSIp/njw511BZmz8nY6ODl5QtyInUanl1g+Pq45Z1l9iiTIssGALcONs8Jl73j5xk4n7+98sTe3jN3MJxbpi1sxX6wXLt66YKSmfGWsPCFAO4aaZ4TpuHP6vVg2bKqt8puYWwhyZRcsmhxhTVY0iKU4h27f3ior72tueVByultmsJWtHJHZmzt8MKC1PAgnSzXOjhroCZNw5/VaRMsr64dasyMMojMvJ8+anZxcUa0XvSSnIDzeeXSjrrC7NkZCwD8sGJhjkWnHRgDw4/rVnQUp5oVkQ5kQu01HQsK44NEzQ7v9D5vRXtBgkkSGCRTdGJStCngEQ6Yy/XSv3fYisUz4yLMYTMA7FzWMidM0hyd0W2r+6vt4eyYWwyKyykrtEcomv2sjgQ3cb92SY09jB8UEFlvNOoDHp/Cbs75vHZkYUFKeJBOYpzPty+pTQsWNQP7uO/HjbTmRBvYo0F0IbHJCZYgSdDqrOG4YbR9XqxBVE9DJF7z8wCcz6MdxSmhOtZWtNV2LiqKDyJa4/t9q3rKklV8hqJsMAYpEtH6I4Rfjxuqn2n21sPJ+p3PrzhsRVuYjrcVc8uK7BE6zcADHOtGWrIi1Qxoou0rJKWB23tVd3GC1/bj1u98PpfainrOVpRDYpITLAZRc3irVveVp5gkvyG6geP65W3ZFh3RSPTxaaSnNFnlMkI0hq3Yz++9YlFetEL8jSHC2sGa9BApsPJ9Dd9JL2vNtOiIE+ez9jirz1xabzdLfgP7uddItbq7mIlPIqKqkIDIo/y6pr8i2SRqnrO6tzTRf/BWEbA8vmIhTTUsg5o8bDLIxElJejGwUJw+Ddzeo4vyohSicY7N4/yxIX7BuVvOW0XDjTPNkrBGla0pM0wyWQ9X5KTp7iQ6DefzdQ5bMVTSOmf1lcONs8ySoH4On2TUe/zc1Y5haxUcZy+pSjGJglhzgOeq2uKZFoU84BK9CeF60f9nG8ea3lINE2GwnuOMgUp6Vqufw72JliCJTFZV5zqNN9RZz7G6p5iWIRWDLuJ4cKirNiNSEfcDhy6srbqL8llD7QmHHFTnJ4fIxN+H8O6x0cV5UTrNYitu4FI+VncXxRkIkU7iOXxa1bxUs8xBPOivT2Ou1knxEZMUfdTGB8PKjnw6eU+U8/kOcVl7cWqoHA3g/J6O5s8A4MmB9sZ7gf09tTPNAQD4d6BppHGWY9uJ85naihrh2IyrdkcKIXLIy/xb6rNkcXl6GEsLAJiCdM5+IC5dfSO3gJHS/JRQDXfeE46PR7miG9JZXJDXmoHaWRa92Ao80d3bXMyWnBxqLToReG6A8Rr5+1Tw/2VJZYpRdOZ8praituCVFa0ZtOKlGPQilwy9ZmlrfjwXQ3m9g/dT48yKOgCMBll0ZglyWTborJ8TodNwLOFwPBmYQoniDn5ua/G82CCRjj6XdrYW9DBc2Fdhawe291SlBosBAzZ1F8bqCZHq1JzP1fOtZpWyGMwoyXezQ2UEPpOOTYj8nFqmr8qx2Qfg8cq8BJPobOyeGOPEa9W/D+AY1nbZCqSSY3nzLGbASCZYrnDMbYXJhFz8/I11LSXW05jIr5Xt+bGNwJkLihKC/P/tDfyb9bI4L1LnIPhi3vk82F5hC2OxANTJrxN9Nts5ltaxJW1EfuZ4pCWTz/QtZ+y2zkpriOSMwuzYIDVageeHM59jWLFQ2yVozeBG+MuaZ4bSJ0MunwQyUEnjWonOMru0ZFbkw5SPlrdlRARZ5lTWZEfr/X82cs7nFW2MWSIaLuQ4fbgtP94oqQXQzKW2oo8/OI8NVqeanJ7VqXw5l3HKOQM16aEyITyig5YKq+qAkzy4PCW3lL12j2o8pL1ghP+ynrv0ruqidpJAZHPSbNsM034AeHRpvS1UCUnKykkxywEDPl7WZA9hbMVzOOezw1ZM5Z36NwD4S1VevFH01SzkKrcuqUoxUtZwB2tVV0GsgXBTv7ysCtZLRJWOOluIKvpI+9yCqzUh4jDL79oYx24ktz0+yiSB0FGDOTLcGAvKNQMVyUZZb46JCQsAhAOSIQ6HrciMgcRnuZHUspZMCzOa5J7Fb3RXWYN9NjEsHy3hvoxzZzVvEedAVeoSIwySKl0NdnWUsMQ06xZNCIn7kuGrxXOj9UQl/fr6kaZZZpnqJekUnVTJcGpXYaxBFHUGg04k/j/VHEPVqUYK+YXlcjbal2E9HNyxpDYtRPbVEYLSzZwBXZceLKqmWI3QFCtGsaDHAODeNcPtdSXZiSEycQPJEBoWeo4mRNA1g5F3l6WGLhyHShJINT8ZTByygfLD6KJcOuIkzMof/H9iWb4arEoJouTxZmFXQYyeMD+r5XXdavLVaQpiEctTLXPCZRK5m4+1XVLFjjaJHHyACQ9c2ddaVZTlHgIRZZ38G22IZDweLsiPNAkkiDiLa9q9rHk2f8fPQAAy53werGbdYxs457PjMsDGqk0AKpyW4KvTFIj+Ai4qfHF84pL9UEkCKeZWXCLNYYvgDDXPn2WNp+mjbiDQMc5GbQjRhS/aqcZfLvsewJ5RJwskIBOUe4Zq6R0/AwYiLeOiqGizmvN5jIa+cbbi6UwHvXako740J8lXZ0bKoffABXmFTQJRi8fdtbKrOCUixKhIhEsXlB10N84yy86Kx2lFBNEQnbHi4fd/BbDn/hPbe8878tZDGwcb1QeS6aBc1leWGCQGDhATvmL4smVOmKzmfL5ukJsUJVLwE4x7bGV/a3VxdqKvRtRHH/eNGjuvYA6F6gIJtjGDmOVtWRY9XTMRXBOTQRZdRNM1RdsLGxb39PV2d3UsaqmvbVrc2VqYZJJUGGCDXTvnx+hJ4ACiXwBG3hmIM6o5nzf1FMXpCfvlS8pFQ83zZqXG++ySP0QyxeVuGn8fwOE916zs7L33uxfuOrmvUmX5EYyRfeHSehsTAE1cxBobIhONCZEM4Qmz8kur6+prKwpzZtoy5hXmWcMVogIT0P/VigVa5gCHfq94skvO55XttJ4L83S2s5lCXcXJ4cFBis+OLSBycNyc0qYOOpDpbF/YXFfb0tHRmBtjENVql/66qr88ySi6QXl2jEFrIhBRZwybkZiabktLiYs0h0bExM0w60XiLEXx99yMfgBhUx/VtVvV+Xzl98zUWsvsMEnVJtm1fEGWRfHptzIgstGSnDG/vKa+rqZ8fqbdnlVQkJXIx4i3MsdmtHPeDGZILhoTC1s6u7q6ugGsWTnU2+3QobOlMNEoakWcTLzrg0zBwcFGgyJLOr1Br7Iib5U+72ZmRj+QAJGMcbmrH+Wczyd39p1/5O2HN/bTShfq7jHGVvT1x0cxRcQkWW22tORYS6g5MjYuKkThjs0WyiPL2zIjdIyOhpjs8roGhwAYHe5qoSrUadEv7EEkakUlidOIvwqGC9jipQGFD9kUO6e0uaO3v6+nq2Nhi8NW7OxsylO5LLDusf7yxCDi+zslnd5oCg42GfU6SVYMBkWlGtU4Mx+5tIHrjogcEmu12e32mQ6GuipzZjp0sLnerGllLbtn+9xoJbCAQKQgS5LDVqytr6e2os2WVVCYnRQiq95e99eVDltRIdplIEPYaEmaQCoy2oiywRTiEDOA3tbsGDNVgvlnGhvyIFvWqi0z8LCwRyIqpvCYJGt6ujUpJiI01EJtRR1haWWL/izQKM9WJ6zqLsp4dptORxNjXI8H1NpEgTlp2NhWHyQtOp9NQXqdRJ3PagltG5iiP8PUVtQwiAxXd57yFS4PD6Ov7sR51oeLtU6vWpQbpWha0naDkYuo/ztA8aIL1G1Fp8mR1wxUsraiZmE/OLkzJS0pXO8uaRXbwPDrlSvjTDqREK1KDni5ahZd9V7gRMgOyqWOiOit43adRLQKizluz58/1xbpJs5vZN1k0ktEq54yOrO1aMGSkeHeerqa2wAKIsMznQMvYi9jK2qV1JmBN4BfXzinrb4iL9ms8yz9iREGUauihFvzK+ubGmuLZkYHVrgRnLybl54crllcXrI5vXzxwJKehTXz0piVsblTjVkyxmaU1LZ2D44sGxnqbqstZfKlNWvUV1RSms1uT0+JCVUCKsw+wPJmzfx8e6RmQTRE2Quq6qqLs5LCDRJRw2StoPfccMacwvLqusampqbG+uqKIu0KG6IUHBISEkzvahxQaVZqxg8Db1+1oKFyLr3DtYbJq49LSbMmRAY7yX4mQbHZzu6sJoiKOTY13WazU7HZ0lPjteuGIBD19T5oFCnmvWL7ksHeRbXz0iL0opbJqzeYgk2qi1tRWQQqc/9cJxoGBYeoSTAt6yccZRRRH2kvqGZtReZTu/zg4kpYRNngwioJiCsrrTvqKJIhLC4lLTUhMlgnajWbLpB5Ka3mvaLRZKSJIMfcvScShAjH4sn/+4/fwHlUjrUDVP5XHkfjXFjH2gEA+J/Z3BtPWK0dAKz0n/nP/Gf+M/+Z/8x/5j/zn/lPjRGJDhXQsQNxFyfZoQI6diCxQow0xZV2cpvBFFdqhRh+cfIRHajvhV8xtjpd6tbJb1zh9qp5wnw9j22uzAt/1zxh6eJfL0e/CYTb2+qI8bX8el2ZF/6yecLSxb5ezn4TALf31RHja/j1ujgv/EXzhKU7f70c/sb6tzfWEeNr9/W6OC/8VfOEpQu/Xk5/Y/nbO+uI8TX7el2cF/6yecLSHV8vx7+x+u2tdcT4Wn29Ls4Lf908YVHP+WXz5QQcMbV2Srff1tzht9/W3inq1eJppf+s9J+aPQZdcqyQzj9z0vS9SWx/B0ntb2pQ7QFnEoDatVUajhBTw4ViO9xH8J8qucNH6fa1Okrsn3+82P6eJra/54ntbz8r0iMIiXbUmjJvEJBaotsY6MGn5aEHP+d0NAUl8zWz/hWALA0NOGp96GuCku/04tQA5Lewg58nX3NHCkjV2OHn28nXrFGhb4OaOvx8AflaNSr1YFVDh5/vRL5GjYr9lNamUdkt5GvTqNwb/bu0r1TSy0Rhbu/8Z/4z/5n/zH/mP/Of+c/8Z/4z/+EhNHT7fXf4n2sxLwT98RbV7Xd1m6eqFd1+1+RtstJ/5j/zn/nP/Gf+M/+Z/8x/5j/zn/nP/Gf+cyGZ/91+v8/r9nv+M/+Z/8x/5j/zn/nP/GclIYwBZR4EqC2jD6y0MKwGK3W1bQirKbusgjMtatwQ7qc/qys0YfFq3lgHwKpOi1D7Rpn6ldQCjAnHyGHlWQdYj5WjjP8+gc3CsVF0bWilbUhnGoF6peSosg4TlmOjqG+jQw2F1AFjFIdAq2GdwGrh2Cj6Du/uNUJrIY3Q1lWM6xnlj5lqrgO6Fl4F7FgnhRUoO5YKr63Tj8kGaPTEGMOYcEwVY9opvG3tqpwxzv9YBliPyaKhrHPiAW0MUcMYNgtHZyBE5Re4pYCKBhqTcuP5ugMMUEEfJixHY2iZwA5FFgXLGCbm6UQirAM2KhIRqAKXOBRgVYuVReYMnxjUSUQzMqSAhrLWNXTQqIJ9WC0cjWEcQHuEXiwHsDnaJBEAiDUrRJgAEBemEKZeSLvFIAq5AF6KCZGJVqShnY7bXp7AH+sYVmOfcNSG5RkRcoWDbflxehHAoZL0UPaaW2o3S4SqdkKmRRYqHOwsTDaJmuTVfsvRwPD2XSpzdcU4vUp3hbrQxveO3e03WXgA7/VWxCsz9uLw+kabSd4E3NsxL0onbgIe7yiI1jGqjVYlKER6DoevbssMkwSPy9xfPhbS3F/F9vc3sf2dK7e/nhh1bRUEP1fMZsd+Y07+L1q9Eqy46PabKPGVfRQ5LGtBH8WY1tDfPi9SJxrT6vsZlPiKvj4Gc0ZbP4MGETG8Rvp6UoxZJ9SHk93baAwgbpz//QQpzZ8rtsP5+ZOkdvjb+dOldviL+bP14k/zfxT65385/xeh/Z00Py/2rfGb2P7O8aQlR2RUVjg2RFNyURXd0MfkVZWkh0iEKsBsUNUq6YZoTCqophsakjrGeDK0OLhe1eYuu76NQhVlxYVEfUR8vGMXIofEJtJdRGNUQqxZRwSqAN2FUS2B7kLk4JhEuotWpBGGUydEGbBP/VeMgUJaV4ggiLJCH0ggkk6hDySIOoXGxPAKqKnG6kYfSCsypqCGixQuTCUP6ZQoXB3HyBBoLUlrV0Gc/ooWWrySrEiStqTek8IKRgknjzqkJooWxnhiCHCqcxnU10LRC/qqx81Am1ooxkB3jRhjTC0U3QFPI0BDLRSNMEYjykDfQOCtJZ5HcCuwx0vRBkN0gtWpse+KalQqCebsw26mfuAYJhbqJMLVEXRSWtC6D/tp+UEvRC+gXi+Ge3XDWXENX0lwPVc/sJwpHxgsE76OoGppwTVM+UGj5IXo3k5XjbCiQ219vRXVEL6S4AYHx2dZmBKDLxQkGUW1OoJ8aUFCdds2N1ZPrL9SiXTapKUFhtd5K6wR+UqC+b9gH60fKD+Hw1vbMsySSh1BtdKCti/x7YaGdJNoTS2IRL6SoC66oKOXYs5s6291oFJHUK20oBw1r6N/uhM6U9sv3Vf4SoKS2V5W6dhgygcWJBpFtTqCfGlBIoWml1RN940w9BacLLJTcDqRMFNwbt9lK/ymd69/ckWVHo2vJEiUsDhaP5ApHzjDsQtfR1C9tKBijk2gu1wLAICWqWSm4KJNEjMF5/5dtkLDRl3MpF3NZmBQkQl7V0adWjyGS7EaJf6jWkCQqJcYlAhXR9B5aUGFlh8MaHCoMiNCppyYH6dnpuDcv8tWbNYD2EIjMgC8RHuhMQDtUUbVeAxXYjWa9fu4NZwntCVgAdkI3ENvOTP3F3w+Sm858ywOb3X/LlvRuZJGZDh4u8xulsYdrMiL0avFY7gSq1F79KJ/S9WnbNm+wDcn04iMbcBVnY5DsvAXvNNfn2YU7Xw8hkuxGm9RVH3KlsRHZCgJVb0UXdT8DgYdH4/hNFbj3Kkij7KlEpEhW7Iq6YYUml5alTdDUYvHcBqrce5fqSKPsqUSkSEaLEwvRBRzXEKUUTUew5VYjep5AwqBVutquM6HcGEYavEYrsVqHDrV5sR69/onl1Q5dqr5mv/Mf46KMi0I3aT/v0A0BSDDV/pPbSStnz8jpcmtYjs8pvUfYnvc+onYDk9t1esr9YHYs/ap2P5mxfZ3ktj+Tqx2cylBqX3cqpGqajcHByZbO1W7fAtq8fhtpf/Mf+Y/85+V/jP/mf+s9J+V/jP/mf/Mfz4GEB5aX36Xx7u8r8x/PmyyeCW23X6v9J/5z/xn/jP/mf/Mf+Y/85/5z0r/WR/M/26/v1vBf2f+d/s9/7v99l55/Eop3fek2A5fL7fDV77ykNgO//MVvb5S95j2rL3yhNj+DhPb3+fCEG9QttJ/5j/zn/nPCiH8VACRjNQ24KfyBBBZ0pEqNTV+iWCC9g+q0rT4pcCi4IMqNB1+KcDo9EHVmQa/FGgU+aCGAD9PUCofqyH4w0sSiH/kM9HagtVeMsgo8lHtwcO8ZHBR5KMqNBV+IRWdPqomE093iILHxR3wg0wUfFRdJkIxxZxwg0CkolXo3N5METK1cxVcIsVua+iKVmWK3NbQEel8W1NXmjTT6bamjkjhbY1dAfpMwW2NHZEwdtu1oQVaB6zIGWYoE75ue7VRoMYVOERC120vaKnzBgANK3AGk0yErb9thTrP8xqgresKEEKiBsCYgv9LS0NXr1aOlqIn0rVydAV6hSDOofXlkEh9O16tHQ3Q4lWNNGsTKVl0f72QyBho9GrtBPSttaN7O91r7egL1Nzdb4QxNXe0QEMt3pbda+3oBS01d7dDoG/NHa01eLf1tBX/+/rhXWvhHl2ieEvXtra6mri/p3V4366dlpYauOuJXYdTqLbG+vYV9S01cHUNurdRUi01cEvbkPbPUNd3eGfGdK19e8Twus7/p77DW6Glr1eLp5X+M/+Z/8x/5j+fHCAAAFZQOCAeggAAkKkCnQEq8wR2Az5tNJdIpCKioSMw6YiADYllbvv793aRW1fU3928lvAPN4C0h097Qr+m/wX+Y/7fhtxj55/D/3L/L/7b+/fux9C/F/al6F+6fq//B/tp9xf9Twl7G813zz9W/5P+O/ML5n/3X/a/5L/I/Br+kf6D/j/5n97PoF/qH9Z/6/+b/0f7XfVf/dfst7mf3R/If4Df07/Ef+//Nfv////pw/1f/r/0X7////6Z/3L/gftF/pvkG/p/+Y//Pr2eyR/mf/L///cY/n3+1/+//M9t39xf978sf9g/5n7pe1L/+f9b/4vgA//Pto/wD/8da/1L/un9r/Zjwf/yH99/y//H/vfke+k/xX92/bz97Pgty99mf+75KPu1+m/vf7o/3v96PvR/O/7f/Lfth52/Jf/O9QX8p/nf+h/uv7o/3fzz+4ot56BfvH9S/2/+E/zf7PfHb81/s/Rv7Of9z7S/sA/nf9p/4PsH/0PDm/Ef8X9uvgE/m3+C/+n+Z/03uef9f+y/3H7f+5L6o/9/+r+BH+df3T/y/5P24f///4fgp+7P///7vwt/uX//xobuCaYe3bVNTXtBmnwNb9DNGi1rv6Bg6xArfmCfTrIMoxArfmCfTrIMoxArfmCfTnVBNj84UPS63W/ZRMY/uWRn0MPbuCaYe3cE0w8Ot4XR0tgTZKV+bGyDKCCgWqtfuWRayuC9Ffqzh2T/4qq6ZjJEbGrevMsez/LrBjqJEbDtmmrDMC09dz8mBMWmdQLAfmDhv27gmmHt3BNMPbuCaYe0Mat1kECEiECOaEsqFv3IG/vmk9aTxYJph7Thfewwq8kSPlXDv4aWXberlM8fOzdwTTD27gmmHtLF6LHugnKPKnagh2XMyg8C95yXHuAVgtplEKR0WJi/EBNMPbuCaYe3cE0w8NQPsxmA+9npIkCl+xlPa1KMeMtQEVuYAICTJiPWZvmdX/pDJ0FxOT3nlqYksEsWIKvh5JMPvzc7C6LNZ2XZu4Jph7dtEOY16+GYDhtxoIjXFLHLAYWxXF7E1s9c1njhXlOqBv1MPbuCaYe3cE0w9u4rE26wzdwTTDxo5hZFev4SfFNFtn+ughDIwFX4goYQGW3KEeELTFwv9yCKtfuWRn0MPcISEVgDPj/E1/JI/MGUIBATTD27gmmE138mY6xOZwVjFbid8+gI3FvATTDxsU+brVD0RVKzurQwm1326C3Luc2sQHP4YiWO77Mwk4b8+BNMPbtjZ+IFMWZQ8YFVYQTYTUagTTCpzYkHki+Qv+doWhv5YK78BLrTXAHK1+5ZGfQw9u4BkgAYaUjDWH9pZxHWG6DKkJmU+buCUhwb6tBggwD2XFGDac9ebVN4c9MPa64GixRqpZV9+ZSce+sbmEJCmIPNMmqHJ/7lkZ8/K/lRmAADXYeZd05ZEv2efJ7X9uYFjWhh5X6UOKhqDCLcwAQE0w9u4JpXzaS7Wg3bc6B/ckcx+wIHgTAs4wGuMI9u4DCDHfPpla/TFRE3JOxy7UQm2QJpXd+2OBIWg8WLgkNupNHjBqeXOisMlkuM+hh7dBXweminjQCiXl/Ek5rJ7VjVktIi1Z7VOW+R6YJK2WJgvmkSnkZ9DD27gmmE+3ol1TlLMpQiNCjFnZoz2XlxIq4/R4K7W9TqPBg2VeyKR10mO4+VRUNUY9uYCKxMHzhL65IpVfA3z6jVjFATlNGtTg1sOu+suzdwTTD25upoRH58/4Psl0sFjPVsAs8mnfwrAnqsHRTM1idSgAS9WE7EutYnLrdjw25vZ/GfFdMAEBNMPbuCaZXH3gePMhZ+k/HQHCla/fsePsSchIRLook49ytiX8QrX7in2cJpTtB+2vi8PmmwOuQQ0R/+E524Xv9gofKn8rBjTaKvsxKyM+iISRarY40GjbjD1c9R2X4qJjKasODDbqSb6wDCXoV+FNwgj0odRpuYAICaYe3cE0wnp6Bq/1+l0G/izLoFk93ijBLvOICaYe3cFqqz7tx9QQiFy0ipv9dDnKYIBNUWuDKBUtwZMp9lRbIQCAmmHt3ANQ1Xa1Eiz8qjbcE20pWERPBl8qxdmyUQvgSnmlCfxdQD8lIiyuUohE3UMPbuCaYe3cE0wnnJXvaQy2dP+ztNnqsvGEgWPpv9W8BNMKeZ3ajD14G/yWTMf0MPDZEQzSQgM0lyRHeCkG5Os3Ju4Jph7dwTmPEzF1Rh3/cPJ94rAI7qAvmWAD8oLixYlZGfQw9u4Jph7d8l2BqKiHwbh1TqhMC7uBUA60JEoVcED9RI0eRy4OJd3bM1bEe66yXOmSMay71+RD+wDd2buCaYe3cE0w9u4Jph7dwTTD27gmljSI4S9rf/i5e0Xi7iXn3bcrh9hSSEablyszG/zO0+Bmst/x7QKKW6XoVRQzky2/MIIPqxVAPdrKuP4U/Npf4NkLGvmSetDD27gmmHjJCgjS/8HKNotV7iRqnSN1C6w5//ikYKEBNMPbuCaYe3bIzS2Ih7RNu/ChQPZ3WRc7Sg05fcbbNSgDdagnrRl/TXBbeuCg+cAzA38fWKbeSqfedRpGqoiWQTXqlFgMIWyFdrGzBarkkNuoVKyM+hh7dwTSvU2PwcWwCF7B4106oloirpeITRBU5f0SPytvuTdtWv3LIz6GHt3AMo34SFRmpnPwrPMTBse75tbDaRr977Uuh+mLrwBTH/aoXh6SFbQfZXdaYQKRrOu9pXIllalrWCaYe3cCnhlLUkjpST62KApavnP8sAzRsaLSm/owFr7CeCS0QoqrKnKawE6Qr3wbkBvyzPoYe3cE0w9uavo7iiJiHoIpURaYxAr7uC2okFFzABASWwUQxBvXDBgoOXLhMvF31v7Xdm7gmmHhm9QyngBOOyBKe7DJGEKmsCM+xcwmpy64ntfgKGhkXcc+x5uQsl1NxrJRBEzcTTdpg3ZkTk01+5ZGfQw9u4JqNY7pZGfQw9u4Jph8OXulkZ9DD25vBStR7VhMyqD3y+7aFX5HXdcywT0IjELlLfIAIKxNusM3cE0w9u4Jph7dwTTD27gmmHt3BNMKdMnrRdoHgxQw9u4Jpayn6e1ENwPMkcZXOll193Isg2SP7lkZ9DD27gmmHt3BNMKj/TXd4TdW2Ez42EucQi9ylxrLi8kysCNNEvHl8yjRBlR5dm7gmcgRgwxUwYpqLo4TOUzK9YvaxhSVuYAICaZIHqXGN1xizjzorj4OXJHvtS/sfir+StzABATTD27gmmHtzg94TjgHKjQbnZlZQJHL2TEUOXsZ5z6uKCh/slR82dx3Pk8UsVh4R3du4Jph7Te+1KVRaiJ3AO9XB3syUtwgBATTD27gmleGM/YTOQaVz8p4gkzDYVXWfRE8meUv3LIz6GHt3BNMPbtjYn5IgG0jPzMAqrrafZJ0AFBZpy9dnIJh9mfy2+JDR0tJlo8hv7JnrTSsjPoYeH7Tb8OseUOarCc7SbkQmLR4hrN8E0w9u4Jph7Q0z8H6l2hTDVg+fEw1NrgGZJwTQ9tHNMzVr9yyM+hh7dwTS1lVC2NI+F++6BZOS3gvNiMiZ9coHq6fVlKBH+mj2DkgvurQw9u4Jn4DL0Kt7sF+8YYmPR/csjPoYe3cEohSXGUvMjSFtN9Ohv9YTzVyu1a/csjPoYe3cE0w9u4Jph7dwTTD27gmmHt3BNMPbuCaYe3cE4mUzWhh7dwTTD27gmmHt3BNMPbuCaYe3cE0w9u4Jph7dwTTD27gmmHt3BNMPbuCaYe3cE0w9u4Jph7dwTTD27gmmHt3BNMPbuCaYe3cE0w9u4Jph7dwTTD27gmmHt3BNMPbuCaYe3cE0w9u4Jph7dwTTD27gmmHt3BNMPbuCaYe3cE0w9u4Jph7dwTTD27gmmHt3BNMPbuCaYe3cE0w9u4Jph7dwTTD27gmmHt3BNMPbuCaYe3cE0w9u4Jph7dwTTD27gmmHt3BNMPbuCaYe3cE0w9u4Jph7dwTTD27gmmHt3BNMPbuCaYe3cE0w9u4Jph7dwTTD27gmmHt3BNMPbuCaYe3cE0w9u4Jph7dwTTD27gmmHt3BNMPbuCaYe3cE0w9u4Jph7dwTTD27gmmHt3BNMPbuCaYe3cE0w9u4Jph7dwTTD27gGNQ/1TGjeNBLJciK0hiFDHDVNdqpVD0LipFeCWJvKnpZe6HtGjeSoVp+ITLHx4y4CKsrqNp/TWm/UzZRo3TUH5u4JpZNxgaLBEoO8E4Yf/EgPqhRRUAw//UxmHmsESw416vzABATTD27gmmFtcWJ14BRBOnurXxBdUAF1Zje03EhdbrDbl1uzAhCcFYIgEs2M8nvSxUBJMRrLk2GGn6utz/qf1j0Yct3FCopHuUgDTqywlf9rdCZjp20YctyC5mkVCBxv2jed2ZCAmmFuKjBKHsNtD8g5wb8EUvxHMf8x8xBGeYz9Er5MjstZeaiSiOqNfRuU5wFNhtg776cwAQE0w9u4JphbXbVQ+cYxf/Zxpi5arcD7UzH50xwn5QUjvYKoPdPkQDkXRfWGkHxzsglVxf/dnlNUlPmyW6rlTRoamVfPOczqHH9E7M+hajpHiSI2Mpn5izsSSA89xc9+ytAUslN/sgiWo+buCaYe3cE0w9oVWaAosfQjYwacz4k7ANKjv0H3Qw/mzGK93puIeY93jfv2SNhzr5AhdwfqHz//UxDL7cAH/PeyY1ULRV01A4NSmczWsvSqmMrcwADGjkupdq1UG0zO5PtkIf1WKhBMJ9xkQlsutQ2gTUiM+hh7dwTTD27gMPcwj262bOMFfCl/wXnbrteO5LdMLgDNtbPRsM4QXZe0FKtHqHQS0B0LUKguBtHLNVcWHpR3NSRtciHxQPbb5H26XkqS9XA6bPlkeJnZTN3BKBjBzNterOL9sWMAxC3ndHDAgEJuGnSUK8YQL3MtgUZUTQH4KJrJihP6ZnmBGtexph7dwTTD27gmeU8E/bWCrIk8SJFMljF5EH588fYmavN/uK4KtNbDy9tDOABdytmg50mJsNo5LOLt9j4krFhhoMWs/UmAUBPuK+MCfN3BNLUa1dP84yKEBpoMtnX34Qc1Y+E1u7Lle0dIMAOog6+mFyUrIz6GHt3BNMJ24+j51XP7vMqCmIBKJp2UIzAKbgaRn5mhhIgBK9uYB/PxSgVJdr+FTx5nkLExiL+2jyVUd+RviEMYEYQN6N0XLGqqyBWqHOaGoGmHt2zVNHuphRWR9wPSsH+dRASDK3lzPGn1nayNrlyQ6iwNtEi7g9oQCAmmHt3BNMPKVA58kzCZP6urIaxNRKeCg0maFZC8e/P30Do+kkrxiXRxptOiAgJfROuVFHvlr0IsLSKvlBG9iqcmP/FFf5VaOblS7wRk7R6xmlnO5UJeYOkW9QAgJn0bvXO+BtKjE+Mv4ybexB7sYxX8Dzm6CdXFKU/ld7MjWhh7dwTTD27gPRr6QDr4m6D62UHy8+ncq5QM+7Qqpj8is/iejs7v19GqcakILan7k+xt/buVlOYeiMPK6ys72xHNET5DUK7Jy5FxVrbG9Z6be0OSJr9yyLpFnbXOAMq/NDg31uo/cLn5Qx+HgR73xUCQovTC9wTTD27gmmHtzZLdbxPChsLIqANWtYIldSdcpZBDZjbcINZiJ32beO8JP9o/CMlSPO5I+TeM75hWFDVkDhOjRVc3mld+AUYSN8MJaun9kj+5Y6ClRUkdk0jd8YK1sYtex5nDbAKm1fhp/7rxxJaYi7/FHyaoy7GbYXquCaYe3cE0w9u4Jph7t9ZYBDmbcwAQJ4GBqNDH2hn0MPbuCaYiiuCaYe3cE0w9u4Jph7dwTTD27gmmHt3BNMPbuCaYe3cE0w8bE+X1t/qC0lXnBGs0+GdwIrLFIdYiE4YuRlHFgmmHt3BNMPbtpgnwMlE8OM4Y92+a09gUfG1dXX7od1Dv6qk5HJVXuMvi3zY2wKKKsAKjDCcpBYMP/m22finwpL6YlDc/z99tKqS3oazjn/BNMPbo14MK9DCfeCUY7CNAk9ECwCY4Nu4epPtBI/uWRn0MPbuCT6EdrBUJYRligBXRQe6GuLEpJzCLezJvmZ19EfuXD/mi4NByNFyEyAqaKEmQLYoCkWiOgsb0Y/bc8xSeq4CQbS10T4DaR19RmOGUsQReGQpgiB5aJL78/0Y/uWRnFU73jmBCS+RLlw5fFiIAmVc4T33BJl3jqDGF11Tb62oKGHt3BNMPbuCZ8iixf4o0f23TMCi970LjgqUD5JA4eFvNf1yosDSBsH8QK4wRjS24bEnD1NsI3UGSHMQuYsblBWdIOMH5H9DD27aLyk8rbgLyvsFL4wjTmP2g40umGi3ZoJg5Auix+LMFzsFDD27gmmHt3BM4wCZqMkrvdm1hzIBKl+iqT+bH0+NVELuEqT+j5jRcOHz6rRWCnStqlCnO9DA2rGnfn1S7fcXcoHOO1YKth0IRqZ/dkZ9DDyKTF3EItcASdM40GSNDp/UFbsVnqr/S3bs06GPpzABATTD27gmmFthjRPHjXZCKB47lCL4q8sWFlQk/Y3e0CmTUpv6PDoU9UXiJX2obcZRWx8mdCrW8eLOjfyVcqONXww/UpcilHKOnN289D6SSWe7NEoFEz6GHt0dy+2dbyNtcwfEoSLoHQr+Nh6TirytbLav5FBqWr/cC2NMPbuCaYe3cEoCwS/GBjYKuL05BXXd+TkvpvYP6Y9AYk5BepQz4zxvHY+TkoCB7iuAmBd2pgl+tdfKD4W0maPo5dSbjGAIgJph7SrR0N6HEMkNESflLpx3jetYG9xs2Xt8sQK1I4gp1HFc/NcWc0Ie1zdwTTD27gmmHtI0vUvEI519kVu8sg/QIGaFPrKo2IumL6LKg2C+DzCkzxjKJZlBbYRzMFjI5XOUhhj+zJ6j7HXEdFOWlq8hChLFUIFZxTg2buCaWOB/ibSVhqYPH4jjYth4Ly+0aVZur0qjfGu2BPMqlZGfQw9u4Jph7dwTTD29tFZGfQw9u4Jph7dwTTD26O0Y3g2ctphnIphDzawUdbR+exK7YKsD6PXybn1rUHilGVwTTD27gmmHt3BNMPbuCaYe3cE0w9u4Jph7dwTTD26O1aArj4aCmn2ln1f8d5yXlyx2GQQ181pM+hh7dwTTD27gmmHt3BNMPbuCaYe3cE0w9u4Jph7dtrr8o4o08daCIRHos2Ps7CaYe3cE0w9u4Jph7dwTTD27gmmHt3BNMPbuCaYe3cE0w9u4Jph7dwTTD27gmmHt3BNMPbuCaYe3cE0w9u4Jph7dwTTD27gmmHt3BNMPbuCaYe3cAgAD+9uWFvEeC3pQQqD/ko8oTEMN6436Y7m6wZoNmi8Gli55POxPQA5M7PGaKaWzFfp7zJCQpliY6xjB+5FsVuQkpwurCYnRuXAQPChC3oPZp9aoiidgrOm5drneaUCweSbuJjCkJtCrg9YRRZYSq/6RxP+L/8X/4v/xf/i//F/+L/8X/4v/xf/i//F/+L/8X/4v/xf/i//F/+L/8X/4v/xf/i//F/+L/8X/4v/xf/i//F/+L/8X/4v/xf/i//F/+L/7nh+BVxZ+d2aHWezmAvFdkqjsrWXyun2+Z55huXE8C6YNySAqihyvPsxW2msWVDC2tEqMKBL/m7YmN5KJ1xiyTRjgAJPUo3FuqVfK+4yPPaQA/G9WR49wiOppGX2RssnNIuC6+nMNg5L1+568dV/05i/wr3GmzRv96caVeO42/zCKZDcm5TZpHNrn7LuL9Y6g1Pme1mJNlPhVu7i0H4CjiJJW7F8sWoSUv74yfTd77m0WdhPYybywWjuZJgKLPYJFI17c2EAVbtMx2r5M8VRNnNmV5bfYnxcaIrwNtNyVKfu0tKmiZiMjuhWgK2W5BlfuzmMyDfMOfxeWB5AAAAJ0KoSqMXFZE8jHKeof0F3+FcsvIZeIboowL5Zm83UGQ816s1r3OeXnXWIaQCz1pE4BIMsCYanglZbM4NO8dpbky1fK+95D74bW/S9XgEr8+AAAAAAAARDBdWvX0E4jKw+cRqooPQtxPFupb2C5070kHoamDKiNqEvjJ8GRbLmVU7vLVHvgkPktm10+Y/ILqPKJ3xEyRoRlLIN21feniIVQCArBwDz52Rgmldpd2++jVD1Va+zdpHj7N8YzThErmPuEIlnSjo+ZPTc3tqgGfbZtrBaTSiQrXju5wuVFLMkjCBXY5Rj5V/R1hDZr4noAJNrktAAS9v2JgKItYPBmHwqiYmPx6rWWyxRBzoUylKa6P8DxfqRoOA+Fylt/F79dFT5vozgHZpfRnrpUB3mHyDFqDPsnBgFp38fmXCMyDxqfsj+rpr4g9tI0tQqmjnA50Tcfi79t8vvVRPgDqSk9tao8/sh4BGKYVdYPu5efuiL91N0t/yDNkXl+/nCPfTgkjJ6ZxYhcU4AF8rtMm6yzPG7uClz9Ei8bAOccDAe7KAvnXZNEycRTgsnomdGeNivRDkwWwx9+x9KO+t7X2c0WT1A2bzqPkUzpSDPDe3O8LqbylcjH9/JcFqm0gXCW/64hYK7kwLVxBUkRd5nNvcq75gvmwDr8E6eSyABU7Zbbo2COtWYV3e7maTco0aWpD5PDOUXX3/JcRpjU31dpaTTSpd+ODFL5PdZwP2Y8lxP/hyqcQJARE8poLQiy0lGBvDIvAN/6dNGNi/afB1GqbBW58+MzkFpN1bCk08hBTc4RBv6MhKUsZIzfRgOp2k+00wpG/eeS/g8Je4vEd4PKwtqOA3By/LmjLExKdnVtZhzStFKsjKTG2xXY2cELPqqYflywnDJVStn3EW5rbYyzJ4LT4ddLjEfAAEnWAq4I8DtIzHSGpEjcn+Vy6a6FAyATjTbHigmJNWmcFqV8l4fy//xdJt82s9y8jkpwnlEj1Ri/DxlWPUPsYnSkETvemevTcUvGCdDrDAMzQeL6AxlOgl6jvI6bKdLyMWnPsOSnrx31sDX5vbqn+26Ixm1n/v0++booKjYQGq9hpCh5lUwZBE02wd8sLn9LK2TEm0ZpNuIdak2lqmyOD+8SEnprwKwspDVx55GT9pU/5/zBGm77Px4FTWTcZp4TRpfa9nJgNUV4xk8pslB7bOZ05AFKs9GqeLR67Koi64N6dzDZU9khrOOKfXTsBywxxcwkvAA5m0uLFppLHS0gUK+TOl+DSGLXDpyw4w6I+IP4D8tDU/59DeDXR4crAiYNEcpYzYSVmnMjDRkH+dJSEOygD0oQxdE85OqCXY3it1gah7lHpNZoleIfd0zvR9ZC8aIqgKxylN4W5ZfHmKhIbBLWd08NVXOt3xtly5nknj7xcTzzmg4C1oEjq1s3aGrFGysIuS5H38eXF58Yw+sQUCIAx+JvKcDpCCFwEEEvKhM7vdCRMEx068nP6+7D2f4K59KpLwfY4eDuX2tZgFoXPgBPLjomW/Y7uZKOUY2hQdA2b/30Q+emvgwaNzA10NRBQG4/LxW48n3XnJ55LaFyfCtBxOHCEsXDdp2L6UcgcsiiLRT1sWZZANmA8oOYpvpByYLBlXL1YSbPBYBUFBem1BiECaLUEbnCxNPi6DS4P9o7bqmdAcRuxEWniaqCbwL9eTjJ4rWIbB+BaFaXV7bkniwlsEz6warfYaNuD+/w6FyI7h2VBT8QKEP4tlqLCY6KZHKCMn/LEmCBNds5Gog84K48gQcFEqbl4zZuEi2VDgLDwmZ2VtIBA9H1z8zJGEir+5NycoQtdvZKf1qpz5YDg/IJ/jhuDMB75khiLgYKd1EfQK2xFPHAUv5QviEaRJH8/SMJkp7cGe4PA40/ZVSElG8FWKlmrs+Y/hOo8jeGOQQ/lfCaBbhh75inzR0ptErO+fBwTW/yqTxqHgVsAhhMU7Vg7Ij2GUYQp1EkQmazXsf3YSfz0EE2EZAXcYvb9wuyny+oVUTPJQFa0ZDQPJZ2x/BOHUzf+vvddqJ8crNBYm3XhL6ptJR1Nxy1OsGVCVeCFKAUOR8rMEkz5HQyIdXNgSOKb39jOmD1PWiYP4fVXjuVjqk1Q3wHxacN8QNlGTTimQF59Twy/lf8RbfHXipnCVHuTfJoD8RSiUE71WsrxA86O5o8mH+9qB5+cDiqemhXH19D7I529fN3Zi5kH+7AWv3vSrQAAAADvIo3JBVlbxXdVV5tsWQ1P9LeO4mwoiTSeBt0+gDdHbVyyaEOkND0HXgwgL3nJSmDzY8JNH699OfGKeo5qcL5vEPb9KOc13toV64t/9T4Vsh94R4EXwgMhqOaekKTX5S1sGXvm+R7rGvf5quJ4J6dTksAf/uPGI4zsnOgdWYSZPM9ApafIHe/+5KcTna/gDy3HOBIvWzFaGR8bCUa6t0b0LXRX8pPRPAd1apSsnwxBaKDKjBVjGBqUWU81UjwhD7Nu4xbIgdiLDSWZQuCcy+4sNgTRNcZyGV0fNf3IRUNiU7MzN7EyQaEBQlfxh0p7b7PNu5U2ZPBRCW/uNOapXToxXpSy12xiMLNuybcfxOZA7PQ/H07Ry/mnD9cW8aYX65hZNzTPy6yAAAJsPd19ZMevzNTD+1KvizOSEGxZ1blDkmQLJ5kp/eoO+82WEjGcIJ7KMTTSkgJ0V0wmppwwDTZOZWaUR4gw7zuXiUgGGtweHdb2hgAhM38iRoE9YzWa3aFbuwuM1184HEKYHDk8V9NWp63xwCm3L3+znfGYF7PEk35M9os0cftf7TZyfh4s63L2u8s97hXoC47JSt+WeRVLSHQXDZo562L2spoxanytnZ7mMVO5zZbfOG8/Xc1jdHe587+Q92DZdZxRPCmMt7Mb8FOU90o5CNVkPR+79O6XMoY25bWj99CUcgrvED3LIKNO2MfS1g39IucuvH5LXCWhQ+FacxrtfqwwkBt645Hq8ddsMB/e2/S7NSxHxYbdkZQ0CnUC20q6EYxYM9kO1bVojmRk4vNGkKts7idyMx6DCTcIx7qJtY8uvbD5+J07kRH3RBCPKIBQ0TTMERFQuuaW548AG64RPg22PBP/xIxcPneVB8M7khO6Ua4A7dKthUYQCxMYt1zjOU1uBblTGvoJsQ9zTwx5sj7+YngmpJ6eFQfT5FpPLT1v9FpdXIuB/CbpRkedmRCr9VBl6p9mfwXYX5a2mbXPNL9V5HCUuddyc/Zxsw5wyeDkZSWqybpx+ELF8QZG1pj0STW6YHJyRtynMLWucPo43HCKzxTwTZukAzYv6XsVyLTlV0SVa6OPr+Jj1XHZBRKEpHx8EZZb01dJ6KAhvHu0TX+n8fOyPe6s1gdS5g7nHwQOvyNGtrif6lv65pp61qMJFpEhWdOkjSirha8LOPZ4x5BBO/Eec/yjhbAKj7Hqqyl1QqAvS1vlU5H91iKkKE8rPqk7YTwYS+DxLBs20S31KYJ50jpFr/wTTv9jyDQEfjPbxzluYqHPGy/76S7P6VQSjV2H5N6LwVTzqMFLntqLNC0FqzpYhNF/dv4ONNzX8JxGJ10j39n0lrGvai+o7ZKHmhhyHSW6kAGi3WaB24D/G9EmM7MMm1zp6R7lnlGD6+KRzqzg4fsnbq4vuez4Wb+m4TRJeb6a9VuAkxaF8YOmlhSP2PJttPzAqflgW55bf9Yo0dxJ3PYIxLv0IMopLaFnYG4QA0ik0SyGRVa0zummadGyqf+BCecD++JSqGXad1sHsPpYa1EgUCPOpXlNSS0dFzVHXls8ZsuRP9IFg6Z692YM9/nAK5HsXsOSgH0qTGA7sjTcBEj2wxvcSXhQFPI4S8TfvygkwBempzOY4aR1QTRvMu7U+70PfSQV4PLBhsOy+MX/E3Qn4MwUgH7sppQ0LeBxjulxKKZDZgQsP2Np0PkGenpFuLnCEK5X3u6ApPlbR7fqWVZdKtndnOQFU/ujRReHaKYUo0NMxCbnV70Ib1+SEHzZzZjR9OMXRoy7rldlManQNUZFn6I6PEuFgEvNWnCuKSTdID7igRG3N3zFeifBTJKYH0V/L7J4UXNEU0ydpeoaY0N7yLqFRN+xsDkxt05Wxjwjuy658YYqPxfTudyNHDxA2uHVawZSEccgCPlUMEEgYAY++z9ZYWUvyY/Qsrm//czGaPEPBC3Mk+9lMhTQGXV0FZnwdzPGlIc12DQpmjY/u+dxIL9Kem3uwhiOd46SAS5kGWs6zOJlVKWza794qAtmW3InC6nsb5XO9GiB8rWjeSDyewHlIGg7fdrDAyzC1/iObjHbS2dWQBqKzfBPrGJ5Y08YS1isSxIc/Br7g4WeRuhdly1eiLQQ9EIj9vdokp2ySCptj4LB+qZ8NPCnUdIjKI12V39pphQ35gSn7eDnFK5evjv9tzhTbqOT7Du12/fshZSKjZnUJyiaIcXrwlepPnSsvytKGVwyYkqjy+slqzJl3R44BuzfNYADclNlLeRRS2VnroBHhPoX2kdGuW5i81bmwWWKUVdsGnnfYBvPhPkWuEaufWoajLoVyoSvFiPHRxzdkgP0iKJ7PXxBAonsqdwsUN2D1/lMJAQL7EU6JAKU54Ko0d80sgDRC54I76eELRxAFT11ETBTnQW2uepeFWEMHOl+YbwhRKgSzjsTbu/6BdTBriNV5bo2vVnn+ddTmVs9dJdMdf6qXD9XSQa3oiIkpCBvWBtc7y2bIBWSz7p99BCmiG28vY3NUmrLzu8E1L3OM2igHLJ2E4gbx+AuptGsor8AqSPDvHEmUTibnkNtXdD8dtBKAO5hjGE0gXhfkb9IA9jjUnpCX/ZXbtkEg0gLpY3/K56X5N4hGLqjb/ughdoneVqmq8/miy+x+jfkaUxGEoShehoSY/M5dqXvFsKoJFb9E2I6itJRZ07ylPbTxw8/vPD/Z3CnPjOwlY76MqcevNS8OHc7dWTTCh/JCAV7IsJ6nRT5Et80SrheQg4ul6Ho9MVz1svvuHwSSmV0sxQ4F3KSP/MSzAC/E5HRzn13E/ib7BNBGITjUF2BwCGBjo5oAALveRbl8DKgkpD/HOJ429p1O+DvWjySJeO89AOydy76W9UufpyL+bAE5oCNMpQHAb53RuKEdMxRGqh90CeYyqziWq2osm14nLJaKp9wTS8ZZ4VsI2c9oll/Yh0Ni4+GOD1jLTVWY/X6RsDv5lM0P968ouNsmJCP3hq2rIrdGHG/6z64+PjbyA6FBgA+jLkpWrq2jcRcZe9GL3bkzFz9u2zTVrRLE+vngRXdKSv1/0pOs9jh0rTmlKDatDdsIUfNl1M84AH6BSBPuWpFdXfnBXcCglmh2/d/PUHMPQRcTtPsQrvO0n4fqGvm3SI9zA5uoOJF3duAgi7XuAaF9FJ0q93uNoMM3xL5nquRDQ42CQ8nmUnJgPxjdAVubPwmgjBfdIVqSOQbhSR6vW4ujJ4GcYx8WAnmf+/gOoFI5kCd+hUzqUOdQevJ40bFmwyv9eh5YDqkLyZAgD3lPY+tDNiD5ssAAtpJqboJXsEsuq0l4YwAF5bVMlK1aLc6Uup3BKTFEqCtmZS68CAFPi/ENe20mRkihkHsuBwYWNBozjmxS2GsLmDEUGxh08D1U+vJbWgPwNECxXsT95qcjXyYhAGhyXZ/qAvyQ04Jzkl3Cyeqg3rckSUEyYvmlYnW8JLP/tUkmZrD+14pG9UvGKOaB+FQzMIex+CxJiI5OszsuBT8D2epuRAABh6+g5Lw9Lfj0IBuzDfQD8fd3iYgItvDiLo9Eg2UvDXpz2eAgOn3s5XkrINZefARuEwkGkmpQK+abdrRjflF+mdgfRRYcri9u1PK2TgqnqmA+UJrvBnLeZcplhnpZ/lGRignhaWrD4GVHFSgjTlIbxaDnPKN1Vvg7foRQvfJ+ONrMLSnfLRWF/637f/0DOOXsNS+LtrMX1jludlfjXIfqyOoHfY9bghWGmOXRBgzC44GfxDuoIDvikrlMfvfnAWgi3jIANoNWm4f4XhAA/qr1BdFaYlUCXnE6hLZIUOfL8Kne8FSSkKqWQ3H+cbUnTblT0u3k2JXaRf4gbmB4x1QVSvdYevomPcsoBV8+mdLk1gGdWqDGkIyTZj5G6NqLE2YP7bbK7jrRqMkPnRTMQEewrYkDhm1nDKy6+A/a+0tDFzyURki3oPzgaTHoSgU0snNVSaa6dxIiuIbf74jX0ASZGtZ+SXOCoG2D0aCdRAVptvQeXGvW9K8R02enbmCbJ6DF/PTaG0p8UhgOrJZj/Magv9s3b3/JuQIXusgwy+dyAOOKkZe7q261uHSJ4vjvIg3Wdg3G+Fw90Uxw2p/75dVBv/L5LqBDcvRQ2rHXHp12VVFDYmtBKYdXOEut77RAvFHIbfKqu2+/8yRqRHG3Aj8HnTNd2kCkOkR7WwzmvWSKkJR1ze0Ljre3qJdoUyEV1JVuePyZI+s1WoNfnnZziEcNTd0RIwsc6DuhTENAfxxPG93ag8/KeTJo1mg8F3DPDgvrx/Rlqjs+Hj8VC7hoCNOhVD5iqgUonYXReE2vC34JL2nM7jEH/r22BtUSOKTNR4zyTPFRT1TPMTnXoqUnTj+L7seF9jPESFN07EX9V0GVObobanOqnp57KOv7NpEgrNssCQtk9bnqbdOuWuYA9trnmXJmp4e+Xf54sJHALLmJIKlXa51hA8nuLcNmL70ur8IXG69UUpvcpU+0D4Uuuz+dzlDBtPOoaUuGzof9YycBI9l7rgy17fqojxqXu5rdYD9PmqMNWvO/JQO3RefmbJ+HgafOq2FxFkdSKWa7d56QQtrbJFfzMRdjau1h2BWYbXXrvHmN+OMN9RDXCOtTg0VgUZHfmyK41ebouvyAW7Vigc4oqHVsX359TcLzAT37u6F4xe8gIpp5NwmdLqMSy/pjPRGjCpFz9i+hpJYLnVLrUVY+Mxa9dLjHiu8vaABlp9U0xbpLBrhe6TBrvGCEmgPJzQoOYE1tigxiVhllEwajrohjnh7jaQBfEFV6l693cZQ8ENJmGcdo4StUACvFtZDHkK/vNvE+WCZN1oxwyv1anJkOuH9VpVkMi8KF6YzyvhR4Z2p3+ZgGdk/iBOlD61c9OVw3711/YLwoO5/urGElTscaD7aPk3Tv+6fDaQCGIZwgY2XbJXfOBAYkSVBZPTqctEyttO4CfoHBa9PzJodae+ZTEs3gosVeOlXnLbDKcQQt3A2Hs88mIqkpJyjQCNAQNGG25Xlf3M2QCY/Xo7mjBqfCY/YbL0JIYd8Vc5/h6KbWwqtGVcFgsDGtkM0qH1k/NOZXXhWJd2L5HZ0C/m4PLaWoQja6I9h6O2zh7bM6GOzkMRptS1szJLIl6OYBV128tvVp6LjM8mbHhusLC7qtElQIGgE3ezJj2Pxi6qzHA+uGSJ0t0iEKE88bepV/BFKSdcLnL3SfD5LWSp1VrZ8bdiUKWWOdsF9T5Fi3ghKx1/eRb44k27Z1qUidan2AHOOl/uUF7gtciQnTAABPsanAdwXvoD63hPpntBjZAHIAvm+EVXWRTmzaJW07C/K2bN3vHpFu63yVJWHbdRU6D/i4fXzPwj12aWfWQfmVxV56mNzAkPw+kLI5JXMGybAZzxDqo1c744zLZi7cTbSN8aoa+ueCw9cGuzovYc0NJom8ApALMBsPSSWU7O7iqx4fph4lq34vLDkU95suiHC9VPMdW2aAFu6wK1kCdj/IU7Y8WP6EkZ8eN4vGK+Km9iyAS9DOp3/Z7Hb2GnzEa9XhNcNkXxFj8qcikWsps05uENCW/SIsuzUryHxWB5lt04hLcH64GM3IEVl1bTrNrKHeHD4QZqph5DsHx/+P8VDG7EF7LdpZz/bi0mYY7nCx1uyxNXWOK3NnD7T9DVoSGyGbNW1wBr3g6dA6aGgqLrp9I7cDO10/HHTgAvJYnAAaf4IALo14cUAieiDo2bWeTXt0CFvgJCS2Au5GxwAPU+AsDE/otAgnxd6obVRBRQKuvZmDP4VUqAuKzKpCFgoNqSr/KojLKNcCaqm1kPWs9zdpRs1RvcD8g0HJB8FXP6lo80swcZGvF6qjX8gYMV8pegNN5jmTLPPehz+HXsAr6VA7Zr/rD/TzfBKveXHwlXyN/9uEnqutJf+z7dns5I93b2aUxa9vyVlBkeSyFSB0ymz9pUwBz+s5ShjYYo3Wg1JTYMzeyKnIuu44X3AYQrNOkQ8J8NcpECfLYH+rxiqkb/lMfEbMMHDsgKy4Gd57xqQgdHhrKseDESdZNHSGbDS8Ib34fCEw242ggYWUYqdLqoTQt3QkgOWv9TZ57J5lDs1TdneyU5T8PwnafG/Um6MLQ2Vo7gI3eADn4SVVkZ/YLdGWgwVWVONhAIEt3zlmUtSAJqyPH2sp5+a5YDRbMXWcsCRqXqbG6WL2DeqiWjEhcow01oJyapu1m9BuRtZYv13be7n39TGinlyUs6EEqqes4hJR98Qh6riw8syXsX0itL3X7k+qJoWC1nJpA8BsCYZMe915BRX5jx/ECZ0VKSlpnbCZI0whuU7iHb7vBI/8+J/aCVFsYsLbejhgBn8ryGQ29br2A61Qyl+zmmEcEZKWMga4twldGrKfIWHoWrApOmrli7WFbLPiuE60DHHYOGh8ahkA7Hft6H+VSXrV/ppqL+6bjpOF3GI/WGMVFimgFgA+f0pk9pIdr5ojdIcstAxf766EZ7gzsNfQhQ9IUSKv8Wmfe5vfrFwA8xAcAYY9kDV60z9a6aDl4S+XYujJvrVdBbebszZoF+ZWD6LPswWxr1xqY5GW6NHNRnX7oJMf+f7Ra1NiMS+4SaW+wPkAC/fXDD8p3iajwZQsHTJvGOLiamylYvi7/bZAEUyI9mPfQAX+mNy2QEGfElk1Dn42TSofcU2f2s4S4yOC/M8oZvX46pP6op7NzYwnope8amJanwCt4ZR5SEidQuUslbQrqUEvfbY6PHlYP7IjkWG9PFdrLE+FEO/GS2UdydmJY+PhrkrpTPO3+Ci3JiBdbg4uQia/MySP8i/C1W86dKDj6m7axqlbKYO1kJQEu7VSMkKL8dDGjylqnhZBokGv5sgMapwgXNLRKtixZDNAzUcisG/ZIx0BdYViaohugMgApCMVSV6nTZw+J3ge551F/zOiPAzFZeJ7LgllBhZ/2+wfR7NvpS0m4RTI8bMmUcaJR7rQQAWIrSzWef+q8ReuSgldQ6xGVjv6sY7gv7ba/FqmTymFHPlNeTVJ/jhfiliBtFmYL9fJDiO1Ntr3k4SOrsSMZMUvOV5uDkCC056cnwgDQ3K3RQABJU8saLB3t6IpsD3LNLIzi+7sHgGKUw9ABjVDMGhZhaBoX+qVQmA0jOdLvIURtH/E8X+omHkaTzuiOFv8hIEpJ6jgi0IE4ZQZVvbEfC0wouVuliz70yhPQOtaIrTbqXk8FKSluDIlyADElA3p4dYmJCjvf0RcJUcYHsUpCGYrhAc2BvJ1+NiRr5XlNNfxxUf9lX33hWLmUVFeLmRNJKRDTvIEs8BujIdImgmdaQAB0bslO0g845zo+T6nsmACwKYG6QWlrPVvOPECk2qiJ/JyB0ZOuAHUxxp0nf54NzIX/JoBw3mos97bRGZaEpP2e2irSYyzmZ6pwYzvPYf5Qm/vS2355IsjaGxgI+UPmgr9vww2E4+TATSet9YW06KJ9Py95E4LIUaa7TvSXV1aQHag4Kc11rGlHenM4VKAWKp2/4m74y/4w8YNDzhzCXOaMet/5e+NZen+6gPYaiDI1Y7Lu0EVsax6p/ix8cWZnjm+pKGNCAXHo1YI/FOdvw0IxRZ/7n59uNuOqnr6s8c8+CgTYLRpo79w+H4J23z334DhBf3CZr5JErmLdPSpNurZy+z9V+zocJhkx5LG4Xa88pqQVIIwDvD/kzOb0LhAfN+x00Dr6fDddv79uEVKk/D9syIov/sjkvNuv310FTR3QtXEpE376YWJcVvBSxBIdzyMO+ey/E6dTvQUudnK3UK6bjcVQEuEG33J9DG41vK3UxA1cYmf98uSpJLOf0lAFZm++wAIK5leTAE8aDzIxBikbQ2dpVn/2ev4Xy5jWeGZXmN+9K1NgbICAAQUfzyPnBs3YE1APENePqKzQqxsKS4j7+tVuHxTRBaOTim0WBNYDN66ivo2R8PavvBRIwlzKGSi7U/lhb9UTNfDT9TA6CkhAAADFNz6GBCUEAZUi4enUR7caeEJqzM40GCgrdTJgKs97QEVF7hZCb88qoPP3oPBlciJr46EfbV29n9QS/nliZ5+YSk/iy4go9bxTdkqlhRb5K8gGtgfnNu5zHd0YYBjuvkSW/q9YVt/syca8ee/ODilQJhZ73ZHN31TTbHxhgRVkNN8qagK4SEzemuj2FXcfkUbaFyuB2PkSnJENODrPDLhFK9/F/U875k7hmx3BU4B8uWE+zEOA6vLMmmkuycLq2Yd5GyEz7BhikmJRU56bGwSWCnMKd2dxL1yHfQXimp+sX1J8qLwbYKyVAoNvS+aMsuCSs7N4AtgmcM8Tobmn515V8OwNabhGQhsqiR6JO9id4wd0VQnxxnQCSv78n8ba2z+izsDrMVJZVx1+gBTHXt9etC1jsDGH/B2a+t4wNtp0hWACk6ICOlTgWgAAABTAFxHIx04wy3s6QKjcGsSEyX+cSu4snaAG4o/AnrH2gham/kqUddZWhlkHi2qGn5WKCM2tzU8bS/+ORenjyz1nJr37nGrZs2VrDBQfYPzeTXUiYn2FXeBGxGX8cECKRGbNdnW850KlRD2RuyVbNzBs9h+VTw3nisBVBWBWJftisFMn2qrDgcftVft7cm9Kck1t2o6J3cvUAAiHHocuSRNiGf5oqHHZRJMFSPUGSyKFG7QnFBkz05VaR1sLoXOT2vCG9yFzqDoXjs2Q9RaEW+UZXrQqmWV84QRLC0aQxNad+utmFH+0ncxp6c+yHDma2pPXwAinh7We9SSLtWTP//WPAUbtDPkJvZrC5C3LZeHcB3m/RvvspOmG+cOhzJREMkYiyUI38iJ/YpIbEOSl4nxxTdbaVQhhuNZMan1xySb5cIXp6k79j7BejJdIkil+ZUsNrXO4G7aA9TCsp6BLwg6pVn6oCGHpQuZF7uksT9MI2O/nlT4orkwdEHNmmN6tXstXQZAmnaixtq7zfPiPT1W3hi9M2AtLBrINoWWR1RdavQIr8VPtVcG2wHkKfmqcP89nV/qtj8L38nUkeZWjFqy+IPSBDJLKzXPsXUKEeV0lXJ6Mm0ru7HpScK+SORxFi1KvvU9nhSvv6+MknWstCeMpa1uuTTcElZXJUXHbNEWkbbAtNLHZjYKTpGjSBgovnGaZ1zoMhLZu3vYHvwqrqmW+FKuMyBByoAo5yMYdqJAAALZ9p1jjzNgEENDFDJLYaE25FcpWuhB7GqsLlGI2DkPPAPgMUxeIOjEDinELJgUrf5ALY3S6uIbkPH6qG20pqaOHuAbhTimy5Guh530gTIR6jiTcrG2znC283bF0GfsZuB3Dx7EJBNDrbjRvwI4zHcwiiPPpadwhncx0QsYUj6ZlzB0vMV24YzVfc9AwOVdNbrCtNkE2ZgG7XECPw+5oVTN1nbTvfno+MSAic565GX5fvwAwK4cg3tgqrp9tynk/NejQ4ZCR80kPxu95mRhafXDXB6vRvefosxzKjeRT7zvtZohRxhHnyypBX0K2bZId4tiuzEQO85DhKp9fKGdXAwOjL5jMhaimul/W6AlQKPt5TCFVGSiVq2+bd94jMfzYTNzKAtz7YvSVwOsr9bNnc+Rvu3R2mfTtJs51/3czfB0Pi3QbvqL2ewxpM3yTCE9+68Bg6Qs6C2p7l8g5YyAPeYTCyCgIhPRg0OuYh5Jruk4PhwjVg20NC6C2RNUv3JQkGyhkDgMOc2nRXrkgjczvKWK+oUcqvYTBwzbU3il6zGhle4p7pfwMqJ3BQ/dYL9Tzkuy+qx6zc3i/2x9+5cC/OVkUXwHgt4aihxde1FTIwoOvMO4w7oFz7SlNAhg1HXXq5uVK3Ho/cHs+W4mM/sHfMPNtQHdFgGKoC/Fv3BQ6BzxBziHziRkW7ji7UzFEOrdkp2kHnHOdHbBqtQ1AcBCdHLTKzQ/vcvg+r7d/mp8tMCvelLTOyNZg+a+yT1uY0WQMXkGdCo+8DURomQwPqro46Khf14/3oT7HiEGlv2FlSun6/Vft/h2vh7n7XZwxEyI3A1nyKPvQHZkfJSvbCBMGGB5O9r9MIvUkdDd/IaU9/aQKwyOOo9cOkhKIcwOcO9s1cM6jhnnJTiHd/L0NbRbXwWXd0E1ACnK3uW5GRFSh3Uuc0Y9b/u3GXRx6nggwpZ41NIqMJKKrSNmGdts3hh9zr0X5J0IBpim2mXg0na+5oQeqyCcPs5+CCCWOE/R1ucl8yryqhX4xqy2zw/lD96IRplcOGzVXDxHS7BZ2t/QS07yAm/aCsD7zQQH5jG25R7Fj5PRByWLhzMeg6sKPPsDC12jy40PA0/HSc3OHLmolKYMj17/lr33HcIjaWvTw4TiHMa94AsL5wPzSqGQi7H8ReFwKrxqkxY7qK/P6SuadwZ9/cf6BcHtgnT5q0wwQAZndokJpmtjzRkvd0ItrjUNnJbIrwbs+9gR9Py5vyKVVaiPUMeKTHFSq0Z1UllMXUnyS3ixJCRR9K68MexEODdQhE0nPHMFIEIfVmmG4nHBYcjWpr3gzYvVLOeekRdLsjaGAzM0d3UjdCTHERmrfGoti6ZxXNoiQsW+BpK6COjj3zJP/MYmgqecWSRT6NgDV6dzhITCIe3XepcgwzwmaIeVsn9vGufOu9XQBPuwnUzviIQexJx0/urI2rJXCyUjIQnyWjbKRHHWZ0CYqHBqXhTXZDivVjv4Py0j4Pdov/Eh/pEfr3Bctty3CZkAwUUrBKVkp1ti9NfGwa/MuBVt+fgYzuCYZ1rT6ynSV95g8VslM9KzMS5Xwt2EjZ788ZKr+eofAucI8zzqOh12NDoBZWl8/bU3+sekQ5sawSk34SaV3gawy9d4HKlWasbJKim4dC22UiT/xtj/n4Ye4hm15kTcFmQLqDCDU24QlKvIxYZra7xTKLfQx35mcW0HOB/Z8SZ85zoW51W+B0/ELiT0n+gfJseqEbFO1BjH2L+bI8/ReMC033YcPhwUhZO35RENy33Oyajrp9obhOBEEGMxt49YNF41YIGJx/Ytak0Th/kcS1m+xm7tpwBUskOoPQd8AMpXmd1J/vGXylzvMiWvECeM4AACe7t9uh1/Yyz2UOCHgU0kaLK1uza5qJh63HSWTJQmUY1VCEkA+fujfdNkC+djXH/BYYO0JRy6MRPgzpSns38lMNqZBcNcK+3VjTIgnfGQzotZc76tKotuMQd4LeEJXoKBgSRsid3xQ54eOWBCcoCNGncIC+bZjh/Tdv3EolmcZEUmtpOdzmxQ5WCogjmUckc6zUK9Z+ZXeSxuuNLdRB2486+X+kDkW3xGrWr+aPEx9YCCeLo3SWTfRjHlcOAOElNF81IP6+lL9YRuMR/7GjSsqFd43UM3RdaQ3b2LFSdqXpEzBSZfT3HDB5kCL4sFw6z7TmtThqynoUJBSSv3gV0JDd42V4UNewGcukTN5UFGuKUuicmTr3vq1mdUTWCtTajcWq7f9cGOqm+BO99QapTzjT9J83v5977H6Jh6fOfOoj74DW4bGo0NH1onnbw+fFN90znua/sp+GowN9/SOoMakfR94GtElJ+irzfSRP99oFsCCm344PB1LCYdegCQ5F4Nk77tDmsdSVDfkm3aBGWztnk1+eoRcMCiyKF53YekX2PcRf7fQzXG6bqBF64A9TlFFCTVbbWyrXY5KVZ2TB17MnVDSddXQNPrKT90yf8wEGP326RG+Vtxo5QNRegkqZx4QaG0QjUVk8YRk699GpYPKZFwdcn7MzZEBPYdofFOabKRxk2eZWmAN5DT9EH9MG6e31W0ujgWKjxfTlfLm1foeeLhXB5/iOHn2aWNPzZ6aZ8Bm+xgZIAuUwBkGV5BZmSsbo8gAAAeiLCeaH3Fe1fb/R6U+UorGmwJW5QsegMUKLCn5h/EAZTTfgTb23Xpj6Xix2mAyk34ZFG+81rO7OsunMmnibEd50zYdB6opJSvl+sqpQhKtWTEN2YWHy6Wq1l/Ov59dcK6rjaFgXAIziLUml3RjAnzxjBONeKtysvBtzIdbwfe3CIEufpI4JOeF8ZZOV/deXlxn2aSS1/kdnaU0KDrxHpYdq5M1vRJicqDtO2FkOQLUiPoFC0mwbb4ZT3GfSZzNiXaMNJiBELLdOvxQCFuyyOKxjILIYm0yQCFKNG3Vs9AAeBsinq+SqTUy53vZuSQe9MTjSymZSERVPiZGklc8GEBCFPUAHQgtvkOKTFxRLRInB10PkFMDRiDl0LfAWDY0k7rZnjTrInB+gJebiE8xTWJQzrM3JsU3MyNfIntqxgOr6/ln4wfuDoREGwed0PJ3jPtqJoG6DATEdnI/AeCsq6FYqOotxgLch/LPPxvJU3bYkfu99MuawIUxBcnJy8avswTk/CMCJoqCqjlNNA9pn/nxgsaDYZJyegqo90dlhtiNFoZH9W5GOcfr1iI08a+J4jB3KIh1fRuya96IC2BR3WJtBMABXWkdadFWjiYu3s4GLa2PqD3ThFaFkPy8za1NLfMQmH7gaO7w5hQxZWJjnRFJYZr4tx407cXIXTLF/VaBNxIfiT5QwKEBSE3JYw3XHk79R2np1uIn8fMxKT42vg6P9dXiIyk3QxLDs4Uh4seCA/53kaBtftkZoAcsCM76fGWTnPk+6XfW8nA4kpUF+4ORqdHQ7c4TnCIIvjuwVIBAYNtHLCQxoCJiDUXR/4Mqv/+IAE0gAAAAAAABgJSiwX0IfAMxnUA7REwG5hp21w0UPKzpGSlGDNHDAaDvk+Zs9Ut4MTPBij0eAj8lE1M0AHKsFCjNysvnkBVzAnBSTB7S7BuwJfyk/EqxwqtstIZh0D6euUu+BB/215+QEM2xa50Oyu7boklHye4jGdYjn2E3VaTBdJOxf1yvbMIXUYWCIL22OBSHPWUd79OdRK+lNoZR5X777EQ6hQId0Hlkj8+sFqqc2gw7B4ZueOvL7DbjazmfEG276dNReYDTFKX52hWpdgKvkGyRlw5DfqbEaNsslu6BRNIAAAAAAAAAITXdq/UMYieq5eg8U7cQa7jsxrp0GgZYuja8Xx2MaTi4IZ2wKngz2+puWKI+pKwmLy+YcfV+DWj+gKrvDk7h1PLQ0D74HVaT9vBK7AZGM+/9RQ70c4dLe25Ov2x1mzvvKluY1FWWIOy/Sqq9NYELyetiAaAclEN2ZVHBmHKUDm64J0VMO+oBMvyVTcYt2Z9XSjwHf76DzicYO3+kcYuJBfM8IJeSVGO3+YLYcl+O7LtQQQYPTjLYH7ahPvhFbiF9AAECwbVlt6Y3Z9PLTGseTpDot3ZP5SXvCyps0DVtEtxDonkotb8/VmctQId9cCiILLowenVOa1fcJaiQEqjifGb1pOi0KhHzBUS98UGJoAEZWeTfqB4CL43wk3Z3A2xymPHPxlkJbHQAdIzfMwRQqnkB5HnWWIveQhIWOT0WNi1DGujEUu+yNJVVlBiFg2C2z7ovZrruuNpBUPxl3woyI3/495m0VNdUDWX9LagWZqnr9qYYBnxhcjH74mQJ8bPMEsj8Ir7i96aIIIpdCc1yTLxIctO0L4gpPOsZsJVrCruj2rTdxv6uTHUy+I+8QvuILwylifG2JABAkPwLEmxp75tJ8mdA0PzBZR8baioppXneJWCOI/Twp0Z2C1FrPSmA+vxb1Dfw0G/4yePXjhmJ9n/I2gxItdpSYyvyJZy7WgZxh+WSh4bo/LsYf6Ng7IhG6/q13X0CCZ/Re2ORFLk75wYw7gnlRxWwEhQn/u07WB1ImkiUZf7HU0UaonJUinQ+BFdqGvt+5WUePXYrWsa8fbeELy58ffBRhmVCYkaZMTlQfJqmhCBWZ6KL23FRAaQjBww7GSbjpEnaQu2s/bWdu2FL5vWu05wrDbRGbr/qN7uQMUspTCAwpSLJPZsM40mw0Jx5tyD/mWhmYzCDTQs8IBRTQy4UikTilDXshoBhBig26Q9NZ4xyABFX+aXmEo6f0zHI4+RJqQ4pzD7wXhJu9ro4kDSDOfdoy99nC4AAYmK3zMhSTgden2p/8HN9dLouXhlNFC7k7l1Ri0i57fI13t8F+tYxxoM5r8mTDIREMB1u1w2IR9lyact1L4hLECveWFO1F/GKhzujSIo3THYLeLfdsWTluffjAdU90jEmlYZqubDEGJ98wXL/J7lY9U9ngWYmVkzuWneAwOWYiFgkHDL0cJa+8WLFw7BV5851hYYQ82Jot8Zo8UV3qsFyNiky9X5KzsVNNkYOMa8rLuG+OCIwAUUQZ8YF+lKnXYOae6q18xOcYhpypHowiK1sKZdAXE2z1E6upao8lN9vuFelZQJu/lJJnnDnVtoJKsdGobP+sRt5pzwr2xhXgFvzBG488fzJ4esVVLmTMYUpbFNwQvBYDMugOA+Pamg5w2pQ8fik2VLbICHknvhBPPZALLSGLwnJDFtB3xypFZp7AOReRyfGmssqBYqBoa53mALd3vPFnWvevKfUwIq0iJOaQAinZ1Geph1nUDOXensYScY4CYMMwrRRWIVGeGWElSCeioMDDrTJQe7OKufgR1yMeY4ilf0D6hB1ay7hrSdXMwDtexonGue7wjXPRDaRJYrRJr+Y+E5F4P1JPVlb8wLZva9UCzaKx84Sa3Xz8KTg+1BELzabnWsMODhJuypz1ja+sXmfc2T3B2+Bpu6kFys2sRA4rFjiM1D9OZmOH9e81DQc/jqdvXXKOZujZChS8yTjlhdbg0GbnxOQixwLAv9zxpdWYr4Q4vU61/WJkAFtj+03TpyGJgon7iFtIibNS3hSPQmDK0oFsFCwB6WjmB3QsMlYAg2dfzJi9Fv3tPR3jMs5eivePxMGuCIcr1ADrN7ruX96u4yErL1loOsPLuChUfocaACe6Eq5sqJ38+jI3ld8+MvT4Tk7/b4d8HYzhGLKtmjcNsNForvPBaAD8Bg8hRMHhtdz+X7xKDpAIvYhb+f1vHPd/4Izp2r9YCO9HUIXYeey1IW46k1ISA/OxFWSbjA5jXST3sGCIBXNvAGGzt2dC+wtsFxt17CFiPKukA5T4gAQXv3l2Jfw/icXP0kDA/BMXaN4e0vvYSMhFKv/uriz2Ljj31YqD1eNHn61fT5eIBIN/iDn/PeQ5OWRgmmkvLGzYFgTc5/hRvXe7N8f97TQG07Ek17/ZbBNL/BwzdUYml6gvN/jJ+st0WGoHhYViuNUVtKdvNxlwGZJlVY+CmvjYt7+4YCdkfcuFAU18EYBgEABMJoQDyzfwJ1kffglakJtKlkLOZ0FOobUeTQgQ1IrMcihCgydjIVAsSMX9CagJ7sNHnO3T5X82lw/6SNCsyvKlF8U8ehyt1cGmOFOXQ4FRR2JslTl0tYY88Bfrf537cqIYg45eqc3ZKLvgIOdrAulSN5X1H9GI9UUIYpsXuDeM7CgNi4NACj/CBpzEAXwDQ7K+E4k+GUg2X8U9FjBwVzNduPuWZ4w9GRnq1wFEF+Nl7dNEAFgg/gd5EN7EBxVmaOikGWc20sdd2vmmbWQ283ZQFELBBpjAINZpQBXr1YYLc6o1dEC3wjKmDa0h5i2BHBkaC7WMWb8WArdA9BkFPVfBrvfVSNEnoNsbaJ8BF02tqQvewT3bWTdvgepVi5WWtleFU3Ilzts71UCBC5jPdpSLLyITcOtfp9y6A3gfEybTF3ZpYM+WWi8vwEYSTsvnQatxS18S8bmSyO/ZS41w9zOXtOg9ZVUlLggZAIWpFW6lilXqORaYZtQUiAEf9TH0xwj3IGhmFQN/FlO/fa63RFNsYilqWA657IyjvHWT6V3zCQBlVve94hdqOotOwSPdaSLi3lo5IXAtJ5qtKo/mOh5nGCdgGAKj7uyR7Hqt5RTVgJFfhQCtSZVteq+sCqn9XUc7Ghz+FQUzoud9AmMqcGMt4zVb9yMVd0VyQobUgkscbdIZgjt/QpOlGLR1DVN3H/Yfoe5zslLVcjx2jYrvwSiMI0nkSn/vQRuUDH/DAv0kIl8GGfFKAAGreRtunFQZDLGT3JPcotjsrkalWnSkVj1APfw8p01Z1J6htySh/jQRdsQmC5MTYhArxbWQyKkJnGmezSjtjm2q8yeVe1vYYKRNxrrNSGrPEzs9Wcmm1tlVumRoCWuArkx280K0wGu98ZbLssoonXTiTivhWJNKmBkPc68Pa9kgYX3clyyuT/CMZF1mX9g0sws1tzuzvo+UMPvBpTr1shzG8t3BFDjCIEG2rAH3hesYsmPDJTgWIGfR3kdSAAcN9GluDuWa/W/Z0FVZl1GdUtAZmb0zPWiqUjlQzTZkKWK/BpxOPGGikw4pxHgJafpLcv7ZD+vmmYau54ABadmRMFSog3YoCwkFo8yTdgZXU0rza67k2O3iISs+ufGN9Gt4l5XxOp1RND2BNS7Na7NMeG2l0Vjaq7UJQQ404WCHWDLk2Gq11iWtAJNqNXy6ku5pr7BIc3iII+scAg1UF4hb3QkRYNs5MQbRkOLN/fPPXA+KMseKUoT6YlG8uFgIlbMlpnks+9f/AAAAAAAAAAAAAAAAAAAAAAAAAAAAAAAAAAAAAAAAAAAAAAAAAAAAAAAAAAAAAAAAAAAB8YvHaO3NGzR0JDr2+aXwktM3+MfDG+OxJi0m4iHh/eSB+hXaFNvh7LTSMRK/h7XDneMcX6YBULTQWUf1qjdP59kHLbcu/+MswEBfzd79M2Jn9uTah/lzxFW8bKlYdNb6TNYSwbXmgOwaKJZNXf9tNm3Mm93UJevHoexuGmY8YqMBk2uhO92FB1PrJv2t8Q9g/lm0+0uoZyEt9OIzeKakfyZxa8G02AbmlAhTfikfije+sf4S0pMnPTKieUisVPFSKORr7avjvuwTCeIteSShUNhza6wPHXniLdw/A+qYd2e18pfG35DuaM3hwS1zL1cJajR2dHF48CyT43ut5Ic4gCDF9ATabaPny2XWf++2jzXRlzYIZBEYnF+rUWwXT10p5iX8M2qGhFHfaYDkj/kqOxzITAsFEwA92SdX47BpiXZ9i1lZpHE2jhdA+zMgFC2W3cazCDThiwloRNcWI9Rcf1b91k5Z/toCiJZAlpyw7quDJfE/Z0Si7lUF/RLLvDbEzq4BvKPVb4nXr/JzyAV3zhKge7dyeGq2m79uwPvD+wDC/jBcy8VEAtr/XTcuqzQJlyv9LgKrhJGsld9W/uXQW3uYSEjkfPYrxjf5drQNuyVfwIl92x66KUth67FDbt1XwhD7taRcSTA71P2Zyqb8IywwCq+LJ1wL8x1Clg1xLNzR3PUfVdGF0wmxbuh/oj6YhiuRTN56DMYBVFEikAm+jcAmpifa4k74vHkqFa7WxLvE/tGj6SRd+EorUwTVtUd2zwXp2pK5V1zMB2rlN4ZdJhf0CECVhOsXqR5I+2/+YGTP34yJ8QmU2uAFD/VMZOgei+02EcAK6xOPeMH2GNejTZAcUSG+E41HXXe9vyMGyhBMNGXhkflTZ2zF4LWTdySEXxmaFgHZuQb9+Bzz4bZiOsWl2VmxkogiHuHi3J/5pDUlW4ULQxPtrAcgp+DBVAkvx1w4WUx6gfvt8pWCWVttuKU17mRYYGf2uno4WC8/BrQ/ZMa0x/xvh6nTAAqTBYBJw02VYfQNyV8BE7An4FN/NyilIctmSSLDP9SiKK0psgycwlXLk8ZktXanEbvyxaiph1XH0sn5XAn14hALrKefQseBQbKLytJWSwvnUfzCFU49OLT6zxpbVE/L6UYg1TWFf5YGU2ymsWzPUkX5OjmG4W7uqQtLItW56FXMuT4i0fdRWvj/U/0cEpbmgJmr4nayvAts1QpWASk6XV6sltQJFi5KghmGy3/PbaauQ2bLxsHpCWVcODDHgLqLwmvzPZLmkpR8w3Hww3N8t+Gx+Eq34kcH7XQX0o/HErAlqV/c6nOm+u/JYe9FEaZP11eYFOLeWx2GC1/fPdwmrR/jSycM4GOes1JbNWeugA8oTQNKnSJPt5SHh5jnHOCOEzTYOPmGfQOUTKF/oGo5DWabLdy3LeTYktdtMDBd6gRW3dVep1XM3rmGDpZmG/Z3xYyAW45iECjC7R/vOx8xKRVeE/ZjJMogPd+ClqkkhniQ34V+jPd4qFL+JptZH9iGHgJ2/OSoz37r0SRviqySIEums1Mn0s5gijJ8gpnK0huCyujW6rTgCHwhwYWofoj75S0xhm/ut3z7tsG+lnHF0I/+z4Kv5Fmqa0dN6M/AKl89fS9tQTLGym5mRMCvIPGqPvc4zqx1mhVuGbV65A2qmB/JNoYF8oCgp5BdmDhukhfzMD8BIYQwG9RPBJNyGIEaT5QmXIgxXMSGQYVEuU7pbIoWQrmGcFQLA/M5ROBCICDOjEvsCZfW6NAmNMUu+zjvdllBweTSGnsM0chgWkZyoCQ/6X5PJtoLwFJh3ZZp4BJa1aGXbo2Mzrcj1nvlLbEaRpMxN9430lI5GwgIzqh5xVxp9zFVfz5VOVDd/Eewxi3MP5ao5fG3KF2mZZdn+/4z0ju4hsICUqWtdfhxMcPp/x3ZiVc1JoqGG/yTaGBfkrlxAQYh68DAPne8xjrNEmdFEuOMEHZkraa6uEvbN4D9TMO0gHcBhWfgXT4laCUjjQHkCDN6zF3WezY/ZUSUlqj+m4aJYpaqU7+ZyyIclKt0tasEFT15c+c4Z16+Ma+Jqp/R2tSCYy/bFGqUbYnj0xsWROoTatUyjvbEyiT/idzso9BXr9zKnXVe3H5nuhSwnDaOSBE+NA8W8uJkWC9zVrNa40P7XfnD5iY/VN9xOmkLY5WcoKZXLooKN7Xoe2o3L3dzzJ5WmUic/Hm+kqObX4RTq/jV/C693OH4YyUTrzGShElidG5zLDYgSHHiKnlob0KIo+AOr0xsQyobsCla3LwNhguAZjUHEFBNwx3RB5ziKsSwPH2+jKGpaGHD9Y9+/BZrMwGRgy5zc4xCwwNL7TtR8k4s85jaQ3WlyL66+QYHQ23dNLwweFdA1+43RzWNmiURh/rZ68nSSA+I5Dkx5AN014ytYKqt66+hfrDseCueyvB2taDOgCBf6kUEh8lFPDzw3DNLWxQ1WBf3ixR2ata0gPn2Giomj35UYiegoZ/Oal70Bicu55oovBIpar7LBTnJ9+q1Y9DpKmU2xrSBo/Qpeh4cTvfNeRD72amjaD41DRhL8UMdfJNEauWH0G3lRmpZb8mMCRU2+p2BDQCd2/ksJJUi05d2EJMtEevhCSvk9UVqpmIiSHZj2Xx0x/lGe7a+AAZ+JxIkqmfz7S5THMBnb6Vedqfi2J8L700IGbvzTWNaf90ntHKGKdsyRJrh9Nv0ZjvkCHI4Arh4YwvmstjSEDkPB3KiCweaJtMNEMZy1c7Gg4Oxt8w2Jy53gkUWk5/5meGaDikSxARM8u+5H7SHYPdxP4tpWIHv5GZ8tbk7GQuK4mrkB2lG1piTecV8rgsFo7tGF65XOxzfneoNzcl/znQVsTZW8pwBFBgsBCM+Jc/1EOFnnansYq2GE7qJ3xEtGLy9AdnBh03by6BabeM3bP2B1Pmfnwnj3ouAFK25OxxlOzbttmOdHL/POFzPFoJLPQFHLqqYJXtyAz362i8IIUrrB7B/npl3W4laJrbNh6/uo9rCnJYe1Rq/3K+Gd+5q+Ej7Mkykak9jvhItyyzOIHEiy6+ry69+ST2xFc41K450b6xpVCaI0/yhplW++Ay3tJFQKQ2cfqMlSvufvGQPtqP0v+ZPnpncmqDNafvVXCdwNc7a/ze6FhiYzPg5Vtls0HB/oj6yBvrwBgzLjI49nIKi4HhU3Cqw52bcpULfc9M4tcrItmPd9xKakwPC7frvm/QKhgo11WLMfTy13iZzBWKZxTdpaZ4heA4p86/V2HSpTn/KaLDYG1UIRzwki4096Kj3DSvVj5kEfNWWAQIoSDjBkBj2BJKdGLr+UwR+w5KIuty0mXgNn0K8OSas3yWGsuBR9znSyOklVXkR2XOPTsItbirt8dE5KtH+yrr6AC9Fl9cZ8pBDBtx/iZzVtbLOYw99uO9n6WHVlt+sozDpDLMFqbEGqfeKCRCPEqo4uyuGD3f+v2xr4SPQXRDA9WGuunRa93AvNnRfH89bbS3aVJpX3qoNF3XRRgx6K187NVtRfKeLIRA20ZZOHJn2mLyYr914oq5GD5Hu2CuDIaj4I/lssOFm7v7F9TYmzsJRrGC54CG8OvLIX5vMY4VlHqylsbelpDFuxeXkvwNxlSyMqkJA11LcWF3K8suxYXY6Uw+AtgjnofJnK/KXBRJczoP30NZjNnoiUdFK+1ipab9/JbWR3RAlNMbB8Eop/gegodpRC5nH8w9S7SWBzeThv1myyWyrql4FewjMkIBXmTud8+aXsAYLx9hSC7xT4Lj+shnNxqH2amQc4Vo7J9eBlpwQPF5S49S+sTkoaVlEDPmELIeUK7+de74l7taPktU1vnxYSgjEDtmgUBB+L4pjxab/C8VNYbeEso+RgLpDlKerSve+deyY9EgR5f3ZD1aGvS62Eg3SQDsulr9fEkG+OsG7t3bhYjpF7IjGKR3qnA0d+5elVC9imEN8Xigk3D7lT+6BxIT1YMvumgRRwXaJd6wwjf1j3zOTwtCCowRxFcPuuQ4u7reKbge/tpUMY1oQfvasOXEaLkX5ziuEhAZYtGafvq/CZOXGX2gkm2pBMvWtc48qpN4DSz78sia+YBCsVYN8/5zjCz2YMZU4LJFtwRU4bxBiElhYV+puxb2Q65NkFEkpuxCgq83BIOKgSk2Bgkz6upQNMeGfE86Ya3RU2Vohet6qtrpQ6g97hkQIaEqwR9iJxUTnVtSsp3O3m3Sq293hp3MwT4/dTHhkPOTkvUiYdmXhjE2DKnGh6YeunrbuForbzolY8dzqU5Ua3b5lyMsROkdBiAFLu41a5AM4u9r4b6E2iy7AlSgjbbSQHwb4VzA/9+hdIgAAO1DOBb+BZSIJ1Y0tSfMzVWiwvd5cIIUfPrj6CFqt/R292yZy8hEpCRPFdUzCO65dj+B3q3UAJyqo/WvRygc2hyzET3rhWX4a9CC1BpyPxjgqlXybL+5xuX41uOSjEZ//ytNshdsf0o668c9fRkqfFrYzuZFtKCw5YK2oRDa/7528GJ7UAvQrum5lU385bNe+jvbZEBSxJPjlWSCHZTmd50uSdGQL9l7sd0ifShzw5X73vggZ7V4cuIcKGp4ap038K83kZ44EXmOn49L68BdwxDev7kOT4i6Lf5oLZNvPbVag7KcPWfgO100xn8nH/WnH/NNJyu9aDI8fnc1dyzDmnP7YhEYssipcf7JSM1UzLIpYlUxr0BPg9x5PBDOyHfC8ySYd0NJaLBpaG3xgyw7lvAbEZl4D7LVDATJC322NdmAP1MN2j3iKrPygHoc6kF7jF8uAnyBTl/sOb9cjWKgva0Kropug3/uzQPO+vVyfI7513Uy+lKKaz40GX6kBtAvNiEIQ3BZZENkFQGopUy8/Bkq18cfsBdTcgiDNL+yezBGOc9R8/Z3x/kw4r+Uc6kjCeZW7QD5uUYpg9njnd338GDBncBjF+DwjYQWIQd7borv/5Ik6eJJ98XTPPtCztjbBKSnD9IJSWSyjEOpkvy9E+YvnyC3ZIY91owtsL8twcusjSxX5Rxk1Jl/C/7l4gEyQxXEfnu7syt40DvF93oa/3KJ6HwQhFo5QPWDvBFSXDQB8a6BXMxiVieKHG4WNnwN+onb3hDePx28+AZ4WGN58SPScDhYwfiOTZGUaVpa+G2UY/q8kDQf5AYB4soFlQ9+xetmf8eppWohkTz4XG4stYzmVYukvnHUFcUeTB6h3E+vztMbkkHZz/FmSapPZ7npYJFg/yHtQ68mpYt8B3pwCeJwDL6tdsRpXqIkfPKu/eQpyM/16Db4mR0lV22jIAcgkNk3QnL4T1oJUIKTpTGOpxXpCPXsugnSwC0raNoRxQR+oocYVG9ylo5AjS7dr90K3AZzGOb90hUAUHY1IY44lfNRZ41foFS+2r7sDhM2uFgTmVUpl6/MexTh7bwdk0gvJApXQt8wmDdgMVCENjRIQ6JF7sk+M3KDwRpIu9DZ3adfujngesXIWhQ3+wED1MKWfu2ZusjqkTZjc3QXnzieaYiQSlEAlSnq/T6hdbiqVwovO9Geg6COa497LU+yVRFFTXGAbH4IrmBwIK/kKKiceYs7J2LDOwj6CIS52suNFdhPufJ6fi99U6fcobGLx3o8/xS+bNN0wWTdtKwtF+ql3bM0dHbWr2YuuHFjJ+C/nzR+96UcKOx+tTrpIy2o5/QZKpW960qrRs4p0k5zLwLcGd4RZfU4CtIAC+xBFocYRvz1o8sj3QsnkTBEAQknj/KP8kqymj3oWLpwd/ELIRodiWkWwS5GP+j/JAoE5+T+4DWHRNMCykeYOVLES5hYWhqsz2Anm+xvdlSnk9uCWfIbxblXjk7fD3VCseLMPwZi0HkrwBQIzOWT1cLrx4HTi/Nydo1oaVfx08DL2oeSWIqEWzry3SpgeH1DKu7Uc2uIgoHvRr1G916bF9Lldl6J4+rHO+xuA8nzXV44+tIgcUYposmr3FlywXgmACL057uw2L2Rx0Uoo/aiD28oI5/ztWQ3o+zEV5u9raXriEl4PaFT8WdmSQhjNYJAM6aeiBCdLMWIej+ugwuPFV89t/7COUPbDHpxMyGBGox3xWuMe6EzokXuh6nrTHiJwEw/Ei4JwCD+cGYR07gLH6ORFF+b61a+Q+9KK632BhmiqFr0xwhXUQgVQ1CKIUcqDcHklLtkoIERmX5ZXBw2AvKApWHJ5YF57dmDFX/0baWDd9Rm9exgjnoNJ2L/ejX5L7/pgUVPFHXhlFolEZbUik3/qxA7MT4bCRn3taD/QiU9CMwBTDq7k2ydXxP/ZvF6uQOZWks7tou6nwKCM9DTG07F+kbEQ7SiI8ipA71VoCO3kMBi1YxMOcBz0CsSPId1+dIP6KudVD0EKgxQyI6zlEDknRC/VugpSyA7A+H5kjwghJVNZ/t4/LsNv514XA4hkag7zDp2f526VpPH+qjXHhVR16R6PPHKepT+FKp5Isa1KQsXBw9sQ1e6h+QnUBWxbQw8s+dwI9tCWMLvCLPKbfhh/6u6sMo8Yia2Z4qZfwZOTnEZAO33CuJNYvciR+HBeXGCem1W7Dl8VMhfctTbS/4d6C3ZNVawkVOiLEQESuilJYJzOSxbr1mZozRXUZgZY6tLeocdXq3+/NUfrZwuFEWDCUhwXpQBj9MVKqwDODbF/trGXGiTX1IPgr7EA/Ri8OCs+n46dtobqUHWvmpPjuwWDfsxapsJjS1Bto5AOtcTy2gGE3CrVXmqm/9SVt2PCyxiiRQ0Pj/JMl0TOkl0olUisUSCyW8GXW/wVzG9MO8lXSuk3kqRwfv0YwG7KQBzt48N2EWQELky+Gw242D+zCYZ7lKDIwBBQZiCz7f6/8x3/ADFOY4ufVEYgW7Iq2p/7pCvCw50q5bV7xgxgTdbpQ6ha0pitWD9c+HulWnEQAlbzqS3/vSzNCvnqPB78Z8A5G06uJgBlGGONUP4FsRCrxHW5ZfzGzHvIgdANURzoSUU1G3+bbY30lVQPRMTLyVKu1iO0clpuH1n2xd2haxp2VQqvBrzMyVCMW07W+f/6gc6t9TUR0DUIFRWK56G5ZzxWUd8s5R0qF3Zl6vcX2AZofxQZ/b//ca/0twRgUES9kuuKTthPkCr1Op+MZ3SvDe0P4ob+y4NEdFa4nvDSPdnBkH6kuyH9M9xJm3sqwkfwYdefYQ1rETWY66lILKA35dNzf1LSHAUkACUEK3SEVBNQbv3hno5c/xnnnfBhD6GVHTT3jOl2zDgjK1wJCBhdXBcA74LqF/YWWIpGg+od7oGpHBZKAkh0V5+oeJtQsFwxH6XEh7l8TpXgz+rdVT8pTDB+HsGHcTvArTkQ+vO+yJhkWsNiwaJcH1xWZQI+UTGgd2e4s6nJSQ3S6nvfpQol2ze9NpPR3IY0kLrLAHm7Ub+2Zm5hG8VlGlOFlHlatWhiHdhVolbgNkV0UlFp3zGc3xcWllsCO/IuQeNHopqNt1EmqfGyY/AlZZmDGLYCprZ/QbqWLqWktHxsxv2KJeFFsHBfXxHFyI/xp6Qbwbofm1KM/uA6PlyHR6hoTtIJa1g+gxg701QvzsL/UwjVaXXUG2APGnYNqd3s5nxuh5qDKwQa/lObRodUMrfA3FaFpdSkcWDUswUupasL1cnJ6J35j6XNDul2oGZSuX2lYzpXYeP45zQtc6AmXsEPeKLIOU37TdR/aBVpocer+L9MYr3wrLezbAHq/XuZ14AZzQtj7wvbaarTmBoFx++HQGytJtPz3X8AIJqB7x4z5KbnwOejAtnyuEEZwAO9R7gZLifbXRCc/haJRbg5uJ0SzbNb1Ph5CjM2UT7vVzUoAeIMQyjT7yK5K2xJlLTwdZlVDWI8/HPs3UXCbzmut2uonL6nvJrZ/gSLnnx4nXlsZhPzM4xCMIsGkQeSRSFKO6lWIE/vkT6tprUC4SUY3aAuqgkwCtjP2e+phT/QsghS5azBaplrtglTE2ROFas28U0iC31UmPE0mB0ndbZ8riqGBB2FzJ3QDPM6RTgJKpxzfwslIBJ1cAEfmiZylD2PzvCucjfAFy1PusrqHwiti5efg1o0lD2kolYFZB/VG3gLQ2JUMYtfMUkdivQpIoMrc3zlBu/GizGbtcQ5/Eb3lpUZynTAk8f1zy+I9ags4pP0798cUeAffkepu4dS6CI7AntoRp+4sp1ez3amPnVbj/LQ3CYO6upDyZtKQthhJKNB+3CvGTgMiqWmREsVbGh0uMcFIJBaUA/VvUhMv0MhKCF7hgiSWfLeRSfLEnMzI05teo6QWuEArQODqPU6rmb1zDB0szDfs74sZMcBaeRtlAkzK2mXiUbLsaWAxFvMp3PL6/OpsUqPGxJdtWfE5GcUEvj3x/VfTgMPinKcDjIUz6zPoTNFvnTPCPHE6U9dDt1BEYqod8UfV4aF3ZrNUQqjGk4gPLUArY+fnYtg+hhINVme0W7LcvPDNAkG+l0A1G5JJCLx77yo7bOkKRxfUCs60a4/LR6zWLL4J2UPgUHRnU4VLiVGZqcuFNK8fsVnjccHcOITnBYdR1VGHEXDxfjdcYXdiOXumBte2uKol7UDw8OBYKMMfIJVag5oK982Eyz6U7XvXkM7Lyt2U3I3c2PtjNvwT5Y95Otwai6nlPLsS56uBvx0Ll3xCg7HS28aSKUFMoMq1+dUBBT0JM0siwJrBQsO9eYm2IeP1dYUUixjUCq40hzMDEcRFmTsfjbt2dZwDGBrhiDXc7hp8BUa5ht6FkzKIIvEnrfAl8Xg1cIHl9gqgA/59jdxAFPnOT6XDapYmc+y2iPkr7SbTV/7jkICc7Z39r/wRnUjiuPvlyyoJnhp5y/RK+Fvgf7Z6/+JT1VzOXfa7/WkwOCIVwkJFbMXjGiFldGN3l6WLbYRft1IJlS+EyfHymMVVkW8ImjrleRXtw4BHCno0xJ7cYfVP63wXby36upDQnl1+2Q8/Nn/EFKiKuWNp2Vna+UZUfYNfbEi2+NnYCJTPeWkhh62kLpFfhCigFxVliAoasuhPYSolHjKLmuPZZpplrjZXF9WYR0/8hQjVOpq9jDF5cbrMY4f57qoHPoo6WkpvRPmJDGSWBgzvgsgtYgu7pHEMzY5TyKhjg1XEHS3HnfDmWnjP2KarHqXFx9Lp40Zl9/mrTQPmbD9DXDc8HtYi1d127S3SJYIidFVkAAQRl46ly0rKSlfJ/69J30Q6KikQyMRAURL2AfkgF664rhaOp01ohbZyNJCeosFKvb2GQnl4pM+lZDA7JDdw3r9ARu59PtYL6CBNVn4aX0FNNEXQVe4tXbEnH8KDnP32KtZJiyDpcNRIxd3yB8CjcPYvmAY36z/fccGLZoDZfLOl39t/Udn+Ffoz3d038gkq2XVG47R59WDFJshCuh6iLB38MAUZ7TPzHqjkEGZGdNRz6wpnVt5pGJm6H6oSEXputIQHF7NTN8DIzuBbGk3f84wXa5IKiaHRWnVVR6I/FUpicIVrq4Zvh48glMivY6+Wagxq1HM0Dt+Juof1iS5HPNmuiKmJXghzj5BrFdX18EksCcidwEbg2gMtovRBUxeCFiIS1c9RNbJhECErRBSEpjvDPT8usIIQLlSYyyni9eGrgz+mi3Te2410rlIWU7L9jnwPZ9oLbH0Mmq9terWw5L1Bi+nTrX1UeB4nN1DxNmQKT4ghEI0K6NCVwzj/EOyNejfI/ZPsTLXAfXeDsLLH9j+GZ4npOM3N/0g1XqexnMXdqVrvVD66KK8rldE/kudS34As228JyJ3ARuBqCoXghWR9d3CXe3OnytGsUQOZQbCuTqkPREVx8UuQeUqZacjx9AcE3/ZHKSZ3WsOHP66RxXpTEG7UldbD8zQBPxWjGA8XUg8cxGrCR9Zbt2z4wGXRA4JGkIS6wTQlv+lLnJ7d4i3tPezlujMXpfGG+51XLvrlu5FGHwUKTw+2EZw//pb2XUXOeiFQyHRmzyE0l9sMd/GVfEMz6HrcFllHs1Rul/tXYl2X9WkcrDQpXR98SQ3DiwMSQmmi9IuI4sLvyHcSSMeoMKRObM5P60ZfX74mQmnO6W1OToSfJR/UQsTcBi6y79f2Ht6LhnWHxy23X/3MyPkjbq6cbtUknIdmZlgGXnp/rmqxarBUNXF0O5yuz+DhOsf+6G8MulGhmZrZAJ5wmYy1MOQ3t+W4HVj/fWJO4wgLPleDbqD0qQlJGyeJNb21rVNcZshNLBJC8xxU5eESOho3W6bA1Stm8QQ0jgIWZedrj+aFbeJKrhgjZrn80CnlYMVKu3TmCsWMWY1USROom2cqZxGKoDoGRRQEymbUwScssrJIM4Uuq7x7R6UA/7Ky0m3DGO/M1mxVakGq3xx00hwAQD/kcqcSUOUgobBM//Qcwb7TM2JS3vTopUU1kxonSILgVtIpHU0xEjhH54kvE3J1GuAn6gcXIuCoLFdCG2C4qzRYk5WIviyH0yyGSAAAAAAAAAAAAAAAAACJiyxL52YQi3zGxhmcbs0cO4nPWCBf1GJ6XdfUmhCF1XnuqqtVyFm9yiQawrIExImGMoxNO2jtmSpmyuLcs5jWTZvA+2eN/jTjtwLPN1aycdOYvqHWMKRul2oiHzmabv0f+zQyyB1VzNdbOL9v7gxjsxwYF207pMB6t7RUi4IjaNGK6RuIVILr8IsId7sZ4GYHwDjOT69rKM89qPPW4OpLBZOQA+gTzT/o/81CFfhs+Xv5ydcl1YOESKUmer06qABr1zpcx4svwBlBu7uWVbx6wo7sJ+FoV/wGA+EQOyaFEd2VirRBWtdNXTLH+lvNFZCW8M9u+PadSr5VEKjmXgBNo+X1bSvQurd+10q7YkCwBa5ZH6HhoZmvIuE4ZDqgTvM9I1XIqD0NWYvxHZH9qhm53TDLY9+D5xSuGWC4hzOUjfdjXOVdW5rqOEWWFbME7gUME8VAx/gL7uD0sUIyEq6gfUbonGspACR8JFLRal0v8/3fnaM2O05crWNui+BVTvlUQkQkutd8OqhAwPlPL781PjpOpqyxhlzYIFVLVHS5//tXNUrmgGBbBsFWgA0tZGYIUtakFZC2bwVkCPfVomH3Mm8LIybF0+vjLJN5pXmXt04ZRRCzKSX1EAxZgPhSlegi5COmQweCfmBjoUzgqgTR2K890fI8F0sWXv1Dwhna20tMDOcYWd880WwmFEx+pivBuchCqL4v8bVI29Abng+WlGzA/pWNt5sHd4LkC9BYtv2v40T//s4eTmwVmsoXGqkucUP4QjGcpUHxkDV3gFWYJ/M35sCycARskYSORboNqkna5K417LPamZpmFF7uCcrLoAauPmPOp+VgEi7sl3Tlhn4+NhXWFcFxJerOx7AO3BosCMI6yiCL1+dtotujjB5W1r6t1kZmJklIGAm3Y1eiNYpPAPDXJRLa/Z5efg+VyG0aAfPPiR+hfFk3UHtTmzy4rqdSN1kov1TZKn5TyG2h9wrohJJWnzTs1Gx8WLsMAkA0/Fi2FjVSBzSVwmyQW/sjRwjIg3CMHdxWXt8w80LJdQBdPoAIJt1nf1qxy5J11/pKeNJgHQBW3LBqT2z1odfFakf24kFkF5tnweBggN1um5PtqvlmQOJaHffh+dClV7LV055tf6gwSpSfCFcvgYuB43JZD35tA1T6MwJMequFq+BSyhAvhhqNTkfH+bHzLIbklUpzSBsMswnuAxYl/b95fLRnJTaIJ744eAy4mJFrQCiZpDrW11JAM9ZlMlrguw4d0RdsACF6xg3xRroKZmTrJ9/L6xZfTP0Oy1HsG0APtdc/9hhDPn+TIclzhyYxlcYSlMHeq0fSLndmAhBuqsCeycyW/FP6LIom2mi+1dsPmzOxXgkSDxUBynknbOrDWadXKpeH7cVthbkXdSZL+lLSsjO7r0n7qzn0o2zA9hUCal2ELhe7fokRq5lIbXdOai1OQnKp9GK+oGInOYjxwwxYvST2J10eRs3V76AiifbjrvswW08P//SHYfgC0HS4KPjOZNEvf2AvAbx+O9llJLCG+uZ9yJ2Sas1cFHr0fYJp180Oyqzvo8AGEOD6eraUObwi+4JifuEREeVRn/rbGmA3FhuukAag9glaER3v0V3A6S+L/vtpg3ZWob7JXQ7sxtudRUKF4rA91v56qz576fba8xlvCIMrjLpBAq2+YGgAee41Tke4y8cZvG5lAwklw+cz5NoacQMb756E9MOa8ZWxlIzJcP/wYlUUHKhghhQZsYAYP8zxSKXEf8c/qpGuT9czxSoo0L/6wEGycsN0WW7TFVVwfAa7BYZQuzJ/2M7AtdQ/2qOeHsqNmQemZWBUhiVn1G08sEzdn8oq/SuKY2/xrBsQaRAg4s4vHHNgmr1FFJ/Ry8ht2FFyHfqZw5wEeU+57TEg0em1wuzNqlOw0q+6xMP2q6f8gJGdd0uMJNuVDjwlNLN7paIqsy5pLS7iy9d0lZztFw9UOjS0NF9B4HmXKeRdeKWj5XwdS5ovsP8BVBuoZGYBPCsmrbHhnL9U0Y1R2gh5ij1HajWzbcoxR5fPyvdhBRQWahxogtPP05N+FJvWZPEWWLeBvZ7f1KQ6iGHLpu0fBARA2R3yfxVuzGsNAz2/MQiwsK+uaR+sxjkL/0CEsD49mzhVnreqt4GzgBFC6gf5L7dO8OgU7SgQQ/fVwFOpgnH6F12fsRrtLGOOT2+Qjb1Ab9w9dEaD80Cz6CJYmVFQ0w1q5myiI+4NcbBDxY28dK0XbkyEnk6bX+BslDmZJHAGPWOgTg+L1nmrvHBXUZmEvr91Bq6EeimK8JWEhBaTniQegHOrTxOj9N9WHi2Wh2HbaDg8WBvB9ig1IRtY0QWku6Io1CynVUL17bVuzR7TmHHPW0W5WQyAamkEliI96X5eoj7xPKoSSfrfsvjCQYYeuNlNjs3Z11CPVGn0NMF6CuqdKUQtfpTOm+wgFtDv+E5S9Dkk5k9pBSQP9SzFfsAt8UgtOUWojXnI/mgx90bjJgp7kTeAuwBzwf7VCxv72Sien/AAA43hBXMhgT9y5lJqbX2b17rLgTTTdl5vEGRjzuusUwmZI43iJOQbw/oGbD+ru3TDIxxfhE1KXuvz6lTMnfLBKuTs9s1Kq3rnb1YUXkrGQ5RsshkfAzjHEg6keq/9gDnYSEs6CDAF53u0V1i5ENr8ZRoGZIBvCiogk9/7G8fm2reqNSVZsgtiloOblCAH5JAqRNf7EB7oLLTv9+0LYCjf6piBTIS1fNeUbqwQKUidU70OvwfadKpaJ+xIfD1bPgTo5vIblQuUnS++r8722W19j02tEc7pZwKMJ+wspesSNSVQ6uT61dB0Q3xAu8mJDxFM0XCZF5ReYZVqCGs2GCgJMOx7+Ade8vFrbyfplRnYcu78TosNXYrwtE6cG7YECcu34bFl4KYhfyUCI2uJeoQ20go+WFKwemFVkAtPLi/mnb6Yf9Vl7Gdgi77zK/tf+4E3TnZ1I6yJqF8oAyayyNJ77+NVqa5BxrII4cxr33F6l32d0dRGOQDKjZNahi2UO7y/0ApM/3R3rG1yLdhvCPe/a2a21NX8ogNa6oXpdTOxuUqlTwbpfKDg4lKNyCmvdNcFvmstmzpBr8M8vjflkihY5nz3wxiu7qjtijhEspExS0wUYlzGE8aYOuWPqUeZm4CLO1hbSVIktLcsa//hWOkKfwxFolm8iLeB/LtqQfBMgQp/Uygz3sozQB6unV7g62FkFcir8jqquRwxuUr3TygDYfO/WE/F3QwjzpBtfZZb8kpgCE+Zk9UAShJUli9g0FvTlw3kbgAQhEpLKoIlrJ74Ns7Edm1O33iHkYHJ10SQXdJI/J6ufHslBpJNAwli7F1OQXn0inXYN/iHlS1lCNVwo1shqAXclzabhyut5FjDfdleooER1esMaGvvU0Ae82keE7k0pqf9GlhYk0pJ05zt0W1ybSSXBIV3oxK8rLeyNsp4W4oJv9M7kEJ+OIXCcvh3sCDC/KfhfKpzwZ8Qo0bNIhtQ6D0HkV0Ovn4wAGvnqU5zZ3clFnRhu7iVPEcpwA0gWXydqS8q8a2w7b+aK3ZdrOILp3SmgGYEUblJoSpanEADyPd8tepGVh1OpaCNMx6J3QCFc0ayqV+Ck8+KxDwKgxpYnTPJaWAblODdtn65aUmTKOrWbpphMv92RiyEnx+ly77162ZDVvt95MIUQMt474FWkXkxJznv2/pwLognSmN4GKMTKPeKrl/FwUnGXL84hxmzmuakDXu03IEuN4+qnMGFrHCyexEj9vMfcu9yAA05IqM9ll7Pmyw8kwLeGqWHzRO0g75YFW318ipIMoyig+2sPdcXl+hpxi9KuMId3tSD/dvgsaz6264n321POFNIv+/TWVnA9OMoMZ6xs46AIpplplIn8XapduNjbO3Vvg6IvF5fHw+fgmk2SF2zR62qfVjhIkCEusE70R4Hk7s3Ks2VtT3uPHKNuRl/IheV4oSV4CsXYJuGLWhVP3veyH8p+7nUwOa/1SFu1m7zrqII+6MhaAbG04D0RW9AZzcBhuvUT673zSii7IybfZqHhPlEKZFskCkEwcnQ3/g4v2BnBZorfsWu0fbCvqx5HOlXILKMNkViT36JzDHp5vGJD6E/yYir7+1ifOwGVZJH396AkEptfRQ4rYt64qp6E85WuOlXQLEVh9n6MwoGZEzMyl22uKLtB9N0k0/HewqvTMa2CmLeF46eZ0kI2LfhxKso9brksqObCWe0o690sYAMfabm2XujXkyup4Wwg+iXQppMKqkZl9lh0OmiEgajvyoisTps+6sbX/wnZrsNngvoe/ld5FSzyI+elCcN09u0xcr7iZhuF0SuHB6q8CVwXZk57IkoByt6cuzTlpokltHSmFD5x4qQ5CKOagX+ZsgEHhPG4PbmJDKtEkhEW5hnckxuqWyXYqyDmFpEZGzCzpLCvqSYpe1W2jvyi4JAXxlT6Z9//xYu0FoLQV1bgNqgLY7pM8voUvwbYAW+71g+rtscj52PZcRninXFBP3k9/xCFh4hAyY9WFZDqr4bFMRXvpxXfYXAoSYK0bJeOpWyf0OhC6TAgDx3LouWT59Qc1mTQ24ihn9d8ub+ZH0E+rIT7GVyQ56IdVJqdkA+WKu2CEGo8uDLYW5mki6udALStyPYJPr5CO6mgcXUfiWhL/DjL1dXW4DWGtMM1Dyep5e1UmJvFSDDiVATQVeAYRwaL2vMKoJib1OUF45wmYWsbeF1MILCO0rVJbSlOad9WaXYzFZBlhWbl5J2fDAVBBQ75ky9q52Gd8X92viKGCJW9Hcbq90hPf00RuDKpTSkAGCJExO8AAzjsjKPyBgdswS54doxkplsGZC6hPsJWrbVnTNwKPvkZ9D0gly5uIAfd8b2POYjAHT8BsrEkHmuVv7EPQw5ld3KaSbbhZw7BB4w/ITPjjrCuFmIJ/UY4aPiRSio4v9Bx4Cyzy4/h0DUf0DC+gEQDo9LB98NGgRJdB7ZOhHxu6142mo2pLzq5TMRov8M+/9ioAqrKit5dr26lJeP9RYeYepMb8lvfLCEBECckr5A+nZzu35/G6wNuoLy72BtFHMcHnDSX59VF7vfBpjoZvyZ7aAfWEiyqLI4GSZe7AGWFeo2kK4FsgpohKlKIfwEZZ5gLGszICNYBEIm+m8hcVjKEGRfD6CL9hXxTzXTXv7dGm5nXDVkAAHIypeKcx2Qrr4sM9vFvwIQC01Fj7TF8afR/8/dq+uJKvwikqRFKn9RTFkFe0UEzJcBTO+DxskcOrMkaT/MQwdAhTAZRBrdSsBWKObSjzDnd9R3bAJOOwWlpcapQmQt7nD///dUYLYctD8QygAMjjFGlbZBwZM1x+hJO38w64JXWo6rVllwL9Cc0szbVkkxWqBY3+q4sktONDXHcXPiXSdPHT6byJU2jcdkhRKZvSxCStEJ4hS7owApD2NtNzC4LX2gnWFV4TYmZsFbfe96TE7zWCodqga+6c+5rQ337qXMkXoUX5cHpJZP2jvCMNuiFO/6auRNl5idTMBqWfFVnToXPlUaQc2BN1GSMJgCtm+3cxePQEeobXWBf2QxFn6A/CpxDhhuk5RWm8+/0wbbjssCMSB6LsIryG7tbfVUurBWLvApdqQ57hBbblVPFXYkkzBcSIj/y0bhY4k/+YSReORPwJKguIwuj2u8SfW/ejdl8FFqyjg7Nh734hIKQb3WV/qUBqfcotxo585dRzyxOCOwqhIi7abTc7eUXjoKAISQw3tYSt7zDNEpN5QtFK86IQG5LlAXhfIWFhgsQiBBATn1iw26tohLy9FUIxpkpUx16wRiDWyidd3PY5xo2oH9IxSpNVhwzyTidc8tnLHuJGAS/l/1WlFJm7akyX/Z9nyh5aM3KZka48BuPA9qP6q9hdfzzYXoP2/KRotw5780QqzY05uJCgohmVX9de825Eu9d2B+AoRYrq7wcOyw9a+tJolTF4tpodYN+zYt+CDaCDi69lhmjoUtgQb8XPnf6P42f3Ky2YdMJG2nnkU12nDfb5NNqnpfJ2ofrQL6hAzRYy1W5C3GIdfgBHNsWkfyVCc2nSvaLHQplaX1kuuY6XWiCyCT4G/39eiH6zI41005V2cA4N78nP98QQE5O3MKYUHZF6D1QQXNYATI0Xs1hIaqvXIRlOlc6PvPvDbrrI1hJqZYXphW46YgSGZOdKNm3ADCVRO6CsuZUYcY2JYdjueBzb4PSHjFvIm3ApR9pkz0l5WNQUUjJNK+pHThJlRJxgnAp1z3S5t4dYbDKESJb6eetJmW455DVtkfnpzYZe5ttESeKtXa09a8CEv+LX6ZyclOcO6FPNSJj3rfpC6JfSxDiAOzh5sRLvY4jxiOdqPlRtKpeuw4KbPn9GXvIMjbYa3iOI8DCEMaKUEv31Ja4WDN6jxHP4bC66wLDf/vwWJCFNzLSRqI245lBDu2UmOM5aw7lk1FgT27GjBXuxylRhLIPeS2Vl7OKA3ONsWbrMoEm3Eh3YwfpYeased/tRp7US70dNpOH12kVQHFv3vs/m8TVbjgQhe4s9lDIPPEVvPvW2Nbjh/F+v61ZztuXrVnO24yKbqrqxAQivf7skAZZPOTX+bk67Bvai5RO5fQxxKacYHPsQhWKcV6jzjFKxLlo+LU9xwEUpen3TknXkjEOJJq1A68w6manFL7DX2DIa7THrX/RUBE9iYnpVelb6nUV39TncOB3nHqn1Y3UwpcU+lAbm48IaE0bJ8rR2GX5ajhVIQAAAAAAPQl7+dS0u82MC+Xr0iLfXFwaRGYxFbKfIbr9ibRPVlIZZDEwA0k0SHpLWyE+uXGbJDz6HNuYrGLtRYWs64X3+2EQ/Mu1H6RzHN8epM3aMGBw4VUtF2Ag9zjORqc6A24RKcKgL0tDmGhntLsNWoQnekWwHsKMXkmOiYHFVAtRTlc4yIgvxrS21fgDo8gXuQCYN4V7tl+ZKccz/s9WIW4Qk/KHhjnGV6Iz9w3gDo1RwMAGLdPKGumEYfFbwShvAFz8p2dayQG0smLLOKz8fhhiIbgsm5jqg5ELefNouh6jXbkeLGx7hD7WuPIgOnJ2cH6JQcIeu3ikA4lPPyz3KtT3pGaps+P+tsBdzxbo/BkaMtZe/A4gAAAAANbty/eXZXoYA5JglGEOsDyXsJFVoA3Vu/DETu8YKKkSG+qjzs3yb4faa7GCWWZyy/QVdA9mQQX+JSvDI0J5N8bdiNuZ6d+EHdUoRUDXEFyjacyANoCK4a0R9mNFj/AO3C57DB3pgsU+RngWVjmzaPzRgHYlhgAAAAAAAAAAAAAAAAAAAAAAAAAAEVYSUa6AAAARXhpZgAASUkqAAgAAAAGABIBAwABAAAAAQAAABoBBQABAAAAVgAAABsBBQABAAAAXgAAACgBAwABAAAAAgAAABMCAwABAAAAAQAAAGmHBAABAAAAZgAAAAAAAABIAAAAAQAAAEgAAAABAAAABgAAkAcABAAAADAyMTABkQcABAAAAAECAwAAoAcABAAAADAxMDABoAMAAQAAAP//AAACoAQAAQAAAPMEAAADoAQAAQAAAHYDAAAAAAAA;clipPath=inset(56.67% 70.33% 24.76% 8.67%);" vertex="1" parent="1">
          <mxGeometry x="178.79999999999998" y="280" width="61.39" height="38" as="geometry" />
        </mxCell>
        <mxCell id="rLr-IdZesuFoyCVZBpzc-78" value="" style="shape=image;verticalLabelPosition=bottom;verticalAlign=top;imageAspect=0;aspect=fixed;image=data:image/webp,UklGRqzPAABXRUJQVlA4WAoAAAAYAAAA8gQAdQMAQUxQSKVMAAAB/yckSPD/eGtEpO45DtpGkqSk+LPump65B0BETABnJ2TN0wAM8AwEl4Wg9Mb2JChoA5UZcEu3KDhB5oKqyiLhNkkIAkOmBnQHCjhpVmaSi6CgoaqgoFQnBWcCVrpbVLDz9HCZhaa5zaXHTPc39xsBv5O19ARgxdEGqlTDhSpTlaN/n4dJ2IaqGo+JHUzUTZWHfn74/cCJgFyfbtk7w8uF74MB/3/XUaJdu4vtKnZ9NYy9Ehc7qLHvjoqxgj3iCnaDrmPXoGDB1VjH7lhYpawbK2IdFuyzGoQVWRiNAi7YJiLSy/d5ZjIp53/OueeGPC8R/acESZLYNqo+mCIM6mBKlABwZrZnn7QqSrJkK1aungt4eKvgC1kXIdcG68pgOmJHVJ1HRPSfFmy7cRvpYpbeFzqMZAgAH/DpAdu21W2jbVv3WktLsmRbtmU7ZpAtBcxxYmamgBlix07iUBkDk3KbtCnNlJMyM8Mzdsrchso4SWGgXDfU4Zlz23Tf9xLYlpaUbPNE9J8WJLt1W2mQl7i6DjayRAIEINqfXi2eVvrPTmXt3jc8OGr8tLlzp40f9eANvdeuptLjiqHPvDlhNrMnvPnM0Cv2rpqwy+Wjl1FCy0ZfvktVlI36PDmDUprxZJ+NqiCc/xVl6qvzq54c8Trl6vUjqhz0mwzLKVeT+1U1OeoNKtEbR1YxSEyiQk1KVC05egyVaszRVQpWfxoFenr16iQpWE7FSlUn3mPLslzFf9keVUg2fwU1emXzKsTnXI4iLe9XdaT+e1RpRn21getRqOurjCRQqUSVISQGpTq/qkhv1Kp3NYE4ihWvIia69FykmEU9qwccuFg1iw6sGia67DwL1frfztUCusxEuWZ2qRYmukxCvSZVC7gLAd1VJUx0uQ4JXVcdYE9EtGdVMNGl21IRlnWrCpCRIVMVTHR5Dhk9Vw3gJIR0UhUw0aUeKdVXARgnxbgqYKLLm2K8Gf7pxnKE1C1YE13q/BG2QE5bhH4GghQDgzXRBa/Z/Q8uFuTiasD9gL4bR7UOdPgdvCvIu+H/vqC6BWuiC4Bz/Ay2QVLbhHwukOSCgE10AfCAya+gvyjnh3wGSzI4aBNdAHxU6E9wiyiDQj5NkjQFbqILAKzwI3hSlCdDPm9JssPnJrrs/juA3/oZ0YBVmojAyZJ87HsTXU7fA2BHor/Al6J8GfKZI8lBH5zoIt8B4Jsm/++EYe4bZ69ZrcEnJ7qsA4Az/D8WwvynjqzO3PHNiS4t3wK4XfT3Ngqr1n89ZI8qzCY+OtEl+TkAu7L9vF3GXZ3tlL54ycaBlgfy2YkuvwPwt36/74H2v3c2BXqoM7ASAu27E11WAsBmPzAE+oQRFOiHq0sCKIluPrx3Kf4YwBMWPzDRbaOLOl1beW9jaqCknIEv9yGEPgRgX6VfWM5gtwv/wK2JasQQCCla5eNnis4FgOP8xKJVdTcfYUNmbmsMfJQm9fXxQF0HAVzvL5Ym1Q09A0a+vDg7sLGZ6vOjvme9DuCV9NBYgD5p3V4w8sZJUZ5e+fdRHzOkBRJdbgQwEQ+RwwwVXvktGHmk2/Mr/z7mwyQ1QaLLSQC4PlQOJrnoPjDy07VlHl/59xkfGa4REl1qvwK80CVUDhketuYlbnkMm9I8vfLvExaGoRUSXWY8DUzaJ2Qaw5h9/mdcx7rc6OGVf99M+T+DJblQcEHuBDg3dNr/qbnxEFv34I7msOr8u8tM9fzFqCUSXc5aDNwdPk2eSUueAiPf3hENp86/D1ysmn+WaItElz9mgTFbuTk7/085s5RaeUw4YzcY+fjRWQqdfx+sYFutkeiy5nPAzKNCqWHb+Vf8BSCkOv8+Xy03BWmPRJdrAK5wc2/MvRVznMg/7PnlIdX5d1Tt/+F5fNaoPRJdjv0BeMrJvTFHP1N76FdNcP6dyAMKHY8BwBbtkejS7T3gk93d2xtzIq/0vb76KoLzb78JyCdjWSVr8H6+MDgB4LW52iPR5X5gXh99vDFXtWNufEPZ27hVBOffsRyQjSt1L5v0OLPIM+2R6NK/IGJQI2/MVe2YlBJSVQTn334aIO0rev1/PKI+8fBYouZIdOk5BchsqJE35pZ2jLKUDMOcfx/Qt+bjRc/yKuFTVSsv/3UAE4OaI9FlgxeBqQdp5I25qh1zZIWJt0dVEZx/++k80OzLXMu/GABuNGiORJdBABdo5I25oB2jqrxKNcH5dzQL5BNiERtNnwP4rME5El1OmQs8qFEzlu3sGBVF9Ga2F9GrKjj/Thb8go5UFJe7YNEPLe7E5RpvBoAhzpHosutHwNg6fZqx7GvH7F1QKvlHlk3pKJXco8rg/DuaKQiJqfQN1YqjRod+ARi/l2c1WX7KewL4qbc+zViWtmNehMYqhPPvRMEv6KhXIc2Vv9S3fRkApwheWm7V98Q2WRAhoU8zlp3tmCOAzQx3/h1eop59r1JyEKl4164AgEcTvPQoBbR9++KI6cDf19amGcvOdsx4SAWq8++eYkdjCvYPULBv894A8PMSb/3S2H9VlegicfFpNPBFD12asexsx5wOP5ju/DukRD2rOfzKeip0MQBs13thknCfxqHIdwHLztGlGcvGdoznTYULDXf+HUqintXsITR7StT8BwCf1nvle28k1CS6SOmcpcBdmjRjWdaOKZaXNMlw599hJOpZ0eGXOiNnxlu88wqoMhBXkegiqB5fAKO30KMZyzZ2jCLW+hVOMtv5dxiJelZDSuW156UHALyS62XJQUTv4lFr/x2YfqQWzVgWsmNUXeZ5pyrg/NvvFDuq9vBLmVKeBICTvSuAr3uJ0OsAklo0Y1nEjlH9Nu9BJttgnhM6op6VkYWYp1CnA8Aj8V6UCOT0LwTf+yfgCR2asaxhx6i/Avi80YSWqGcl4YBqx2R5E8BPA14CdW8K6a+6scBHu8o3Y1nDjlHM3sCOwXunlNhRpXsKeIp1CQBsU7xmOKApLpsfBOaeKj+IZQk7RrlehXTwbtJI7KjiX9BRyKov8rMPwCd1XpIkpA0aoXyQeDOWDewYoYpTi/zg/USNxI6qJS5yxmlinp4Xekcy5gx2etBU4EVfuBnLBnaMiD6Fa4M3BLqO2FFDDr+GDwF4Jccb0mxQeZQNM8CUnrLNWBawY2Q4F6YHcKJbGbGjAlkRUinhKU8BwElekBxEDCsWI+qn79/4O0ZM38J5wVvOoJXYUbXhgDI6AwAejvN6pzHgGaQ+85DV9/Q7Ro6r4d8BXLSqiNhRqcOvmCek+W8B+LHf253HkPVM0u6fyPIj+46RZP35cGyoKk2q2hx0pbGjBp5xbgWAG3TTDYk3hczSU8FORbHmFb9ihHU3jA5ZBejVm4OuIHZULisi7wmqdT+Aj2u93WPZtMvoAFSaUVjJK0aa7YF9w9swQ6pGzSs3dtTQM85gZjR1gZcrWWXTXvIDUHndiLJfMfIaVvAue/gaTFK1OehyYkcFsyLkK8SNHAbw8p7WIgNxN5wxCCHxL+W9YjSgJ4XxAKFtyHBlDhhKxo4afcaZ+jQALrXZ57KpN2Y0lMS/lHzF6HNIf2fBSyeEGcNQaw66eOyo8WecZwIwylLXkDGNYEt0ExL/UuoVowknwG9dCvY7lNn/UWoOukjsqAXOOAveBn7sa62SVSYRdOUMlMS/FHvF6KMJxWylhjGTZ/Xq/PLOuKQwdtQSZ5xDARpXt1DJKsPCAYOvaJWQ+JciUc8aMQBajXP+7ZAkUKzmiDUush3zDfDlYVYqWWUOwV+a9HoUakHhK0YvzYIizrzClmHb41DL70mbnHGuV3D9aJCNwgEt3IxlQAUenaKeNeNG+MAw599ugdU1bnFPuySCnfs7MHaPgC5Z5QX/MENx44+kN14GR0l/jyol4SiLjThou5xx1r0OLL9EVWOtaUpWBelgklziXx4UD2yN5dU6/3YM7J5X2eaMswFg5ObqGmvNEQ4YtEOGU4l/2Q2ISuJn4Q1na6TKLyrJNolg+30K/NBHYWOtIUpWBa8xDCrxLyPhEeEY3HxUnfNv1wA39jwDcS1fdQ+tZonGWqOQDeCfPLmvLYcCW8iuSzpbU6SOGYY87ziPzQH/ObQD879349AcxM1Y5vYgvARcMKltGWXOv/vAs44ETyLY+s8UnHeobKxV888VxM1Y5n5O1Av8KE0W6Y51ztbgvGe1MKJEsH7zgObdLdBYa5MBnkvtZNg2eDTQJ8AJk5ccRFKN8+9KcK0JS5QItt1oYFmjwpy9evGSVYZuE4ADdNnI/MtJwEeT2FaG8+8SsVzNNAXiWvmfKRHsahTrV+Ffy0z8WBYMbr4geGaf7megZ9LafM/VZHu+E5STbf9pNmisFUOJFZQnAXNbbElev+Ei4MXJcn4k3W3xPcVTtz67WX54iJJVnh8v3D7fHI1l1Xlj1u1+8ipd8QAqJ6vNyTlflL/knWzcjbXGIGvq9rlUxOh2+ZLXYr0RuN9/avMGifKPrJPNrtYjf8kqP1Fk+04vXUXemK2PZcy/5AGYPRltcc/dINZdVGkiGH9F7ySkDdw+2759Zynxxqwn0c9VegK42tP9Yx6aPHfDWV2bqpMtwLktTZAwcHsrNDgf/fTMRuBfFi3d5qyhUlXaZ4DT+Zohbtb2zUnfEtPYkP2M9DeBszR0m7VSXlEnW4IzmHMQMWt7JT4pFvF18ExWyBzLOOFYCvzF021pL5wh6mQDUdqg6iFVVUBV6fbqqowUlABxWIT9wCrPulxy7etC2R1NJ5urnhqvklUaFFD1k522z0SVVhn53zaFuOod4Qxgrwfv6dVpXSjbRDMckEQ1l7yHVEnhjsq3V/p+0mx4T3/Ci38xHQEWeb4tjH0iSScbijZCaXeBYAFVP9Vp+6aoxOXVh7QnvfiXS4Exj400iq0LYSHQkuGAERSwNikpAaiygKrC7ZW01Hup7qQX/5IKoNhDXXHRdeE50S0KOSs+heLuApUFVMvaXi4ZiyM0J774lzuAOz0TDOtY62LcksWg2YoHyo+6C6JKUFlAVd32KnrUnrG11uQX/1IEIE2DthE63sTbITXuWUSNiGbmY+qLbi9rtvMneNvTWQWIf/k9cLmH2mKeS5Hi8WqqgjOKDJ0pRSCnnfmYeZ23Fx+ICbhfZwoQ/7IQOBKiPdtogugUZVM49x/nV7KqN6qVT2tht/Mq4CKN7zYg/mUPcKb2bEuRKtEMcRsmsDybxadfAdXl9/kaXXM4VN+7DYh/GQW+0J5tKRJicxAJMpKQtlgB1Q/guy20pQLxL38GhjVnW4qyJ4AXZHeaIGGxAqo7tsEYT1dVIP5lE/CW23+orHOtYylu97RsiiDbJANxmxVQPR64V1M6EP8S/k+g2U3DI+/M63R95T9cpS/IPlEOIlYroHo1MMDTUiWIf7kKeHIKt/2/hvn7MF3P7x4OBwyyEGjAcgVUm4BDtKQE8S+zAOS7MV0ose6lJWcT4ygO+uFwwABLdItC1nIFVFf5GL7ZzNNQBYh/KTzz8rt2/AL8+t6Ouy4/s3DKtL32YIFQhnLo7NMnSQZYOYMYNNuugOouv8LrnoYKL/4lbviu7+FMvrt7OM55W0r/5onSmr84aOWzFBJcRauS0GS9AqonAHd7gaHzrWD+ZdGLcFVePL4IfsE6E5onasoSStGk1YzgKk3aBCn7PTvXBUuP7MPMN/9yygcVFeL54BRt1qkcCr4oq5+h0By0Jm5mg6sAfQbiFjwGfhboFSRBgWabfzn9UyrVp6cXXFruWGdM80Q9mUozeLq4mQ2uYYZyELPglc7VWmDaxkFBM3xjsvmXB1GhBwvXNfvGNE/U1I9SZQ5aHzezlhlMUo2IDSdsYve58GpQkIPtzD3T3EtVY/mf7FXgvtuc5on+7ugflcaONbJNEVhDhkcgb8dpOTkZGBoQAOaaf+m/XN25/DxImfXuUEmmyBy0VkNSBJYxjChkLVlA9QagXyAQhZyk+RefG76OdYYZ8e3I1JuDljd4Flj2fxLQZMspdvo7cGAQEINmU2ODL0YttxvXPFFDJmEOWtAIALR0dDQVVCbPkpC25USKrfkZTNkoAEhCk6EZYGeiWmca1zxRP1a+Oejf5wiZg5buaMrExlqtSlbNwR6GJvacDy8FAClIl2n+ZYbuef7HoV7HmdY6TW02QTrzXUknDcFj2DYDcWvi9QHusAdqpxlsRycHUvqyqcT3z5xNDWuQqzYeh7+KYXBHU5cb3lhrDiJa31Gzm23SZ6feaQbPau95+zEk9JhhFVhrYwCMkMPQjqYiqSwK0fxEA3habyJnL8Dy/YzD5tqWAc7TmMOR0eGGNbvaGn+ErwXRt6MpBU6gyOvQWOuzAhB0/kR6/GECTN7AMHyubau8A5yqLx8J8ZFpLU23Zgtgc0nM6mjKT2TznbwtJnZU30iVWskqnUOgFdMWFsKLZuF0bVv/Y+DPthm6d6BhzRO1xnjhq2z15nQ05cc7rykcV1u6sVaBStM6J7oJ2mnAEJPwurZt+SUsPEhTJoox0bDpiWiNe2CQ/Qph+bFM0TWmN0WahrR9fFmpONo9yxjsrm07TYefolqyD3Lax6xJKGmN02G0KRFTveXWNOXp5Jui8+VzoxtrzUBce/d9kt1qL93HdHRPM9i7Db7ZTkfuEOQOw6YapzR2gJ9sFpjnx9Kd16SKHkUY3VhrDmI6eywVZZ2JMGk9u4cDVnS6vQQmbqYh0wSZZtqEMpVmP8IOZaKlEQC5NdlSa9Q01ipNRGsnzaK29xIYZTy6IkOOAz7ooh0HI6mDzWqeqDVeh9PtlGQbS+fKXmN2Y60RyGvtl146S/VWzXG+tp0OjNGOgaIMNMuXbmsMgrSFSqnEOgc659rX2EVRyBrWFYdKjYnZgDGz12IYct4fDY+d7xblbrPch7fGsfC+bQrmRTuvyaej9vEVkoCMxXofUjd7LYairP33Sg2Ps0aIMtKsHhNaY3NYWAYa/zRRuqZJxzUqlabt1+GalWZNQV1kSEo/B5MfivJhOdfCfT8SiUZjsXg8kUgmk6l0Ot3UlGlubs5mc7n8ctlOYlqzVuhRGmPPGf0iazIxW/lGaoKE3fqYVDh7LYahLzLkbu3CvKeL8mPhD9JMxw/SbC6fV5GT6eIML+tNdjPfGfCTRRI74hbzyZWBuAULqFpoBmQMRIY8Clyr1XVLa+p7bVwJT5SBzvEfKhJ3feu9b2lIAVWLGhM2DQdUoeeBSzRihijlHE22b5DLZbPNzZlMU1P7sWeqfatEIh6PxaLRaMR/z8E38Q6BL8rAsChfP95cIpHNagA2LKC6uY1mM8tA+++rwDl2WP1FqR+kvh9GPpHXBVi3NCblcvmxpmJr7Pi+pTHmY7xqTES4nV+jGThRn9RAUUYY1jxRchNU66N1xn7ZibtGBf6ZiJT0f1JbQNVa9EyM2/kN/w0cZYV4QIdMdFMvtX2VUQbzyk3cten7lsqWDCzVrICq6F1t7yS389v8F34/wAZZH2GhnIGCsPmRJtoILZm4axQmIiVTQELdtTzv6bUEuZ33dvseZu1ugdxes4pW9cZe8E1ptK6xbmoim91p6HEgrayAqv30WgBv51W6C/0NpkZMr+DyjWGlSYuz+bBFSfQeSSdWNJEtsC63RvKQ8VXF5flPrwXwdl5pngvweVfT6/SZ1TyRy/Ev9deSvpSNiq8kcTfIc0u/GXK+ogKqCNNr4QsHVG7b9F9rGl6N2X2HGRJ6MHaLYuaIsrhwsgL0XWNQskrd3JzENMyxFc4pdmAavSSvs4DXzB5zw6zBJJ2O0+ANg5jXvsbgRDYXkZJJIKljAVXhyjF8t/NqdREw3OiR1cwaMtzp2B5+NujOFLWJbNAlq6J5aCq7gOqPLJsiV0BVuT4gGYBIhzGPGzx+rmHGMNxOP8COJm2iTtglq/xsRY7UX4QHPH31ps2+FabVK+W/FbjHXJcEZtn/cTxegzNKYQEjAOQlq5oqs+56FCzeUA7lsz7UmXYvyeteYJCpXljMap7I9UjBveZOrkCecMAkFf48/hiukUP5RDfCcED1RwJXGep4yqzmiVyPY+ADi0yhBb0TP5qv9KT7XMjJoXxuL1s4oFg5gguM9LVnlmFb52MzWFQKrY0AWB0U4Ocqby1nBpylkPwfDBmxigujgTMMdC/q0La8tUns2Tu4DmTM5teQUeDB/wZ4X1P62+yQfxq+Uv61xwPHm3aF4mLPc9vmCyTlz11ok8tV5E78pIpznU2Ww2F6coulLuxO25fktckEWKbBl/d6lP/4M6fFFifkCngyqN6UNBMhHy/YqGI9rNQ9Zf7H95ItedW1wq/7yP9u/VBhvxn9PR3UI6useSI35GCYaEzoWaCFA0byarqOiAI7KSN+kGZU9D2mPX+AGbtIk4ZZivhsL69QhrTL54j8AVjPJgkGaE58FUUMFOgVwRBdZW3M2kzbV8rfcz58tbUGwVCqekfTRYqaJ3JHfQ6H2iSNlNqJn4Z8XFUo0rx1hVBWQI8WDiioPwGfbiB/CVNRh5DaSE3zRA7Jo9Bgk2Ih0E78hEJr7J/BlY5ECtLi7bO9u5pwd6/5wj5wK+LjU7wScusG5+WjkUYFYUk4hf52Ky5ioDCMZaoj3cmID4R0LvCS9Awzqej2u7RcZBobyBzUJhX+DaSSVX5W6Rw7zYa+brRJs3x6w2XAME3O57c8Z9jskvzw3DlbepqpdPNEny9ZPq/zZIW4qObBlgZ0NGV74tBcaTVSpbnRzW70iXIQ0SGi72HZVjfLmLmLL2Yzu9PMXeivSM5xp6prLBxvxCBewfW5kop73NkSOMiJQqC16JT/dmCopoNKGbLk457D8jeRMdd7i6Q+BlXJqmhe9QX+J2CYCyW6RSGnSYPyN0ke3IbZxesrY3v1M7X8cr71yUC8smqkyoexqQvMcgbT/w1segYYKDjCisH4WeddvO3gF/UklVZSBHhtN0OR6m93XLmeZzMCDf2/AXd6ShS+xkRSF4M7LwJ/EXtkWFtUvnu5s/Lfvnl4TJ0RgOOnGFJ6wlTzbBKBi01xmLOWEmxqTNCGA8q4QO4rNdxAuF28VwWu8mUg56s0AnBnQYT8oXZE9TiQsY6NREYrvEwJuDUmCP8LOAWIuiIuqOKZcEA9WPcj4Bghp6rmLh3nKwnPebkZ7lP/yzcfU2sE4IBxAPeurTVmmmdLFDEQOBRU5T2TtcYEkXSKTiKCIMqKIhOqiKLoRIFXgDgQdYriUI3TTfREOKAuv4T+A4sOVk8zxMPt4tXDh+ooMus4yo0AXLkEyPWxIqp+hRR5WUi8objaL3Cykm8d0hoTZBwHhmOCZdL/C+6IC1NI2n58VRJlFAWHAl82RBsl5k6PV1OVhNYJvJRlMYjTZqZ2h2/h5z+KPNLgBRdevE1hsdpvh2bI+uqNAGz/D4Dnt9EWT82zKbGLPbfB254KkdaYqACwsyDJKI4DKLObpQ0AtuXF6MlaqsDcWD0hEwBKHSqRBwCckGmR3Q8H1Kjf4V/g2x0EQnNC7uJ5U2EfxT+J8lERIwBn/Q+Yd6mmeGqeTQApuViWA1TgUWNCiTfaMszSDgCdBdG6jQ5urk8zilSBexvSTaIIAB0OlQjV7dyqBIWY87PukMUwaXP1k0kUdhfvebhIIbE8JIU6mlq/EeAdLUvKemqenfU7NAnGqT3tKRBpjQnpORze2upgENhBsX+Jb0+mUAU2MGwCHmdYeADvjbpNTLOfdccAH66r/JHmLinPkRkIT6l97z4jeHFuAsAtViOBQklmXx6gKPSYtMaEaEwqqC5INIqyJauSbkih6aVVeTMU4lCgpIrZ0MfkVTEbckRGZaXbG0ndfGf3Vf4GUQYSYXcRyj162qWlJ9NqEMDEP9uL40w5OnsHhqjAojUmiBwckzjDsYtosCTQuRGimOMSOjZp34Etti7YZNUum2xdsMmqa2201dbtmygPBxQ4rvFFxVvGTV3SnjNjABDqyfsbJ4UNk74F8IhvClhlGk6Bn1ezxJNm/AuZdnh3BWqvYWDkI/2mgsWhtcdzdzn08zpYzLp4LjDrHG2g1jz7ldqrtp7eTR+4hkAbGI93E/CAUkNv4XcRtgHrPUQT5DU4MNx6GMA/d9AAcjdcslhzMwHZfIEN4vHuAm5XaejNPNx7EUaBhz11Luvya/+Ub4BlV4mD/rB17d9AywLm9TNVzl6L3QD0PJzgOoWPdNSFeNoEmeLkAF97hEhen2+INe8BeL+nMOwhdXcVnUOIYGykygohyMOAS9WQgbiLLtZ92D+T+pU3A4PU4dwygR3UmcwoECuLrGrzGF/0OuASRZriPxwB4j3yHNSqKvYhHwMMXVUS+MSJ7QAt++9W2PSB5YjpGoL8MnCundLcUh2LH3isB7A5yigSAC/FhMhkHEB7hF4U7gfQTmMH1gDYQlUSJgDQuILJRY/r1Ekg5mmkawH+e4Ig9Omxzxc1F+seTZEmoUlLVnsPOFnRMHq+gy7CBgBX5MXoRQA7C5NNImV5RoRMxvnUx/UOtlOVCLi0yCnNZcBmD7VpNnBewdnf05tJYf0iKAdr5g5G9ey12I+UtqeXfgtwtH0emQSaAnAhfCaQdBNw9YKsMJmm//RWxCtqeUC2L/DNhrbMMEktR2gq0wOMe6qKgWY67ycgP0AI+5e6+1fxE9tAbHDeDlkXW38F83oqeaSJSwCii5rf0U8x2Rr7KEp8ZR+DEl/R10eRzBlt/QzGtPr+KY8VmPBIFYOYp502fgJg9B4V13+fXdbcU9i/oPFpMMvTQepnr8VMbFImb5eZMHtPFRPM5KCLIPDJj6I+Lr+qKNkk0ozHCseGSuojmzBJN1TSIoUpLd8Csz1RnE/P1LLJADcIzD1FEAxb0arfsGbl1phYyM/FZq/FCpj+vsW+c6C1m00emaSgum0gwic/EskUnRgbIhOa8RgfoVdLfWQTJukuKmmRU5sngSF3qxho/C1xG0DL4cpPCYNgcLK/wr9NeS1HPNsK8PTV4csgu0nlj3TRRS35kYjqWZGiwCugkjCpmhY5tTkHuNoTVQx01X5jAe7vot/cU+DJDV9vAdTrSulRQSyAVSqDHg+MW7tS5z9mLdkii4uEQE9xmoE33a9ioHXVrEXAd6dpF97B11RCGl7WlwpHBbF9OKCG5u7RlhhIMpkvWJxdUcC/iLvF+TTPuBgJMHxbhXNPEQx2UnYGumuOnykvF9uS4YBa60JgRIX/6nC8CMJnQIE7bSa8Ys+YASy4TGWqViCYhhoJjTqg3GKkNcMB9dZVwBOVOf8xhITzL8I9wPHuVjHQXus+CPCFyrmnSCAN73BYvrHeL2arlPe1TDHkW4B7K3pkyFxkziMixlx6P/Jz1OrXBAJAP4AbdCaS7zg3tAFWGr02DdxaySND8iKUAR+6V8XAlENc1XNPEYCzYYY0CryCWw6Tf9g9ATQY7fwn1rFEPKemHJuC3wP/dXWZgskK1gGUUA+gefZbOFccJRYjrRwOaICGAxeV/TZ1yF3ihu/6Hs7ku7uH4zzZZj97Coof8qAs1/E/s2yGtrZckwXxTLbA3AG7K8ufnAOLysqfTJrxKovmIefci1LL0aJVDEywvkzxCzGJr47aMvZZ++M7ifzJJkiE2KX7dbcC717v5ntb0dMyIwzOQ4RAm0vsr8xipN0wJiBPff5kM8TD6qKufZBoXjS+wow2NoAT3fpNruQ33OR+UlRmMdIBwgFV50/mIGLCko+6+KKsSSS/WTZRyoxmhRjKGUi1yzQpIUNFb3U5QTig2vzJKORC6rLXJ6jRJ3ulhL8tDGlJjaBoFVFTdDFLb6TzKa3K/Mk4NIfTpb/Chi/nyb7baErjkailSXtkUfIVz/bQpYiBldH4lFZh/uSNkNY8CO0nWDqho2cNx+Z6FKqSWtw2sRwL8BdnaXC4qMVIewOY7GNrPiRMCkJzZy5GLX8t+8mwibFs/9tboDbWU5b3dR2FnOE+tmJaoaD/NEfCW7xFB1ZpH8DfiSk6rARNihi4Qzhgb9TyF9OC0FwIr/NGbDA8qHV/VC07kg49ihgEVzggattfanrJdR5Qx+1iNPYVxoDEAxerZtGBOhQxIA8HND9/0rggNMeBdahCRsP9MU870R0v0cwu8kUM0MMBzc+fNDAIzWXgGJ2Vbdr69N6U0kPEEi9iwB4OaIH8SfOC0Pq7CyADUrNN88bemme1R8UmXcSAPRzQBvmT5gWhXeey/rulNLAU1mnRndDBnpEhI1fEgB7AFvmT0+6d/HFWJooxsRTWmYgFQM2zJyGkk0SLGMCHA9ohf9LEIDRHZR/ktI/dANQ8O06KcZJFDOjDAe2QP2liENqxbsodgtxhuTtaVj9DQ8+z3ViOkLrJFTHADwe0RP6kgUFov27qpEwTZFopAm3uKbQcwHcgcpdu5YoY4IcDWiJ/0sggNBflYCR1cAlsM/cUfJpnx8kxTqyIAX84oCXyJ80MQnNQBooyMBBDoD1PUzMu3RBUN6EiBgHCAW2RPzktg9AclLtFudtqiW54mmcvkOQCmSIGCcIBbTGlGdMzCM09GSHKyJIE0txT6Gusb7Akg5UXMYgAYI2Ja5meQWjuyYeClNMOuFXmnoJP82yTJE0iRQwShANa49L0NA1Cc06mizKjNEE19xTl97f7OzlBz7NvSfKWRBGDCOGA1ghAmKZBaM4JsiqNteeeQq4hFlGfPpMlmSxQxCBDOKA1wkynaRCaczJDlOk2G2bIw54FLjcxo2WOQBGDJsIB/XiqeakoC77d+8zNFx7XXpSsTK8gtFCxOrgGk1RakKCfiagvYlBCOKAfbd82j7gWQkV+eG/sti0ndpVag6ZDEJprMlKUERYbMtyFVd4BTjXwjvIiBgWEA/qxZDqbRw+1wSX5+cNn79x6Sm+FLXjqBqE5GbofAhYzhmFj638C/Nm8TWSKGISYapXMCXSyufi2+eZ08kNR3oyft2D1eduf3PXn/7g48P/0hXsuP32gepZ5qgWhORQON/r2sv9jZFtNhgW9PM+wTxRMRQxe2E2N4Al0LpOKRbX6RDF5LSvOuu7RN7928cYpR/7wygO/W7+0LiNiajiunAcvd661TJ5Z2c7T4cfuEgyW5FYlLed7FTHwCzYXOIHOZzOpqK9zCHRUduPIxqsfem3/X+GS/O2L1x++5jfLfpzkIDTX1DRBvinvZxnD7Cm8bJ88fF3XgUGJbsFVxECimxo/nsyUPoGO+gYlukVk1A2t++39L39+GFNMHAWW0Ez/g07d7NClMGGTAowpZ2CdIgaehSOUnEDnO06gDc6fNM+qHjj98nte+OTAlGC6o0CSgIMyewqndRm/dsHeGlK0KtiKGLywm5rKT6Bjvj3yJ022it5Ttt55QIM2k6RZJ549xRnAG51AKE365T+3IVN4F4H1Y+WdQOucP2lsEJqjwFNMx7j+u6ddAIw05263gCtiUK+wm5pLyjuB9k3Pn9TY8YAoJRMjz57iqqLFPfSPGTK0iAHSG4nSJ9Am509q9awPoMLYQPXfnZpwkj9M0tQiBjDu4tIn0IbmT2r/3F6Y408yz57inqKBeuJHhhtbxIApKGDpNVHfsPxJc4PQQpHjqcyzp3i8aBNO2sIwbFPEwF+FlIH5k9O0Tl8o8rWHNHsKsyacpOX/GFzEgCrBx8D8ST+iGjOOYIWgnnuKZwAMFaKvybPvu1ixiIHZpz+//MlzOHMDSJZMQM89hf4VtQudrlYeFx9oxyIGbm9y7fInz+FkNT/xWecLXkBSVpp7isi9wPLCN9ANNWzr52xRjdTsUYZd/qTn+bnuSvwdhRYDn8Jl3iBuzE7HUal/AHP2LdhTTW1527WIgVHAiln+ZJhxSfBU4bjvFLGndTqkjr4ol8tKx1HZ38HMgqYe9Wy+wMZFDDzCks3yJ830wuKwZCGuzC707QDWTXHAc7lK5sFXW3fsqY4ttli8iAFX8ln9TIX5k0YHobkseYioM4X/4JT/J+i5XEcDLYp/C/TIKlnDxB7WL2KgXGLAIn/S7CA0h+N1Q1I75YOK+PiUonEgy6Yy7LlcJwPvreZ5+rXLZ74jAjJBDFb5k2HLvehLhqSmssEj5UUAPVO3V6DP5TqXwnn00aop0skJGzgiQJM9Y5Q/Gb48Kr9ySGpbnjNsdkl+eK5UG29hO6f0YlLxQ0AuA4Yp39d+kythSj+LOSKgUCEFmz95vVKu99yWDMTLadZyNrO/KHfmLuI/BP5VPW3/QvmoBdMXHvY0anDeZo4IMFRI+eRPukW/GZmVw9m+BA4WTkdSVszluh0Yqs00NtjDEQGaUFWb/Enjugr6bC+rLalldOV+D3yT6Vtin9WaA7tRcLJCps2dO63zZIUEpiOCN0X5ppU/OYf55edPhsze0TyhFs5LjgD7rNM09tmCekafnEx7OCLIKTr/Ryi7pLd5HUK6L0mZY7b6/wLvzZhiBAkB+ads77BWaq8gZ2shk6C7p70UBqG58JYCWgTgzZCpRJYQkLeBPob8+sl1bOSOvAPlFrl1jW6/k+ueHgDwnDhlSBMCst5HkmbTZNorcMY7zxsRdqwgCM090WzGwEYBPDlFCBQCsuV/YOFBJr1zHuSbyL1/udLTXhUHobkyMchK7fHJAO4TBG1iOe70HfwUFcJK7RXE7KbmWrjTs4IceUvJ703cMtnkCgHp0Qa57aRRWsQgwEOgtegHTzsPDShivQjA1YKgTSzH2BKYuJkIAdxeQX97dFNzDLwRkslBTHjo2Et8TeyzVpGiD7pIYKX2CmJ2U7MPfBaO8QHRY5TtAM72ibHPjz1KHyOBldoriNlNzTYwMxwThaz0CDHM/Jo2sRwHAKP0/XYxK/Y5Zjc1a8GS0LxlkwY5DmsEQZtYjlcCT6n/9WOl9gpydlOTh66hmCYNzsvGACwVNIrlmALuU46V2ivI2U3NFNg1FJPV4D3YoFcBdAoaxXK8Gxii66+fhGcQObupGQexUExeh+G3I/cAaNYq2auPAdfoR8y4jXJ2UzMK+oTlLXV4i+1T4O8VgqOcOb4AXGz9IgY5u6l5EC4LwyQ0yRyY/Ufg53mukr36qppLrLabq4Gc3dTcBIPDMGldTs3yfwL+tIu2sc/0rDkWOMHyRQxydlMzAB4PxWlu2rxsK/4GTNlW19hnfOv6GXCERsQxb6Og3dTE4RXnoYshITQBfL6xo2SvJn8OHCr05t1P0G5qDoSPw/GWeU8XdQDGd3GU7NXMb4FvMnxmEQMXFVLHa9vDeS4EE9eqY/4h4E1XyV4tPgJ8ljRtup+QzRd8cYCeVbRhfkgu0qdZLus/HSV7VWgAsDvcV3Y/Fiqk0Pbp/x3WD8lbaqQrgGGuEvTWCeBF2Ud2PxYqpM5bDLywgYZ8DTuEX3K6WZ+9AXhUq+zVwDldfNJHFjHwUCG1+3jg66P04yPoGYaL9OU1tEWRdpWgtxMA3OMjux8TFVJ/Q8sKkS/BiYZS9xFDmuk+YHDgxT4/ekLJdt9YxMBFhdSpvwCvbq0Zj8KF4XhL3fQEcJ2rBL1tAXC5T9zJRoXUtqOBH0/Si1vh5tA8xJB2Ay9zuasEvV0D4FxfWMTASIVUCmCobhc9GsPvlnpeqHsZON9Vgt5uB3CaTyli4DHVqtkVuZD687fAWJ1yyk+BF0PxEEMasurbwOmuEvT2sIe6od3OGDDgggsvvOjwjUsXMXAPdR0BLEjowyEwPhQX6dNR634IxF3lWtk4gD73/ugDGj9cQBF99+rg4w0qYsB9rolOZ8E7w9SwSxKaPC212QTgyCC4VqZ7GWp1vb7VeWMpR98N2aVzEQM3Ua9JwGf76nLtEn4NwUMMpTTuKmpeT0cJeov5APhnpYsJwI1zKVvvfVVQxMBVtOaTAJd4emgR/CG00qNTp43kOq5J61hHeffv4ceo2Nw68V7HUxFcsn0F/DzXBZLvQ4X6zWkGwOm/DHhuXS2YDhFHIdUgmzTTvr/CtzvKPxUBpbk/A1/ZnPs2/g43xXUC1aIfAlMP14F/w74hBE61+Ycuhi+30qCR72BS5T+AD2Kc1MR8GZ6QCW7TL+K9ANdqwOtwnJuQbJBN2vlH4tMNdXgqAkltAN4wTcLKKJa6zU+B034FXtpCnKfgLyEE0s6RTgXGrqXFpFwEkfoAjE/CbcVcZ3TX7d4CZh1fgGDvC23wc2HvC25BzkE26VKT4HU9noog0koAD3NshSflXM9pdCvAbe1o0+GMq5Jumj0XA6M0mWCfANJpAG5nuAHQjh/HzQTe3UGnPrZcgYSDbKrXbVKOntbkqQggnQvgmsl410J+6+Y5jTZ9EZh7pvJuBSs5w5ncLwxA2dF5qYzURk2eigDS5Yz11wMPiwMN8NoA8IBOPalOSoQ3jkOtensaaSjwN02eigDSdgCXHdCe719H7Cvg0z/q1Xl0IFLmecwPAYM0GSI6gHQPJkmcp3vEPxT8+LxQWX/5y1GgbI9gJ+kgmzRLIOZqTZ6KQPbkJDHCcx5dVHBQuLZWswgRhLSprWYkcIkWdm8C6Sr/fyZt+e3Oox6fApMP0WquSIKQNhV0vQb008LUV86jEw3M8k1V6p8GrWYEJwgpUyfhGu8BfbSwbpjH23VgsvjWcyGd9Tvwj010mvelAKRNNaz+J8BxOhh0jcMGTJq4UauwO74LzDhWn9n9WnRgANKm5uktJ8HSwxSWIg3fTB6jPDfS7QC36jOHczO7BCBtKtvf/huYs78GZvvDcAByfOU5kuKzgDfryuMuBHRXENJm/yLdZ8OsPTRoqSSNagJBreVMr7mXgF9PK2sqwBDRngFInV0qHTAXWreTfyqyMEYShwrKvY4yR6TLyJAJQtrsRc47YhlM3Fz8qYjCKgslOdtzJx0+Ffiwe2nHbUI6KQgpoONMRUWuH60v/lRkkV4kyVDPobTeMGBZ/1LdA0kxLixxfkm84z5PA95dTfqpSMI55eOecxZzKcATaxSNRmU5QuoWkhgk3D26nJ0HvCL9VETJQBXEvaYeYN/PgEm9ijAQpBgYiMSfEYLowMmGCz8VSbhKlJs819LDAFcUvR9u774pyjfVRIeZsk9FC/f9V3rOpcQCYMRGne4DTnM3/LxfZI+CkX0qkvA3UQZ47qVd/wV8+6cOLpDkgoAk+1SHRDujFeZHEh4S5TTPxTS0c/GbwZIMrtLgPeIMXCjKVp6T6eQfgdHbek2SNIXhO6I2zRXuHCzJRM/R9H+vAb+c8pYkb4XgTZCWIgkbSfKA52y6kY4PJJkcgj8R01Ikse8EOdlzNx39jfQl7FCEleKN3SEE2ntdkI09h5P/AkvCLtJZZUhLEYXL5XjWczudNjXk3hGvHYC0FFkS7ZcKlqxyPIXcTcQrRDEtRRZ7XIqRnuMRcj+RleqAukVpUu9AKXo5H4MluTX0oEG1d6alCGMfyPCq53SE3UQ3Dcb04VqK9KX6ftvB6Qi75Qx0GLkRaSkqcGed7jmcQm/RKh3G52Zaijysn1PPPZ7DEXpLk2rhwgJpKSJN6MPNj2+6hdP7WnjtYVqKSJZWTKvDTetd+B1mSAtHZUxLEcqeUsrn23rOhvsMJtnBIJuYliKVPagyANz3XE0heMhwK7mjdRXDtsr7zfjnqp6r4UbGMPK7539hWopkdrMihnjOphBs/0ePTgeYliKbHfKhAt7Zx3NLusxUz/ddvPCl+hnqvqe+Ii1FwDYpllXI75d4ziZ9rDwuDjFWHjW6lmJaioBme9gdfrxrK8/Z1JFg2wIG2cS0FCEtYcN/yuT1vp676YxleSt0IMq0FEHtsKf+W4q2d29xuuoFJTVfkH+QTUxLkdbW7XnhI/8aO7b5vfdeueXEOs/tdMYttjzfTTzTUlwuy3/HIy1MDLaC/+EH2cS0FDfHamqXL/kgm5iW4u6YUlOkkxNeLZqWf+wOU/p5tVKSanC+VkpSY2yomdLTwwqZNnfutE6TFVKLp5X+M/+Z/6z0n/nP/OeuQ4jIyyqr1MQR2bplfAIAvnj24U2LYxVZJEevBjKEEL+AtBucv+pRs1EmR5NI69+2AwCw99mbNtXqdZJItD6WzYBTbrbHBh9F+igfhzMZDTVIRNuTuw8M31xxfE/3GezT4vzqzGh94ARCiKaxFdPGAacclxZllDQ9/RNguHfpUF9HW3PTA5Qz2gvjDSQg43ymtqJGOa33XLS8p3vLuwy9pfZwHdHwtAIM20eHuxtLcufMaQPww2hXYZwX5Eycz7eGaA1bkfNVHblseLB3cWtT8x8A/DDUkhOlaHhyJlj+b/VIR2VmYmRYWLSDncsXz41SAiBYtgBOuSktKkjSIp/njw511BZmz8nY6ODl5QtyInUanl1g+Pq45Z1l9iiTIssGALcONs8Jl73j5xk4n7+98sTe3jN3MJxbpi1sxX6wXLt66YKSmfGWsPCFAO4aaZ4TpuHP6vVg2bKqt8puYWwhyZRcsmhxhTVY0iKU4h27f3ior72tueVByultmsJWtHJHZmzt8MKC1PAgnSzXOjhroCZNw5/VaRMsr64dasyMMojMvJ8+anZxcUa0XvSSnIDzeeXSjrrC7NkZCwD8sGJhjkWnHRgDw4/rVnQUp5oVkQ5kQu01HQsK44NEzQ7v9D5vRXtBgkkSGCRTdGJStCngEQ6Yy/XSv3fYisUz4yLMYTMA7FzWMidM0hyd0W2r+6vt4eyYWwyKyykrtEcomv2sjgQ3cb92SY09jB8UEFlvNOoDHp/Cbs75vHZkYUFKeJBOYpzPty+pTQsWNQP7uO/HjbTmRBvYo0F0IbHJCZYgSdDqrOG4YbR9XqxBVE9DJF7z8wCcz6MdxSmhOtZWtNV2LiqKDyJa4/t9q3rKklV8hqJsMAYpEtH6I4Rfjxuqn2n21sPJ+p3PrzhsRVuYjrcVc8uK7BE6zcADHOtGWrIi1Qxoou0rJKWB23tVd3GC1/bj1u98PpfainrOVpRDYpITLAZRc3irVveVp5gkvyG6geP65W3ZFh3RSPTxaaSnNFnlMkI0hq3Yz++9YlFetEL8jSHC2sGa9BApsPJ9Dd9JL2vNtOiIE+ez9jirz1xabzdLfgP7uddItbq7mIlPIqKqkIDIo/y6pr8i2SRqnrO6tzTRf/BWEbA8vmIhTTUsg5o8bDLIxElJejGwUJw+Ddzeo4vyohSicY7N4/yxIX7BuVvOW0XDjTPNkrBGla0pM0wyWQ9X5KTp7iQ6DefzdQ5bMVTSOmf1lcONs8ySoH4On2TUe/zc1Y5haxUcZy+pSjGJglhzgOeq2uKZFoU84BK9CeF60f9nG8ea3lINE2GwnuOMgUp6Vqufw72JliCJTFZV5zqNN9RZz7G6p5iWIRWDLuJ4cKirNiNSEfcDhy6srbqL8llD7QmHHFTnJ4fIxN+H8O6x0cV5UTrNYitu4FI+VncXxRkIkU7iOXxa1bxUs8xBPOivT2Ou1knxEZMUfdTGB8PKjnw6eU+U8/kOcVl7cWqoHA3g/J6O5s8A4MmB9sZ7gf09tTPNAQD4d6BppHGWY9uJ85naihrh2IyrdkcKIXLIy/xb6rNkcXl6GEsLAJiCdM5+IC5dfSO3gJHS/JRQDXfeE46PR7miG9JZXJDXmoHaWRa92Ao80d3bXMyWnBxqLToReG6A8Rr5+1Tw/2VJZYpRdOZ8praituCVFa0ZtOKlGPQilwy9ZmlrfjwXQ3m9g/dT48yKOgCMBll0ZglyWTborJ8TodNwLOFwPBmYQoniDn5ua/G82CCRjj6XdrYW9DBc2Fdhawe291SlBosBAzZ1F8bqCZHq1JzP1fOtZpWyGMwoyXezQ2UEPpOOTYj8nFqmr8qx2Qfg8cq8BJPobOyeGOPEa9W/D+AY1nbZCqSSY3nzLGbASCZYrnDMbYXJhFz8/I11LSXW05jIr5Xt+bGNwJkLihKC/P/tDfyb9bI4L1LnIPhi3vk82F5hC2OxANTJrxN9Nts5ltaxJW1EfuZ4pCWTz/QtZ+y2zkpriOSMwuzYIDVageeHM59jWLFQ2yVozeBG+MuaZ4bSJ0MunwQyUEnjWonOMru0ZFbkw5SPlrdlRARZ5lTWZEfr/X82cs7nFW2MWSIaLuQ4fbgtP94oqQXQzKW2oo8/OI8NVqeanJ7VqXw5l3HKOQM16aEyITyig5YKq+qAkzy4PCW3lL12j2o8pL1ghP+ynrv0ruqidpJAZHPSbNsM034AeHRpvS1UCUnKykkxywEDPl7WZA9hbMVzOOezw1ZM5Z36NwD4S1VevFH01SzkKrcuqUoxUtZwB2tVV0GsgXBTv7ysCtZLRJWOOluIKvpI+9yCqzUh4jDL79oYx24ktz0+yiSB0FGDOTLcGAvKNQMVyUZZb46JCQsAhAOSIQ6HrciMgcRnuZHUspZMCzOa5J7Fb3RXWYN9NjEsHy3hvoxzZzVvEedAVeoSIwySKl0NdnWUsMQ06xZNCIn7kuGrxXOj9UQl/fr6kaZZZpnqJekUnVTJcGpXYaxBFHUGg04k/j/VHEPVqUYK+YXlcjbal2E9HNyxpDYtRPbVEYLSzZwBXZceLKqmWI3QFCtGsaDHAODeNcPtdSXZiSEycQPJEBoWeo4mRNA1g5F3l6WGLhyHShJINT8ZTByygfLD6KJcOuIkzMof/H9iWb4arEoJouTxZmFXQYyeMD+r5XXdavLVaQpiEctTLXPCZRK5m4+1XVLFjjaJHHyACQ9c2ddaVZTlHgIRZZ38G22IZDweLsiPNAkkiDiLa9q9rHk2f8fPQAAy53werGbdYxs457PjMsDGqk0AKpyW4KvTFIj+Ai4qfHF84pL9UEkCKeZWXCLNYYvgDDXPn2WNp+mjbiDQMc5GbQjRhS/aqcZfLvsewJ5RJwskIBOUe4Zq6R0/AwYiLeOiqGizmvN5jIa+cbbi6UwHvXako740J8lXZ0bKoffABXmFTQJRi8fdtbKrOCUixKhIhEsXlB10N84yy86Kx2lFBNEQnbHi4fd/BbDn/hPbe8878tZDGwcb1QeS6aBc1leWGCQGDhATvmL4smVOmKzmfL5ukJsUJVLwE4x7bGV/a3VxdqKvRtRHH/eNGjuvYA6F6gIJtjGDmOVtWRY9XTMRXBOTQRZdRNM1RdsLGxb39PV2d3UsaqmvbVrc2VqYZJJUGGCDXTvnx+hJ4ACiXwBG3hmIM6o5nzf1FMXpCfvlS8pFQ83zZqXG++ySP0QyxeVuGn8fwOE916zs7L33uxfuOrmvUmX5EYyRfeHSehsTAE1cxBobIhONCZEM4Qmz8kur6+prKwpzZtoy5hXmWcMVogIT0P/VigVa5gCHfq94skvO55XttJ4L83S2s5lCXcXJ4cFBis+OLSBycNyc0qYOOpDpbF/YXFfb0tHRmBtjENVql/66qr88ySi6QXl2jEFrIhBRZwybkZiabktLiYs0h0bExM0w60XiLEXx99yMfgBhUx/VtVvV+Xzl98zUWsvsMEnVJtm1fEGWRfHptzIgstGSnDG/vKa+rqZ8fqbdnlVQkJXIx4i3MsdmtHPeDGZILhoTC1s6u7q6ugGsWTnU2+3QobOlMNEoakWcTLzrg0zBwcFGgyJLOr1Br7Iib5U+72ZmRj+QAJGMcbmrH+Wczyd39p1/5O2HN/bTShfq7jHGVvT1x0cxRcQkWW22tORYS6g5MjYuKkThjs0WyiPL2zIjdIyOhpjs8roGhwAYHe5qoSrUadEv7EEkakUlidOIvwqGC9jipQGFD9kUO6e0uaO3v6+nq2Nhi8NW7OxsylO5LLDusf7yxCDi+zslnd5oCg42GfU6SVYMBkWlGtU4Mx+5tIHrjogcEmu12e32mQ6GuipzZjp0sLnerGllLbtn+9xoJbCAQKQgS5LDVqytr6e2os2WVVCYnRQiq95e99eVDltRIdplIEPYaEmaQCoy2oiywRTiEDOA3tbsGDNVgvlnGhvyIFvWqi0z8LCwRyIqpvCYJGt6ujUpJiI01EJtRR1haWWL/izQKM9WJ6zqLsp4dptORxNjXI8H1NpEgTlp2NhWHyQtOp9NQXqdRJ3PagltG5iiP8PUVtQwiAxXd57yFS4PD6Ov7sR51oeLtU6vWpQbpWha0naDkYuo/ztA8aIL1G1Fp8mR1wxUsraiZmE/OLkzJS0pXO8uaRXbwPDrlSvjTDqREK1KDni5ahZd9V7gRMgOyqWOiOit43adRLQKizluz58/1xbpJs5vZN1k0ktEq54yOrO1aMGSkeHeerqa2wAKIsMznQMvYi9jK2qV1JmBN4BfXzinrb4iL9ms8yz9iREGUauihFvzK+ubGmuLZkYHVrgRnLybl54crllcXrI5vXzxwJKehTXz0piVsblTjVkyxmaU1LZ2D44sGxnqbqstZfKlNWvUV1RSms1uT0+JCVUCKsw+wPJmzfx8e6RmQTRE2Quq6qqLs5LCDRJRw2StoPfccMacwvLqusampqbG+uqKIu0KG6IUHBISEkzvahxQaVZqxg8Db1+1oKFyLr3DtYbJq49LSbMmRAY7yX4mQbHZzu6sJoiKOTY13WazU7HZ0lPjteuGIBD19T5oFCnmvWL7ksHeRbXz0iL0opbJqzeYgk2qi1tRWQQqc/9cJxoGBYeoSTAt6yccZRRRH2kvqGZtReZTu/zg4kpYRNngwioJiCsrrTvqKJIhLC4lLTUhMlgnajWbLpB5Ka3mvaLRZKSJIMfcvScShAjH4sn/+4/fwHlUjrUDVP5XHkfjXFjH2gEA+J/Z3BtPWK0dAKz0n/nP/Gf+M/+Z/8x/5j/zn/lPjRGJDhXQsQNxFyfZoQI6diCxQow0xZV2cpvBFFdqhRh+cfIRHajvhV8xtjpd6tbJb1zh9qp5wnw9j22uzAt/1zxh6eJfL0e/CYTb2+qI8bX8el2ZF/6yecLSxb5ezn4TALf31RHja/j1ujgv/EXzhKU7f70c/sb6tzfWEeNr9/W6OC/8VfOEpQu/Xk5/Y/nbO+uI8TX7el2cF/6yecLSHV8vx7+x+u2tdcT4Wn29Ls4Lf908YVHP+WXz5QQcMbV2Srff1tzht9/W3inq1eJppf+s9J+aPQZdcqyQzj9z0vS9SWx/B0ntb2pQ7QFnEoDatVUajhBTw4ViO9xH8J8qucNH6fa1Okrsn3+82P6eJra/54ntbz8r0iMIiXbUmjJvEJBaotsY6MGn5aEHP+d0NAUl8zWz/hWALA0NOGp96GuCku/04tQA5Lewg58nX3NHCkjV2OHn28nXrFGhb4OaOvx8AflaNSr1YFVDh5/vRL5GjYr9lNamUdkt5GvTqNwb/bu0r1TSy0Rhbu/8Z/4z/5n/zH/mP/Of+c/8Z/4z/+EhNHT7fXf4n2sxLwT98RbV7Xd1m6eqFd1+1+RtstJ/5j/zn/nP/Gf+M/+Z/8x/5j/zn/nP/Gf+cyGZ/91+v8/r9nv+M/+Z/8x/5j/zn/nP/GclIYwBZR4EqC2jD6y0MKwGK3W1bQirKbusgjMtatwQ7qc/qys0YfFq3lgHwKpOi1D7Rpn6ldQCjAnHyGHlWQdYj5WjjP8+gc3CsVF0bWilbUhnGoF6peSosg4TlmOjqG+jQw2F1AFjFIdAq2GdwGrh2Cj6Du/uNUJrIY3Q1lWM6xnlj5lqrgO6Fl4F7FgnhRUoO5YKr63Tj8kGaPTEGMOYcEwVY9opvG3tqpwxzv9YBliPyaKhrHPiAW0MUcMYNgtHZyBE5Re4pYCKBhqTcuP5ugMMUEEfJixHY2iZwA5FFgXLGCbm6UQirAM2KhIRqAKXOBRgVYuVReYMnxjUSUQzMqSAhrLWNXTQqIJ9WC0cjWEcQHuEXiwHsDnaJBEAiDUrRJgAEBemEKZeSLvFIAq5AF6KCZGJVqShnY7bXp7AH+sYVmOfcNSG5RkRcoWDbflxehHAoZL0UPaaW2o3S4SqdkKmRRYqHOwsTDaJmuTVfsvRwPD2XSpzdcU4vUp3hbrQxveO3e03WXgA7/VWxCsz9uLw+kabSd4E3NsxL0onbgIe7yiI1jGqjVYlKER6DoevbssMkwSPy9xfPhbS3F/F9vc3sf2dK7e/nhh1bRUEP1fMZsd+Y07+L1q9Eqy46PabKPGVfRQ5LGtBH8WY1tDfPi9SJxrT6vsZlPiKvj4Gc0ZbP4MGETG8Rvp6UoxZJ9SHk93baAwgbpz//QQpzZ8rtsP5+ZOkdvjb+dOldviL+bP14k/zfxT65385/xeh/Z00Py/2rfGb2P7O8aQlR2RUVjg2RFNyURXd0MfkVZWkh0iEKsBsUNUq6YZoTCqophsakjrGeDK0OLhe1eYuu76NQhVlxYVEfUR8vGMXIofEJtJdRGNUQqxZRwSqAN2FUS2B7kLk4JhEuotWpBGGUydEGbBP/VeMgUJaV4ggiLJCH0ggkk6hDySIOoXGxPAKqKnG6kYfSCsypqCGixQuTCUP6ZQoXB3HyBBoLUlrV0Gc/ooWWrySrEiStqTek8IKRgknjzqkJooWxnhiCHCqcxnU10LRC/qqx81Am1ooxkB3jRhjTC0U3QFPI0BDLRSNMEYjykDfQOCtJZ5HcCuwx0vRBkN0gtWpse+KalQqCebsw26mfuAYJhbqJMLVEXRSWtC6D/tp+UEvRC+gXi+Ge3XDWXENX0lwPVc/sJwpHxgsE76OoGppwTVM+UGj5IXo3k5XjbCiQ219vRXVEL6S4AYHx2dZmBKDLxQkGUW1OoJ8aUFCdds2N1ZPrL9SiXTapKUFhtd5K6wR+UqC+b9gH60fKD+Hw1vbMsySSh1BtdKCti/x7YaGdJNoTS2IRL6SoC66oKOXYs5s6291oFJHUK20oBw1r6N/uhM6U9sv3Vf4SoKS2V5W6dhgygcWJBpFtTqCfGlBIoWml1RN940w9BacLLJTcDqRMFNwbt9lK/ymd69/ckWVHo2vJEiUsDhaP5ApHzjDsQtfR1C9tKBijk2gu1wLAICWqWSm4KJNEjMF5/5dtkLDRl3MpF3NZmBQkQl7V0adWjyGS7EaJf6jWkCQqJcYlAhXR9B5aUGFlh8MaHCoMiNCppyYH6dnpuDcv8tWbNYD2EIjMgC8RHuhMQDtUUbVeAxXYjWa9fu4NZwntCVgAdkI3ENvOTP3F3w+Sm858ywOb3X/LlvRuZJGZDh4u8xulsYdrMiL0avFY7gSq1F79KJ/S9WnbNm+wDcn04iMbcBVnY5DsvAXvNNfn2YU7Xw8hkuxGm9RVH3KlsRHZCgJVb0UXdT8DgYdH4/hNFbj3Kkij7KlEpEhW7Iq6YYUml5alTdDUYvHcBqrce5fqSKPsqUSkSEaLEwvRBRzXEKUUTUew5VYjep5AwqBVutquM6HcGEYavEYrsVqHDrV5sR69/onl1Q5dqr5mv/Mf46KMi0I3aT/v0A0BSDDV/pPbSStnz8jpcmtYjs8pvUfYnvc+onYDk9t1esr9YHYs/ap2P5mxfZ3ktj+Tqx2cylBqX3cqpGqajcHByZbO1W7fAtq8fhtpf/Mf+Y/85+V/jP/mf+s9J+V/jP/mf/Mfz4GEB5aX36Xx7u8r8x/PmyyeCW23X6v9J/5z/xn/jP/mf/Mf+Y/85/5z0r/WR/M/26/v1vBf2f+d/s9/7v99l55/Eop3fek2A5fL7fDV77ykNgO//MVvb5S95j2rL3yhNj+DhPb3+fCEG9QttJ/5j/zn/nPCiH8VACRjNQ24KfyBBBZ0pEqNTV+iWCC9g+q0rT4pcCi4IMqNB1+KcDo9EHVmQa/FGgU+aCGAD9PUCofqyH4w0sSiH/kM9HagtVeMsgo8lHtwcO8ZHBR5KMqNBV+IRWdPqomE093iILHxR3wg0wUfFRdJkIxxZxwg0CkolXo3N5METK1cxVcIsVua+iKVmWK3NbQEel8W1NXmjTT6bamjkjhbY1dAfpMwW2NHZEwdtu1oQVaB6zIGWYoE75ue7VRoMYVOERC120vaKnzBgANK3AGk0yErb9thTrP8xqgresKEEKiBsCYgv9LS0NXr1aOlqIn0rVydAV6hSDOofXlkEh9O16tHQ3Q4lWNNGsTKVl0f72QyBho9GrtBPSttaN7O91r7egL1Nzdb4QxNXe0QEMt3pbda+3oBS01d7dDoG/NHa01eLf1tBX/+/rhXWvhHl2ieEvXtra6mri/p3V4366dlpYauOuJXYdTqLbG+vYV9S01cHUNurdRUi01cEvbkPbPUNd3eGfGdK19e8Twus7/p77DW6Glr1eLp5X+M/+Z/8x/5j+fHCAAAFZQOCAeggAAkKkCnQEq8wR2Az5tNJdIpCKioSMw6YiADYllbvv793aRW1fU3928lvAPN4C0h097Qr+m/wX+Y/7fhtxj55/D/3L/L/7b+/fux9C/F/al6F+6fq//B/tp9xf9Twl7G813zz9W/5P+O/ML5n/3X/a/5L/I/Br+kf6D/j/5n97PoF/qH9Z/6/+b/0f7XfVf/dfst7mf3R/If4Df07/Ef+//Nfv////pw/1f/r/0X7////6Z/3L/gftF/pvkG/p/+Y//Pr2eyR/mf/L///cY/n3+1/+//M9t39xf978sf9g/5n7pe1L/+f9b/4vgA//Pto/wD/8da/1L/un9r/Zjwf/yH99/y//H/vfke+k/xX92/bz97Pgty99mf+75KPu1+m/vf7o/3v96PvR/O/7f/Lfth52/Jf/O9QX8p/nf+h/uv7o/3fzz+4ot56BfvH9S/2/+E/zf7PfHb81/s/Rv7Of9z7S/sA/nf9p/4PsH/0PDm/Ef8X9uvgE/m3+C/+n+Z/03uef9f+y/3H7f+5L6o/9/+r+BH+df3T/y/5P24f///4fgp+7P///7vwt/uX//xobuCaYe3bVNTXtBmnwNb9DNGi1rv6Bg6xArfmCfTrIMoxArfmCfTrIMoxArfmCfTnVBNj84UPS63W/ZRMY/uWRn0MPbuCaYe3cE0w8Ot4XR0tgTZKV+bGyDKCCgWqtfuWRayuC9Ffqzh2T/4qq6ZjJEbGrevMsez/LrBjqJEbDtmmrDMC09dz8mBMWmdQLAfmDhv27gmmHt3BNMPbuCaYe0Mat1kECEiECOaEsqFv3IG/vmk9aTxYJph7Thfewwq8kSPlXDv4aWXberlM8fOzdwTTD27gmmHtLF6LHugnKPKnagh2XMyg8C95yXHuAVgtplEKR0WJi/EBNMPbuCaYe3cE0w8NQPsxmA+9npIkCl+xlPa1KMeMtQEVuYAICTJiPWZvmdX/pDJ0FxOT3nlqYksEsWIKvh5JMPvzc7C6LNZ2XZu4Jph7dtEOY16+GYDhtxoIjXFLHLAYWxXF7E1s9c1njhXlOqBv1MPbuCaYe3cE0w9u4rE26wzdwTTDxo5hZFev4SfFNFtn+ughDIwFX4goYQGW3KEeELTFwv9yCKtfuWRn0MPcISEVgDPj/E1/JI/MGUIBATTD27gmmE138mY6xOZwVjFbid8+gI3FvATTDxsU+brVD0RVKzurQwm1326C3Luc2sQHP4YiWO77Mwk4b8+BNMPbtjZ+IFMWZQ8YFVYQTYTUagTTCpzYkHki+Qv+doWhv5YK78BLrTXAHK1+5ZGfQw9u4BkgAYaUjDWH9pZxHWG6DKkJmU+buCUhwb6tBggwD2XFGDac9ebVN4c9MPa64GixRqpZV9+ZSce+sbmEJCmIPNMmqHJ/7lkZ8/K/lRmAADXYeZd05ZEv2efJ7X9uYFjWhh5X6UOKhqDCLcwAQE0w9u4JpXzaS7Wg3bc6B/ckcx+wIHgTAs4wGuMI9u4DCDHfPpla/TFRE3JOxy7UQm2QJpXd+2OBIWg8WLgkNupNHjBqeXOisMlkuM+hh7dBXweminjQCiXl/Ek5rJ7VjVktIi1Z7VOW+R6YJK2WJgvmkSnkZ9DD27gmmE+3ol1TlLMpQiNCjFnZoz2XlxIq4/R4K7W9TqPBg2VeyKR10mO4+VRUNUY9uYCKxMHzhL65IpVfA3z6jVjFATlNGtTg1sOu+suzdwTTD25upoRH58/4Psl0sFjPVsAs8mnfwrAnqsHRTM1idSgAS9WE7EutYnLrdjw25vZ/GfFdMAEBNMPbuCaZXH3gePMhZ+k/HQHCla/fsePsSchIRLook49ytiX8QrX7in2cJpTtB+2vi8PmmwOuQQ0R/+E524Xv9gofKn8rBjTaKvsxKyM+iISRarY40GjbjD1c9R2X4qJjKasODDbqSb6wDCXoV+FNwgj0odRpuYAICaYe3cE0wnp6Bq/1+l0G/izLoFk93ijBLvOICaYe3cFqqz7tx9QQiFy0ipv9dDnKYIBNUWuDKBUtwZMp9lRbIQCAmmHt3ANQ1Xa1Eiz8qjbcE20pWERPBl8qxdmyUQvgSnmlCfxdQD8lIiyuUohE3UMPbuCaYe3cE0wnnJXvaQy2dP+ztNnqsvGEgWPpv9W8BNMKeZ3ajD14G/yWTMf0MPDZEQzSQgM0lyRHeCkG5Os3Ju4Jph7dwTmPEzF1Rh3/cPJ94rAI7qAvmWAD8oLixYlZGfQw9u4Jph7d8l2BqKiHwbh1TqhMC7uBUA60JEoVcED9RI0eRy4OJd3bM1bEe66yXOmSMay71+RD+wDd2buCaYe3cE0w9u4Jph7dwTTD27gmljSI4S9rf/i5e0Xi7iXn3bcrh9hSSEablyszG/zO0+Bmst/x7QKKW6XoVRQzky2/MIIPqxVAPdrKuP4U/Npf4NkLGvmSetDD27gmmHjJCgjS/8HKNotV7iRqnSN1C6w5//ikYKEBNMPbuCaYe3bIzS2Ih7RNu/ChQPZ3WRc7Sg05fcbbNSgDdagnrRl/TXBbeuCg+cAzA38fWKbeSqfedRpGqoiWQTXqlFgMIWyFdrGzBarkkNuoVKyM+hh7dwTSvU2PwcWwCF7B4106oloirpeITRBU5f0SPytvuTdtWv3LIz6GHt3AMo34SFRmpnPwrPMTBse75tbDaRr977Uuh+mLrwBTH/aoXh6SFbQfZXdaYQKRrOu9pXIllalrWCaYe3cCnhlLUkjpST62KApavnP8sAzRsaLSm/owFr7CeCS0QoqrKnKawE6Qr3wbkBvyzPoYe3cE0w9uavo7iiJiHoIpURaYxAr7uC2okFFzABASWwUQxBvXDBgoOXLhMvF31v7Xdm7gmmHhm9QyngBOOyBKe7DJGEKmsCM+xcwmpy64ntfgKGhkXcc+x5uQsl1NxrJRBEzcTTdpg3ZkTk01+5ZGfQw9u4JqNY7pZGfQw9u4Jph8OXulkZ9DD25vBStR7VhMyqD3y+7aFX5HXdcywT0IjELlLfIAIKxNusM3cE0w9u4Jph7dwTTD27gmmHt3BNMKdMnrRdoHgxQw9u4Jpayn6e1ENwPMkcZXOll193Isg2SP7lkZ9DD27gmmHt3BNMKj/TXd4TdW2Ez42EucQi9ylxrLi8kysCNNEvHl8yjRBlR5dm7gmcgRgwxUwYpqLo4TOUzK9YvaxhSVuYAICaZIHqXGN1xizjzorj4OXJHvtS/sfir+StzABATTD27gmmHtzg94TjgHKjQbnZlZQJHL2TEUOXsZ5z6uKCh/slR82dx3Pk8UsVh4R3du4Jph7Te+1KVRaiJ3AO9XB3syUtwgBATTD27gmleGM/YTOQaVz8p4gkzDYVXWfRE8meUv3LIz6GHt3BNMPbtjYn5IgG0jPzMAqrrafZJ0AFBZpy9dnIJh9mfy2+JDR0tJlo8hv7JnrTSsjPoYeH7Tb8OseUOarCc7SbkQmLR4hrN8E0w9u4Jph7Q0z8H6l2hTDVg+fEw1NrgGZJwTQ9tHNMzVr9yyM+hh7dwTS1lVC2NI+F++6BZOS3gvNiMiZ9coHq6fVlKBH+mj2DkgvurQw9u4Jn4DL0Kt7sF+8YYmPR/csjPoYe3cEohSXGUvMjSFtN9Ohv9YTzVyu1a/csjPoYe3cE0w9u4Jph7dwTTD27gmmHt3BNMPbuCaYe3cE4mUzWhh7dwTTD27gmmHt3BNMPbuCaYe3cE0w9u4Jph7dwTTD27gmmHt3BNMPbuCaYe3cE0w9u4Jph7dwTTD27gmmHt3BNMPbuCaYe3cE0w9u4Jph7dwTTD27gmmHt3BNMPbuCaYe3cE0w9u4Jph7dwTTD27gmmHt3BNMPbuCaYe3cE0w9u4Jph7dwTTD27gmmHt3BNMPbuCaYe3cE0w9u4Jph7dwTTD27gmmHt3BNMPbuCaYe3cE0w9u4Jph7dwTTD27gmmHt3BNMPbuCaYe3cE0w9u4Jph7dwTTD27gmmHt3BNMPbuCaYe3cE0w9u4Jph7dwTTD27gmmHt3BNMPbuCaYe3cE0w9u4Jph7dwTTD27gmmHt3BNMPbuCaYe3cE0w9u4Jph7dwTTD27gmmHt3BNMPbuCaYe3cE0w9u4Jph7dwTTD27gGNQ/1TGjeNBLJciK0hiFDHDVNdqpVD0LipFeCWJvKnpZe6HtGjeSoVp+ITLHx4y4CKsrqNp/TWm/UzZRo3TUH5u4JpZNxgaLBEoO8E4Yf/EgPqhRRUAw//UxmHmsESw416vzABATTD27gmmFtcWJ14BRBOnurXxBdUAF1Zje03EhdbrDbl1uzAhCcFYIgEs2M8nvSxUBJMRrLk2GGn6utz/qf1j0Yct3FCopHuUgDTqywlf9rdCZjp20YctyC5mkVCBxv2jed2ZCAmmFuKjBKHsNtD8g5wb8EUvxHMf8x8xBGeYz9Er5MjstZeaiSiOqNfRuU5wFNhtg776cwAQE0w9u4JphbXbVQ+cYxf/Zxpi5arcD7UzH50xwn5QUjvYKoPdPkQDkXRfWGkHxzsglVxf/dnlNUlPmyW6rlTRoamVfPOczqHH9E7M+hajpHiSI2Mpn5izsSSA89xc9+ytAUslN/sgiWo+buCaYe3cE0w9oVWaAosfQjYwacz4k7ANKjv0H3Qw/mzGK93puIeY93jfv2SNhzr5AhdwfqHz//UxDL7cAH/PeyY1ULRV01A4NSmczWsvSqmMrcwADGjkupdq1UG0zO5PtkIf1WKhBMJ9xkQlsutQ2gTUiM+hh7dwTTD27gMPcwj262bOMFfCl/wXnbrteO5LdMLgDNtbPRsM4QXZe0FKtHqHQS0B0LUKguBtHLNVcWHpR3NSRtciHxQPbb5H26XkqS9XA6bPlkeJnZTN3BKBjBzNterOL9sWMAxC3ndHDAgEJuGnSUK8YQL3MtgUZUTQH4KJrJihP6ZnmBGtexph7dwTTD27gmeU8E/bWCrIk8SJFMljF5EH588fYmavN/uK4KtNbDy9tDOABdytmg50mJsNo5LOLt9j4krFhhoMWs/UmAUBPuK+MCfN3BNLUa1dP84yKEBpoMtnX34Qc1Y+E1u7Lle0dIMAOog6+mFyUrIz6GHt3BNMJ24+j51XP7vMqCmIBKJp2UIzAKbgaRn5mhhIgBK9uYB/PxSgVJdr+FTx5nkLExiL+2jyVUd+RviEMYEYQN6N0XLGqqyBWqHOaGoGmHt2zVNHuphRWR9wPSsH+dRASDK3lzPGn1nayNrlyQ6iwNtEi7g9oQCAmmHt3BNMPKVA58kzCZP6urIaxNRKeCg0maFZC8e/P30Do+kkrxiXRxptOiAgJfROuVFHvlr0IsLSKvlBG9iqcmP/FFf5VaOblS7wRk7R6xmlnO5UJeYOkW9QAgJn0bvXO+BtKjE+Mv4ybexB7sYxX8Dzm6CdXFKU/ld7MjWhh7dwTTD27gPRr6QDr4m6D62UHy8+ncq5QM+7Qqpj8is/iejs7v19GqcakILan7k+xt/buVlOYeiMPK6ys72xHNET5DUK7Jy5FxVrbG9Z6be0OSJr9yyLpFnbXOAMq/NDg31uo/cLn5Qx+HgR73xUCQovTC9wTTD27gmmHtzZLdbxPChsLIqANWtYIldSdcpZBDZjbcINZiJ32beO8JP9o/CMlSPO5I+TeM75hWFDVkDhOjRVc3mld+AUYSN8MJaun9kj+5Y6ClRUkdk0jd8YK1sYtex5nDbAKm1fhp/7rxxJaYi7/FHyaoy7GbYXquCaYe3cE0w9u4Jph7t9ZYBDmbcwAQJ4GBqNDH2hn0MPbuCaYiiuCaYe3cE0w9u4Jph7dwTTD27gmmHt3BNMPbuCaYe3cE0w8bE+X1t/qC0lXnBGs0+GdwIrLFIdYiE4YuRlHFgmmHt3BNMPbtpgnwMlE8OM4Y92+a09gUfG1dXX7od1Dv6qk5HJVXuMvi3zY2wKKKsAKjDCcpBYMP/m22finwpL6YlDc/z99tKqS3oazjn/BNMPbo14MK9DCfeCUY7CNAk9ECwCY4Nu4epPtBI/uWRn0MPbuCT6EdrBUJYRligBXRQe6GuLEpJzCLezJvmZ19EfuXD/mi4NByNFyEyAqaKEmQLYoCkWiOgsb0Y/bc8xSeq4CQbS10T4DaR19RmOGUsQReGQpgiB5aJL78/0Y/uWRnFU73jmBCS+RLlw5fFiIAmVc4T33BJl3jqDGF11Tb62oKGHt3BNMPbuCZ8iixf4o0f23TMCi970LjgqUD5JA4eFvNf1yosDSBsH8QK4wRjS24bEnD1NsI3UGSHMQuYsblBWdIOMH5H9DD27aLyk8rbgLyvsFL4wjTmP2g40umGi3ZoJg5Auix+LMFzsFDD27gmmHt3BM4wCZqMkrvdm1hzIBKl+iqT+bH0+NVELuEqT+j5jRcOHz6rRWCnStqlCnO9DA2rGnfn1S7fcXcoHOO1YKth0IRqZ/dkZ9DDyKTF3EItcASdM40GSNDp/UFbsVnqr/S3bs06GPpzABATTD27gmmFthjRPHjXZCKB47lCL4q8sWFlQk/Y3e0CmTUpv6PDoU9UXiJX2obcZRWx8mdCrW8eLOjfyVcqONXww/UpcilHKOnN289D6SSWe7NEoFEz6GHt0dy+2dbyNtcwfEoSLoHQr+Nh6TirytbLav5FBqWr/cC2NMPbuCaYe3cEoCwS/GBjYKuL05BXXd+TkvpvYP6Y9AYk5BepQz4zxvHY+TkoCB7iuAmBd2pgl+tdfKD4W0maPo5dSbjGAIgJph7SrR0N6HEMkNESflLpx3jetYG9xs2Xt8sQK1I4gp1HFc/NcWc0Ie1zdwTTD27gmmHtI0vUvEI519kVu8sg/QIGaFPrKo2IumL6LKg2C+DzCkzxjKJZlBbYRzMFjI5XOUhhj+zJ6j7HXEdFOWlq8hChLFUIFZxTg2buCaWOB/ibSVhqYPH4jjYth4Ly+0aVZur0qjfGu2BPMqlZGfQw9u4Jph7dwTTD29tFZGfQw9u4Jph7dwTTD26O0Y3g2ctphnIphDzawUdbR+exK7YKsD6PXybn1rUHilGVwTTD27gmmHt3BNMPbuCaYe3cE0w9u4Jph7dwTTD26O1aArj4aCmn2ln1f8d5yXlyx2GQQ181pM+hh7dwTTD27gmmHt3BNMPbuCaYe3cE0w9u4Jph7dtrr8o4o08daCIRHos2Ps7CaYe3cE0w9u4Jph7dwTTD27gmmHt3BNMPbuCaYe3cE0w9u4Jph7dwTTD27gmmHt3BNMPbuCaYe3cE0w9u4Jph7dwTTD27gmmHt3BNMPbuCaYe3cAgAD+9uWFvEeC3pQQqD/ko8oTEMN6436Y7m6wZoNmi8Gli55POxPQA5M7PGaKaWzFfp7zJCQpliY6xjB+5FsVuQkpwurCYnRuXAQPChC3oPZp9aoiidgrOm5drneaUCweSbuJjCkJtCrg9YRRZYSq/6RxP+L/8X/4v/xf/i//F/+L/8X/4v/xf/i//F/+L/8X/4v/xf/i//F/+L/8X/4v/xf/i//F/+L/8X/4v/xf/i//F/+L/8X/4v/xf/i//F/+L/7nh+BVxZ+d2aHWezmAvFdkqjsrWXyun2+Z55huXE8C6YNySAqihyvPsxW2msWVDC2tEqMKBL/m7YmN5KJ1xiyTRjgAJPUo3FuqVfK+4yPPaQA/G9WR49wiOppGX2RssnNIuC6+nMNg5L1+568dV/05i/wr3GmzRv96caVeO42/zCKZDcm5TZpHNrn7LuL9Y6g1Pme1mJNlPhVu7i0H4CjiJJW7F8sWoSUv74yfTd77m0WdhPYybywWjuZJgKLPYJFI17c2EAVbtMx2r5M8VRNnNmV5bfYnxcaIrwNtNyVKfu0tKmiZiMjuhWgK2W5BlfuzmMyDfMOfxeWB5AAAAJ0KoSqMXFZE8jHKeof0F3+FcsvIZeIboowL5Zm83UGQ816s1r3OeXnXWIaQCz1pE4BIMsCYanglZbM4NO8dpbky1fK+95D74bW/S9XgEr8+AAAAAAAARDBdWvX0E4jKw+cRqooPQtxPFupb2C5070kHoamDKiNqEvjJ8GRbLmVU7vLVHvgkPktm10+Y/ILqPKJ3xEyRoRlLIN21feniIVQCArBwDz52Rgmldpd2++jVD1Va+zdpHj7N8YzThErmPuEIlnSjo+ZPTc3tqgGfbZtrBaTSiQrXju5wuVFLMkjCBXY5Rj5V/R1hDZr4noAJNrktAAS9v2JgKItYPBmHwqiYmPx6rWWyxRBzoUylKa6P8DxfqRoOA+Fylt/F79dFT5vozgHZpfRnrpUB3mHyDFqDPsnBgFp38fmXCMyDxqfsj+rpr4g9tI0tQqmjnA50Tcfi79t8vvVRPgDqSk9tao8/sh4BGKYVdYPu5efuiL91N0t/yDNkXl+/nCPfTgkjJ6ZxYhcU4AF8rtMm6yzPG7uClz9Ei8bAOccDAe7KAvnXZNEycRTgsnomdGeNivRDkwWwx9+x9KO+t7X2c0WT1A2bzqPkUzpSDPDe3O8LqbylcjH9/JcFqm0gXCW/64hYK7kwLVxBUkRd5nNvcq75gvmwDr8E6eSyABU7Zbbo2COtWYV3e7maTco0aWpD5PDOUXX3/JcRpjU31dpaTTSpd+ODFL5PdZwP2Y8lxP/hyqcQJARE8poLQiy0lGBvDIvAN/6dNGNi/afB1GqbBW58+MzkFpN1bCk08hBTc4RBv6MhKUsZIzfRgOp2k+00wpG/eeS/g8Je4vEd4PKwtqOA3By/LmjLExKdnVtZhzStFKsjKTG2xXY2cELPqqYflywnDJVStn3EW5rbYyzJ4LT4ddLjEfAAEnWAq4I8DtIzHSGpEjcn+Vy6a6FAyATjTbHigmJNWmcFqV8l4fy//xdJt82s9y8jkpwnlEj1Ri/DxlWPUPsYnSkETvemevTcUvGCdDrDAMzQeL6AxlOgl6jvI6bKdLyMWnPsOSnrx31sDX5vbqn+26Ixm1n/v0++booKjYQGq9hpCh5lUwZBE02wd8sLn9LK2TEm0ZpNuIdak2lqmyOD+8SEnprwKwspDVx55GT9pU/5/zBGm77Px4FTWTcZp4TRpfa9nJgNUV4xk8pslB7bOZ05AFKs9GqeLR67Koi64N6dzDZU9khrOOKfXTsBywxxcwkvAA5m0uLFppLHS0gUK+TOl+DSGLXDpyw4w6I+IP4D8tDU/59DeDXR4crAiYNEcpYzYSVmnMjDRkH+dJSEOygD0oQxdE85OqCXY3it1gah7lHpNZoleIfd0zvR9ZC8aIqgKxylN4W5ZfHmKhIbBLWd08NVXOt3xtly5nknj7xcTzzmg4C1oEjq1s3aGrFGysIuS5H38eXF58Yw+sQUCIAx+JvKcDpCCFwEEEvKhM7vdCRMEx068nP6+7D2f4K59KpLwfY4eDuX2tZgFoXPgBPLjomW/Y7uZKOUY2hQdA2b/30Q+emvgwaNzA10NRBQG4/LxW48n3XnJ55LaFyfCtBxOHCEsXDdp2L6UcgcsiiLRT1sWZZANmA8oOYpvpByYLBlXL1YSbPBYBUFBem1BiECaLUEbnCxNPi6DS4P9o7bqmdAcRuxEWniaqCbwL9eTjJ4rWIbB+BaFaXV7bkniwlsEz6warfYaNuD+/w6FyI7h2VBT8QKEP4tlqLCY6KZHKCMn/LEmCBNds5Gog84K48gQcFEqbl4zZuEi2VDgLDwmZ2VtIBA9H1z8zJGEir+5NycoQtdvZKf1qpz5YDg/IJ/jhuDMB75khiLgYKd1EfQK2xFPHAUv5QviEaRJH8/SMJkp7cGe4PA40/ZVSElG8FWKlmrs+Y/hOo8jeGOQQ/lfCaBbhh75inzR0ptErO+fBwTW/yqTxqHgVsAhhMU7Vg7Ij2GUYQp1EkQmazXsf3YSfz0EE2EZAXcYvb9wuyny+oVUTPJQFa0ZDQPJZ2x/BOHUzf+vvddqJ8crNBYm3XhL6ptJR1Nxy1OsGVCVeCFKAUOR8rMEkz5HQyIdXNgSOKb39jOmD1PWiYP4fVXjuVjqk1Q3wHxacN8QNlGTTimQF59Twy/lf8RbfHXipnCVHuTfJoD8RSiUE71WsrxA86O5o8mH+9qB5+cDiqemhXH19D7I529fN3Zi5kH+7AWv3vSrQAAAADvIo3JBVlbxXdVV5tsWQ1P9LeO4mwoiTSeBt0+gDdHbVyyaEOkND0HXgwgL3nJSmDzY8JNH699OfGKeo5qcL5vEPb9KOc13toV64t/9T4Vsh94R4EXwgMhqOaekKTX5S1sGXvm+R7rGvf5quJ4J6dTksAf/uPGI4zsnOgdWYSZPM9ApafIHe/+5KcTna/gDy3HOBIvWzFaGR8bCUa6t0b0LXRX8pPRPAd1apSsnwxBaKDKjBVjGBqUWU81UjwhD7Nu4xbIgdiLDSWZQuCcy+4sNgTRNcZyGV0fNf3IRUNiU7MzN7EyQaEBQlfxh0p7b7PNu5U2ZPBRCW/uNOapXToxXpSy12xiMLNuybcfxOZA7PQ/H07Ry/mnD9cW8aYX65hZNzTPy6yAAAJsPd19ZMevzNTD+1KvizOSEGxZ1blDkmQLJ5kp/eoO+82WEjGcIJ7KMTTSkgJ0V0wmppwwDTZOZWaUR4gw7zuXiUgGGtweHdb2hgAhM38iRoE9YzWa3aFbuwuM1184HEKYHDk8V9NWp63xwCm3L3+znfGYF7PEk35M9os0cftf7TZyfh4s63L2u8s97hXoC47JSt+WeRVLSHQXDZo562L2spoxanytnZ7mMVO5zZbfOG8/Xc1jdHe587+Q92DZdZxRPCmMt7Mb8FOU90o5CNVkPR+79O6XMoY25bWj99CUcgrvED3LIKNO2MfS1g39IucuvH5LXCWhQ+FacxrtfqwwkBt645Hq8ddsMB/e2/S7NSxHxYbdkZQ0CnUC20q6EYxYM9kO1bVojmRk4vNGkKts7idyMx6DCTcIx7qJtY8uvbD5+J07kRH3RBCPKIBQ0TTMERFQuuaW548AG64RPg22PBP/xIxcPneVB8M7khO6Ua4A7dKthUYQCxMYt1zjOU1uBblTGvoJsQ9zTwx5sj7+YngmpJ6eFQfT5FpPLT1v9FpdXIuB/CbpRkedmRCr9VBl6p9mfwXYX5a2mbXPNL9V5HCUuddyc/Zxsw5wyeDkZSWqybpx+ELF8QZG1pj0STW6YHJyRtynMLWucPo43HCKzxTwTZukAzYv6XsVyLTlV0SVa6OPr+Jj1XHZBRKEpHx8EZZb01dJ6KAhvHu0TX+n8fOyPe6s1gdS5g7nHwQOvyNGtrif6lv65pp61qMJFpEhWdOkjSirha8LOPZ4x5BBO/Eec/yjhbAKj7Hqqyl1QqAvS1vlU5H91iKkKE8rPqk7YTwYS+DxLBs20S31KYJ50jpFr/wTTv9jyDQEfjPbxzluYqHPGy/76S7P6VQSjV2H5N6LwVTzqMFLntqLNC0FqzpYhNF/dv4ONNzX8JxGJ10j39n0lrGvai+o7ZKHmhhyHSW6kAGi3WaB24D/G9EmM7MMm1zp6R7lnlGD6+KRzqzg4fsnbq4vuez4Wb+m4TRJeb6a9VuAkxaF8YOmlhSP2PJttPzAqflgW55bf9Yo0dxJ3PYIxLv0IMopLaFnYG4QA0ik0SyGRVa0zummadGyqf+BCecD++JSqGXad1sHsPpYa1EgUCPOpXlNSS0dFzVHXls8ZsuRP9IFg6Z692YM9/nAK5HsXsOSgH0qTGA7sjTcBEj2wxvcSXhQFPI4S8TfvygkwBempzOY4aR1QTRvMu7U+70PfSQV4PLBhsOy+MX/E3Qn4MwUgH7sppQ0LeBxjulxKKZDZgQsP2Np0PkGenpFuLnCEK5X3u6ApPlbR7fqWVZdKtndnOQFU/ujRReHaKYUo0NMxCbnV70Ib1+SEHzZzZjR9OMXRoy7rldlManQNUZFn6I6PEuFgEvNWnCuKSTdID7igRG3N3zFeifBTJKYH0V/L7J4UXNEU0ydpeoaY0N7yLqFRN+xsDkxt05Wxjwjuy658YYqPxfTudyNHDxA2uHVawZSEccgCPlUMEEgYAY++z9ZYWUvyY/Qsrm//czGaPEPBC3Mk+9lMhTQGXV0FZnwdzPGlIc12DQpmjY/u+dxIL9Kem3uwhiOd46SAS5kGWs6zOJlVKWza794qAtmW3InC6nsb5XO9GiB8rWjeSDyewHlIGg7fdrDAyzC1/iObjHbS2dWQBqKzfBPrGJ5Y08YS1isSxIc/Br7g4WeRuhdly1eiLQQ9EIj9vdokp2ySCptj4LB+qZ8NPCnUdIjKI12V39pphQ35gSn7eDnFK5evjv9tzhTbqOT7Du12/fshZSKjZnUJyiaIcXrwlepPnSsvytKGVwyYkqjy+slqzJl3R44BuzfNYADclNlLeRRS2VnroBHhPoX2kdGuW5i81bmwWWKUVdsGnnfYBvPhPkWuEaufWoajLoVyoSvFiPHRxzdkgP0iKJ7PXxBAonsqdwsUN2D1/lMJAQL7EU6JAKU54Ko0d80sgDRC54I76eELRxAFT11ETBTnQW2uepeFWEMHOl+YbwhRKgSzjsTbu/6BdTBriNV5bo2vVnn+ddTmVs9dJdMdf6qXD9XSQa3oiIkpCBvWBtc7y2bIBWSz7p99BCmiG28vY3NUmrLzu8E1L3OM2igHLJ2E4gbx+AuptGsor8AqSPDvHEmUTibnkNtXdD8dtBKAO5hjGE0gXhfkb9IA9jjUnpCX/ZXbtkEg0gLpY3/K56X5N4hGLqjb/ughdoneVqmq8/miy+x+jfkaUxGEoShehoSY/M5dqXvFsKoJFb9E2I6itJRZ07ylPbTxw8/vPD/Z3CnPjOwlY76MqcevNS8OHc7dWTTCh/JCAV7IsJ6nRT5Et80SrheQg4ul6Ho9MVz1svvuHwSSmV0sxQ4F3KSP/MSzAC/E5HRzn13E/ib7BNBGITjUF2BwCGBjo5oAALveRbl8DKgkpD/HOJ429p1O+DvWjySJeO89AOydy76W9UufpyL+bAE5oCNMpQHAb53RuKEdMxRGqh90CeYyqziWq2osm14nLJaKp9wTS8ZZ4VsI2c9oll/Yh0Ni4+GOD1jLTVWY/X6RsDv5lM0P968ouNsmJCP3hq2rIrdGHG/6z64+PjbyA6FBgA+jLkpWrq2jcRcZe9GL3bkzFz9u2zTVrRLE+vngRXdKSv1/0pOs9jh0rTmlKDatDdsIUfNl1M84AH6BSBPuWpFdXfnBXcCglmh2/d/PUHMPQRcTtPsQrvO0n4fqGvm3SI9zA5uoOJF3duAgi7XuAaF9FJ0q93uNoMM3xL5nquRDQ42CQ8nmUnJgPxjdAVubPwmgjBfdIVqSOQbhSR6vW4ujJ4GcYx8WAnmf+/gOoFI5kCd+hUzqUOdQevJ40bFmwyv9eh5YDqkLyZAgD3lPY+tDNiD5ssAAtpJqboJXsEsuq0l4YwAF5bVMlK1aLc6Uup3BKTFEqCtmZS68CAFPi/ENe20mRkihkHsuBwYWNBozjmxS2GsLmDEUGxh08D1U+vJbWgPwNECxXsT95qcjXyYhAGhyXZ/qAvyQ04Jzkl3Cyeqg3rckSUEyYvmlYnW8JLP/tUkmZrD+14pG9UvGKOaB+FQzMIex+CxJiI5OszsuBT8D2epuRAABh6+g5Lw9Lfj0IBuzDfQD8fd3iYgItvDiLo9Eg2UvDXpz2eAgOn3s5XkrINZefARuEwkGkmpQK+abdrRjflF+mdgfRRYcri9u1PK2TgqnqmA+UJrvBnLeZcplhnpZ/lGRignhaWrD4GVHFSgjTlIbxaDnPKN1Vvg7foRQvfJ+ONrMLSnfLRWF/637f/0DOOXsNS+LtrMX1jludlfjXIfqyOoHfY9bghWGmOXRBgzC44GfxDuoIDvikrlMfvfnAWgi3jIANoNWm4f4XhAA/qr1BdFaYlUCXnE6hLZIUOfL8Kne8FSSkKqWQ3H+cbUnTblT0u3k2JXaRf4gbmB4x1QVSvdYevomPcsoBV8+mdLk1gGdWqDGkIyTZj5G6NqLE2YP7bbK7jrRqMkPnRTMQEewrYkDhm1nDKy6+A/a+0tDFzyURki3oPzgaTHoSgU0snNVSaa6dxIiuIbf74jX0ASZGtZ+SXOCoG2D0aCdRAVptvQeXGvW9K8R02enbmCbJ6DF/PTaG0p8UhgOrJZj/Magv9s3b3/JuQIXusgwy+dyAOOKkZe7q261uHSJ4vjvIg3Wdg3G+Fw90Uxw2p/75dVBv/L5LqBDcvRQ2rHXHp12VVFDYmtBKYdXOEut77RAvFHIbfKqu2+/8yRqRHG3Aj8HnTNd2kCkOkR7WwzmvWSKkJR1ze0Ljre3qJdoUyEV1JVuePyZI+s1WoNfnnZziEcNTd0RIwsc6DuhTENAfxxPG93ag8/KeTJo1mg8F3DPDgvrx/Rlqjs+Hj8VC7hoCNOhVD5iqgUonYXReE2vC34JL2nM7jEH/r22BtUSOKTNR4zyTPFRT1TPMTnXoqUnTj+L7seF9jPESFN07EX9V0GVObobanOqnp57KOv7NpEgrNssCQtk9bnqbdOuWuYA9trnmXJmp4e+Xf54sJHALLmJIKlXa51hA8nuLcNmL70ur8IXG69UUpvcpU+0D4Uuuz+dzlDBtPOoaUuGzof9YycBI9l7rgy17fqojxqXu5rdYD9PmqMNWvO/JQO3RefmbJ+HgafOq2FxFkdSKWa7d56QQtrbJFfzMRdjau1h2BWYbXXrvHmN+OMN9RDXCOtTg0VgUZHfmyK41ebouvyAW7Vigc4oqHVsX359TcLzAT37u6F4xe8gIpp5NwmdLqMSy/pjPRGjCpFz9i+hpJYLnVLrUVY+Mxa9dLjHiu8vaABlp9U0xbpLBrhe6TBrvGCEmgPJzQoOYE1tigxiVhllEwajrohjnh7jaQBfEFV6l693cZQ8ENJmGcdo4StUACvFtZDHkK/vNvE+WCZN1oxwyv1anJkOuH9VpVkMi8KF6YzyvhR4Z2p3+ZgGdk/iBOlD61c9OVw3711/YLwoO5/urGElTscaD7aPk3Tv+6fDaQCGIZwgY2XbJXfOBAYkSVBZPTqctEyttO4CfoHBa9PzJodae+ZTEs3gosVeOlXnLbDKcQQt3A2Hs88mIqkpJyjQCNAQNGG25Xlf3M2QCY/Xo7mjBqfCY/YbL0JIYd8Vc5/h6KbWwqtGVcFgsDGtkM0qH1k/NOZXXhWJd2L5HZ0C/m4PLaWoQja6I9h6O2zh7bM6GOzkMRptS1szJLIl6OYBV128tvVp6LjM8mbHhusLC7qtElQIGgE3ezJj2Pxi6qzHA+uGSJ0t0iEKE88bepV/BFKSdcLnL3SfD5LWSp1VrZ8bdiUKWWOdsF9T5Fi3ghKx1/eRb44k27Z1qUidan2AHOOl/uUF7gtciQnTAABPsanAdwXvoD63hPpntBjZAHIAvm+EVXWRTmzaJW07C/K2bN3vHpFu63yVJWHbdRU6D/i4fXzPwj12aWfWQfmVxV56mNzAkPw+kLI5JXMGybAZzxDqo1c744zLZi7cTbSN8aoa+ueCw9cGuzovYc0NJom8ApALMBsPSSWU7O7iqx4fph4lq34vLDkU95suiHC9VPMdW2aAFu6wK1kCdj/IU7Y8WP6EkZ8eN4vGK+Km9iyAS9DOp3/Z7Hb2GnzEa9XhNcNkXxFj8qcikWsps05uENCW/SIsuzUryHxWB5lt04hLcH64GM3IEVl1bTrNrKHeHD4QZqph5DsHx/+P8VDG7EF7LdpZz/bi0mYY7nCx1uyxNXWOK3NnD7T9DVoSGyGbNW1wBr3g6dA6aGgqLrp9I7cDO10/HHTgAvJYnAAaf4IALo14cUAieiDo2bWeTXt0CFvgJCS2Au5GxwAPU+AsDE/otAgnxd6obVRBRQKuvZmDP4VUqAuKzKpCFgoNqSr/KojLKNcCaqm1kPWs9zdpRs1RvcD8g0HJB8FXP6lo80swcZGvF6qjX8gYMV8pegNN5jmTLPPehz+HXsAr6VA7Zr/rD/TzfBKveXHwlXyN/9uEnqutJf+z7dns5I93b2aUxa9vyVlBkeSyFSB0ymz9pUwBz+s5ShjYYo3Wg1JTYMzeyKnIuu44X3AYQrNOkQ8J8NcpECfLYH+rxiqkb/lMfEbMMHDsgKy4Gd57xqQgdHhrKseDESdZNHSGbDS8Ib34fCEw242ggYWUYqdLqoTQt3QkgOWv9TZ57J5lDs1TdneyU5T8PwnafG/Um6MLQ2Vo7gI3eADn4SVVkZ/YLdGWgwVWVONhAIEt3zlmUtSAJqyPH2sp5+a5YDRbMXWcsCRqXqbG6WL2DeqiWjEhcow01oJyapu1m9BuRtZYv13be7n39TGinlyUs6EEqqes4hJR98Qh6riw8syXsX0itL3X7k+qJoWC1nJpA8BsCYZMe915BRX5jx/ECZ0VKSlpnbCZI0whuU7iHb7vBI/8+J/aCVFsYsLbejhgBn8ryGQ29br2A61Qyl+zmmEcEZKWMga4twldGrKfIWHoWrApOmrli7WFbLPiuE60DHHYOGh8ahkA7Hft6H+VSXrV/ppqL+6bjpOF3GI/WGMVFimgFgA+f0pk9pIdr5ojdIcstAxf766EZ7gzsNfQhQ9IUSKv8Wmfe5vfrFwA8xAcAYY9kDV60z9a6aDl4S+XYujJvrVdBbebszZoF+ZWD6LPswWxr1xqY5GW6NHNRnX7oJMf+f7Ra1NiMS+4SaW+wPkAC/fXDD8p3iajwZQsHTJvGOLiamylYvi7/bZAEUyI9mPfQAX+mNy2QEGfElk1Dn42TSofcU2f2s4S4yOC/M8oZvX46pP6op7NzYwnope8amJanwCt4ZR5SEidQuUslbQrqUEvfbY6PHlYP7IjkWG9PFdrLE+FEO/GS2UdydmJY+PhrkrpTPO3+Ci3JiBdbg4uQia/MySP8i/C1W86dKDj6m7axqlbKYO1kJQEu7VSMkKL8dDGjylqnhZBokGv5sgMapwgXNLRKtixZDNAzUcisG/ZIx0BdYViaohugMgApCMVSV6nTZw+J3ge551F/zOiPAzFZeJ7LgllBhZ/2+wfR7NvpS0m4RTI8bMmUcaJR7rQQAWIrSzWef+q8ReuSgldQ6xGVjv6sY7gv7ba/FqmTymFHPlNeTVJ/jhfiliBtFmYL9fJDiO1Ntr3k4SOrsSMZMUvOV5uDkCC056cnwgDQ3K3RQABJU8saLB3t6IpsD3LNLIzi+7sHgGKUw9ABjVDMGhZhaBoX+qVQmA0jOdLvIURtH/E8X+omHkaTzuiOFv8hIEpJ6jgi0IE4ZQZVvbEfC0wouVuliz70yhPQOtaIrTbqXk8FKSluDIlyADElA3p4dYmJCjvf0RcJUcYHsUpCGYrhAc2BvJ1+NiRr5XlNNfxxUf9lX33hWLmUVFeLmRNJKRDTvIEs8BujIdImgmdaQAB0bslO0g845zo+T6nsmACwKYG6QWlrPVvOPECk2qiJ/JyB0ZOuAHUxxp0nf54NzIX/JoBw3mos97bRGZaEpP2e2irSYyzmZ6pwYzvPYf5Qm/vS2355IsjaGxgI+UPmgr9vww2E4+TATSet9YW06KJ9Py95E4LIUaa7TvSXV1aQHag4Kc11rGlHenM4VKAWKp2/4m74y/4w8YNDzhzCXOaMet/5e+NZen+6gPYaiDI1Y7Lu0EVsax6p/ix8cWZnjm+pKGNCAXHo1YI/FOdvw0IxRZ/7n59uNuOqnr6s8c8+CgTYLRpo79w+H4J23z334DhBf3CZr5JErmLdPSpNurZy+z9V+zocJhkx5LG4Xa88pqQVIIwDvD/kzOb0LhAfN+x00Dr6fDddv79uEVKk/D9syIov/sjkvNuv310FTR3QtXEpE376YWJcVvBSxBIdzyMO+ey/E6dTvQUudnK3UK6bjcVQEuEG33J9DG41vK3UxA1cYmf98uSpJLOf0lAFZm++wAIK5leTAE8aDzIxBikbQ2dpVn/2ev4Xy5jWeGZXmN+9K1NgbICAAQUfzyPnBs3YE1APENePqKzQqxsKS4j7+tVuHxTRBaOTim0WBNYDN66ivo2R8PavvBRIwlzKGSi7U/lhb9UTNfDT9TA6CkhAAADFNz6GBCUEAZUi4enUR7caeEJqzM40GCgrdTJgKs97QEVF7hZCb88qoPP3oPBlciJr46EfbV29n9QS/nliZ5+YSk/iy4go9bxTdkqlhRb5K8gGtgfnNu5zHd0YYBjuvkSW/q9YVt/syca8ee/ODilQJhZ73ZHN31TTbHxhgRVkNN8qagK4SEzemuj2FXcfkUbaFyuB2PkSnJENODrPDLhFK9/F/U875k7hmx3BU4B8uWE+zEOA6vLMmmkuycLq2Yd5GyEz7BhikmJRU56bGwSWCnMKd2dxL1yHfQXimp+sX1J8qLwbYKyVAoNvS+aMsuCSs7N4AtgmcM8Tobmn515V8OwNabhGQhsqiR6JO9id4wd0VQnxxnQCSv78n8ba2z+izsDrMVJZVx1+gBTHXt9etC1jsDGH/B2a+t4wNtp0hWACk6ICOlTgWgAAABTAFxHIx04wy3s6QKjcGsSEyX+cSu4snaAG4o/AnrH2gham/kqUddZWhlkHi2qGn5WKCM2tzU8bS/+ORenjyz1nJr37nGrZs2VrDBQfYPzeTXUiYn2FXeBGxGX8cECKRGbNdnW850KlRD2RuyVbNzBs9h+VTw3nisBVBWBWJftisFMn2qrDgcftVft7cm9Kck1t2o6J3cvUAAiHHocuSRNiGf5oqHHZRJMFSPUGSyKFG7QnFBkz05VaR1sLoXOT2vCG9yFzqDoXjs2Q9RaEW+UZXrQqmWV84QRLC0aQxNad+utmFH+0ncxp6c+yHDma2pPXwAinh7We9SSLtWTP//WPAUbtDPkJvZrC5C3LZeHcB3m/RvvspOmG+cOhzJREMkYiyUI38iJ/YpIbEOSl4nxxTdbaVQhhuNZMan1xySb5cIXp6k79j7BejJdIkil+ZUsNrXO4G7aA9TCsp6BLwg6pVn6oCGHpQuZF7uksT9MI2O/nlT4orkwdEHNmmN6tXstXQZAmnaixtq7zfPiPT1W3hi9M2AtLBrINoWWR1RdavQIr8VPtVcG2wHkKfmqcP89nV/qtj8L38nUkeZWjFqy+IPSBDJLKzXPsXUKEeV0lXJ6Mm0ru7HpScK+SORxFi1KvvU9nhSvv6+MknWstCeMpa1uuTTcElZXJUXHbNEWkbbAtNLHZjYKTpGjSBgovnGaZ1zoMhLZu3vYHvwqrqmW+FKuMyBByoAo5yMYdqJAAALZ9p1jjzNgEENDFDJLYaE25FcpWuhB7GqsLlGI2DkPPAPgMUxeIOjEDinELJgUrf5ALY3S6uIbkPH6qG20pqaOHuAbhTimy5Guh530gTIR6jiTcrG2znC283bF0GfsZuB3Dx7EJBNDrbjRvwI4zHcwiiPPpadwhncx0QsYUj6ZlzB0vMV24YzVfc9AwOVdNbrCtNkE2ZgG7XECPw+5oVTN1nbTvfno+MSAic565GX5fvwAwK4cg3tgqrp9tynk/NejQ4ZCR80kPxu95mRhafXDXB6vRvefosxzKjeRT7zvtZohRxhHnyypBX0K2bZId4tiuzEQO85DhKp9fKGdXAwOjL5jMhaimul/W6AlQKPt5TCFVGSiVq2+bd94jMfzYTNzKAtz7YvSVwOsr9bNnc+Rvu3R2mfTtJs51/3czfB0Pi3QbvqL2ewxpM3yTCE9+68Bg6Qs6C2p7l8g5YyAPeYTCyCgIhPRg0OuYh5Jruk4PhwjVg20NC6C2RNUv3JQkGyhkDgMOc2nRXrkgjczvKWK+oUcqvYTBwzbU3il6zGhle4p7pfwMqJ3BQ/dYL9Tzkuy+qx6zc3i/2x9+5cC/OVkUXwHgt4aihxde1FTIwoOvMO4w7oFz7SlNAhg1HXXq5uVK3Ho/cHs+W4mM/sHfMPNtQHdFgGKoC/Fv3BQ6BzxBziHziRkW7ji7UzFEOrdkp2kHnHOdHbBqtQ1AcBCdHLTKzQ/vcvg+r7d/mp8tMCvelLTOyNZg+a+yT1uY0WQMXkGdCo+8DURomQwPqro46Khf14/3oT7HiEGlv2FlSun6/Vft/h2vh7n7XZwxEyI3A1nyKPvQHZkfJSvbCBMGGB5O9r9MIvUkdDd/IaU9/aQKwyOOo9cOkhKIcwOcO9s1cM6jhnnJTiHd/L0NbRbXwWXd0E1ACnK3uW5GRFSh3Uuc0Y9b/u3GXRx6nggwpZ41NIqMJKKrSNmGdts3hh9zr0X5J0IBpim2mXg0na+5oQeqyCcPs5+CCCWOE/R1ucl8yryqhX4xqy2zw/lD96IRplcOGzVXDxHS7BZ2t/QS07yAm/aCsD7zQQH5jG25R7Fj5PRByWLhzMeg6sKPPsDC12jy40PA0/HSc3OHLmolKYMj17/lr33HcIjaWvTw4TiHMa94AsL5wPzSqGQi7H8ReFwKrxqkxY7qK/P6SuadwZ9/cf6BcHtgnT5q0wwQAZndokJpmtjzRkvd0ItrjUNnJbIrwbs+9gR9Py5vyKVVaiPUMeKTHFSq0Z1UllMXUnyS3ixJCRR9K68MexEODdQhE0nPHMFIEIfVmmG4nHBYcjWpr3gzYvVLOeekRdLsjaGAzM0d3UjdCTHERmrfGoti6ZxXNoiQsW+BpK6COjj3zJP/MYmgqecWSRT6NgDV6dzhITCIe3XepcgwzwmaIeVsn9vGufOu9XQBPuwnUzviIQexJx0/urI2rJXCyUjIQnyWjbKRHHWZ0CYqHBqXhTXZDivVjv4Py0j4Pdov/Eh/pEfr3Bctty3CZkAwUUrBKVkp1ti9NfGwa/MuBVt+fgYzuCYZ1rT6ynSV95g8VslM9KzMS5Xwt2EjZ788ZKr+eofAucI8zzqOh12NDoBZWl8/bU3+sekQ5sawSk34SaV3gawy9d4HKlWasbJKim4dC22UiT/xtj/n4Ye4hm15kTcFmQLqDCDU24QlKvIxYZra7xTKLfQx35mcW0HOB/Z8SZ85zoW51W+B0/ELiT0n+gfJseqEbFO1BjH2L+bI8/ReMC033YcPhwUhZO35RENy33Oyajrp9obhOBEEGMxt49YNF41YIGJx/Ytak0Th/kcS1m+xm7tpwBUskOoPQd8AMpXmd1J/vGXylzvMiWvECeM4AACe7t9uh1/Yyz2UOCHgU0kaLK1uza5qJh63HSWTJQmUY1VCEkA+fujfdNkC+djXH/BYYO0JRy6MRPgzpSns38lMNqZBcNcK+3VjTIgnfGQzotZc76tKotuMQd4LeEJXoKBgSRsid3xQ54eOWBCcoCNGncIC+bZjh/Tdv3EolmcZEUmtpOdzmxQ5WCogjmUckc6zUK9Z+ZXeSxuuNLdRB2486+X+kDkW3xGrWr+aPEx9YCCeLo3SWTfRjHlcOAOElNF81IP6+lL9YRuMR/7GjSsqFd43UM3RdaQ3b2LFSdqXpEzBSZfT3HDB5kCL4sFw6z7TmtThqynoUJBSSv3gV0JDd42V4UNewGcukTN5UFGuKUuicmTr3vq1mdUTWCtTajcWq7f9cGOqm+BO99QapTzjT9J83v5977H6Jh6fOfOoj74DW4bGo0NH1onnbw+fFN90znua/sp+GowN9/SOoMakfR94GtElJ+irzfSRP99oFsCCm344PB1LCYdegCQ5F4Nk77tDmsdSVDfkm3aBGWztnk1+eoRcMCiyKF53YekX2PcRf7fQzXG6bqBF64A9TlFFCTVbbWyrXY5KVZ2TB17MnVDSddXQNPrKT90yf8wEGP326RG+Vtxo5QNRegkqZx4QaG0QjUVk8YRk699GpYPKZFwdcn7MzZEBPYdofFOabKRxk2eZWmAN5DT9EH9MG6e31W0ujgWKjxfTlfLm1foeeLhXB5/iOHn2aWNPzZ6aZ8Bm+xgZIAuUwBkGV5BZmSsbo8gAAAeiLCeaH3Fe1fb/R6U+UorGmwJW5QsegMUKLCn5h/EAZTTfgTb23Xpj6Xix2mAyk34ZFG+81rO7OsunMmnibEd50zYdB6opJSvl+sqpQhKtWTEN2YWHy6Wq1l/Ov59dcK6rjaFgXAIziLUml3RjAnzxjBONeKtysvBtzIdbwfe3CIEufpI4JOeF8ZZOV/deXlxn2aSS1/kdnaU0KDrxHpYdq5M1vRJicqDtO2FkOQLUiPoFC0mwbb4ZT3GfSZzNiXaMNJiBELLdOvxQCFuyyOKxjILIYm0yQCFKNG3Vs9AAeBsinq+SqTUy53vZuSQe9MTjSymZSERVPiZGklc8GEBCFPUAHQgtvkOKTFxRLRInB10PkFMDRiDl0LfAWDY0k7rZnjTrInB+gJebiE8xTWJQzrM3JsU3MyNfIntqxgOr6/ln4wfuDoREGwed0PJ3jPtqJoG6DATEdnI/AeCsq6FYqOotxgLch/LPPxvJU3bYkfu99MuawIUxBcnJy8avswTk/CMCJoqCqjlNNA9pn/nxgsaDYZJyegqo90dlhtiNFoZH9W5GOcfr1iI08a+J4jB3KIh1fRuya96IC2BR3WJtBMABXWkdadFWjiYu3s4GLa2PqD3ThFaFkPy8za1NLfMQmH7gaO7w5hQxZWJjnRFJYZr4tx407cXIXTLF/VaBNxIfiT5QwKEBSE3JYw3XHk79R2np1uIn8fMxKT42vg6P9dXiIyk3QxLDs4Uh4seCA/53kaBtftkZoAcsCM76fGWTnPk+6XfW8nA4kpUF+4ORqdHQ7c4TnCIIvjuwVIBAYNtHLCQxoCJiDUXR/4Mqv/+IAE0gAAAAAAABgJSiwX0IfAMxnUA7REwG5hp21w0UPKzpGSlGDNHDAaDvk+Zs9Ut4MTPBij0eAj8lE1M0AHKsFCjNysvnkBVzAnBSTB7S7BuwJfyk/EqxwqtstIZh0D6euUu+BB/215+QEM2xa50Oyu7boklHye4jGdYjn2E3VaTBdJOxf1yvbMIXUYWCIL22OBSHPWUd79OdRK+lNoZR5X777EQ6hQId0Hlkj8+sFqqc2gw7B4ZueOvL7DbjazmfEG276dNReYDTFKX52hWpdgKvkGyRlw5DfqbEaNsslu6BRNIAAAAAAAAAITXdq/UMYieq5eg8U7cQa7jsxrp0GgZYuja8Xx2MaTi4IZ2wKngz2+puWKI+pKwmLy+YcfV+DWj+gKrvDk7h1PLQ0D74HVaT9vBK7AZGM+/9RQ70c4dLe25Ov2x1mzvvKluY1FWWIOy/Sqq9NYELyetiAaAclEN2ZVHBmHKUDm64J0VMO+oBMvyVTcYt2Z9XSjwHf76DzicYO3+kcYuJBfM8IJeSVGO3+YLYcl+O7LtQQQYPTjLYH7ahPvhFbiF9AAECwbVlt6Y3Z9PLTGseTpDot3ZP5SXvCyps0DVtEtxDonkotb8/VmctQId9cCiILLowenVOa1fcJaiQEqjifGb1pOi0KhHzBUS98UGJoAEZWeTfqB4CL43wk3Z3A2xymPHPxlkJbHQAdIzfMwRQqnkB5HnWWIveQhIWOT0WNi1DGujEUu+yNJVVlBiFg2C2z7ovZrruuNpBUPxl3woyI3/495m0VNdUDWX9LagWZqnr9qYYBnxhcjH74mQJ8bPMEsj8Ir7i96aIIIpdCc1yTLxIctO0L4gpPOsZsJVrCruj2rTdxv6uTHUy+I+8QvuILwylifG2JABAkPwLEmxp75tJ8mdA0PzBZR8baioppXneJWCOI/Twp0Z2C1FrPSmA+vxb1Dfw0G/4yePXjhmJ9n/I2gxItdpSYyvyJZy7WgZxh+WSh4bo/LsYf6Ng7IhG6/q13X0CCZ/Re2ORFLk75wYw7gnlRxWwEhQn/u07WB1ImkiUZf7HU0UaonJUinQ+BFdqGvt+5WUePXYrWsa8fbeELy58ffBRhmVCYkaZMTlQfJqmhCBWZ6KL23FRAaQjBww7GSbjpEnaQu2s/bWdu2FL5vWu05wrDbRGbr/qN7uQMUspTCAwpSLJPZsM40mw0Jx5tyD/mWhmYzCDTQs8IBRTQy4UikTilDXshoBhBig26Q9NZ4xyABFX+aXmEo6f0zHI4+RJqQ4pzD7wXhJu9ro4kDSDOfdoy99nC4AAYmK3zMhSTgden2p/8HN9dLouXhlNFC7k7l1Ri0i57fI13t8F+tYxxoM5r8mTDIREMB1u1w2IR9lyact1L4hLECveWFO1F/GKhzujSIo3THYLeLfdsWTluffjAdU90jEmlYZqubDEGJ98wXL/J7lY9U9ngWYmVkzuWneAwOWYiFgkHDL0cJa+8WLFw7BV5851hYYQ82Jot8Zo8UV3qsFyNiky9X5KzsVNNkYOMa8rLuG+OCIwAUUQZ8YF+lKnXYOae6q18xOcYhpypHowiK1sKZdAXE2z1E6upao8lN9vuFelZQJu/lJJnnDnVtoJKsdGobP+sRt5pzwr2xhXgFvzBG488fzJ4esVVLmTMYUpbFNwQvBYDMugOA+Pamg5w2pQ8fik2VLbICHknvhBPPZALLSGLwnJDFtB3xypFZp7AOReRyfGmssqBYqBoa53mALd3vPFnWvevKfUwIq0iJOaQAinZ1Geph1nUDOXensYScY4CYMMwrRRWIVGeGWElSCeioMDDrTJQe7OKufgR1yMeY4ilf0D6hB1ay7hrSdXMwDtexonGue7wjXPRDaRJYrRJr+Y+E5F4P1JPVlb8wLZva9UCzaKx84Sa3Xz8KTg+1BELzabnWsMODhJuypz1ja+sXmfc2T3B2+Bpu6kFys2sRA4rFjiM1D9OZmOH9e81DQc/jqdvXXKOZujZChS8yTjlhdbg0GbnxOQixwLAv9zxpdWYr4Q4vU61/WJkAFtj+03TpyGJgon7iFtIibNS3hSPQmDK0oFsFCwB6WjmB3QsMlYAg2dfzJi9Fv3tPR3jMs5eivePxMGuCIcr1ADrN7ruX96u4yErL1loOsPLuChUfocaACe6Eq5sqJ38+jI3ld8+MvT4Tk7/b4d8HYzhGLKtmjcNsNForvPBaAD8Bg8hRMHhtdz+X7xKDpAIvYhb+f1vHPd/4Izp2r9YCO9HUIXYeey1IW46k1ISA/OxFWSbjA5jXST3sGCIBXNvAGGzt2dC+wtsFxt17CFiPKukA5T4gAQXv3l2Jfw/icXP0kDA/BMXaN4e0vvYSMhFKv/uriz2Ljj31YqD1eNHn61fT5eIBIN/iDn/PeQ5OWRgmmkvLGzYFgTc5/hRvXe7N8f97TQG07Ek17/ZbBNL/BwzdUYml6gvN/jJ+st0WGoHhYViuNUVtKdvNxlwGZJlVY+CmvjYt7+4YCdkfcuFAU18EYBgEABMJoQDyzfwJ1kffglakJtKlkLOZ0FOobUeTQgQ1IrMcihCgydjIVAsSMX9CagJ7sNHnO3T5X82lw/6SNCsyvKlF8U8ehyt1cGmOFOXQ4FRR2JslTl0tYY88Bfrf537cqIYg45eqc3ZKLvgIOdrAulSN5X1H9GI9UUIYpsXuDeM7CgNi4NACj/CBpzEAXwDQ7K+E4k+GUg2X8U9FjBwVzNduPuWZ4w9GRnq1wFEF+Nl7dNEAFgg/gd5EN7EBxVmaOikGWc20sdd2vmmbWQ283ZQFELBBpjAINZpQBXr1YYLc6o1dEC3wjKmDa0h5i2BHBkaC7WMWb8WArdA9BkFPVfBrvfVSNEnoNsbaJ8BF02tqQvewT3bWTdvgepVi5WWtleFU3Ilzts71UCBC5jPdpSLLyITcOtfp9y6A3gfEybTF3ZpYM+WWi8vwEYSTsvnQatxS18S8bmSyO/ZS41w9zOXtOg9ZVUlLggZAIWpFW6lilXqORaYZtQUiAEf9TH0xwj3IGhmFQN/FlO/fa63RFNsYilqWA657IyjvHWT6V3zCQBlVve94hdqOotOwSPdaSLi3lo5IXAtJ5qtKo/mOh5nGCdgGAKj7uyR7Hqt5RTVgJFfhQCtSZVteq+sCqn9XUc7Ghz+FQUzoud9AmMqcGMt4zVb9yMVd0VyQobUgkscbdIZgjt/QpOlGLR1DVN3H/Yfoe5zslLVcjx2jYrvwSiMI0nkSn/vQRuUDH/DAv0kIl8GGfFKAAGreRtunFQZDLGT3JPcotjsrkalWnSkVj1APfw8p01Z1J6htySh/jQRdsQmC5MTYhArxbWQyKkJnGmezSjtjm2q8yeVe1vYYKRNxrrNSGrPEzs9Wcmm1tlVumRoCWuArkx280K0wGu98ZbLssoonXTiTivhWJNKmBkPc68Pa9kgYX3clyyuT/CMZF1mX9g0sws1tzuzvo+UMPvBpTr1shzG8t3BFDjCIEG2rAH3hesYsmPDJTgWIGfR3kdSAAcN9GluDuWa/W/Z0FVZl1GdUtAZmb0zPWiqUjlQzTZkKWK/BpxOPGGikw4pxHgJafpLcv7ZD+vmmYau54ABadmRMFSog3YoCwkFo8yTdgZXU0rza67k2O3iISs+ufGN9Gt4l5XxOp1RND2BNS7Na7NMeG2l0Vjaq7UJQQ404WCHWDLk2Gq11iWtAJNqNXy6ku5pr7BIc3iII+scAg1UF4hb3QkRYNs5MQbRkOLN/fPPXA+KMseKUoT6YlG8uFgIlbMlpnks+9f/AAAAAAAAAAAAAAAAAAAAAAAAAAAAAAAAAAAAAAAAAAAAAAAAAAAAAAAAAAAAAAAAAAAB8YvHaO3NGzR0JDr2+aXwktM3+MfDG+OxJi0m4iHh/eSB+hXaFNvh7LTSMRK/h7XDneMcX6YBULTQWUf1qjdP59kHLbcu/+MswEBfzd79M2Jn9uTah/lzxFW8bKlYdNb6TNYSwbXmgOwaKJZNXf9tNm3Mm93UJevHoexuGmY8YqMBk2uhO92FB1PrJv2t8Q9g/lm0+0uoZyEt9OIzeKakfyZxa8G02AbmlAhTfikfije+sf4S0pMnPTKieUisVPFSKORr7avjvuwTCeIteSShUNhza6wPHXniLdw/A+qYd2e18pfG35DuaM3hwS1zL1cJajR2dHF48CyT43ut5Ic4gCDF9ATabaPny2XWf++2jzXRlzYIZBEYnF+rUWwXT10p5iX8M2qGhFHfaYDkj/kqOxzITAsFEwA92SdX47BpiXZ9i1lZpHE2jhdA+zMgFC2W3cazCDThiwloRNcWI9Rcf1b91k5Z/toCiJZAlpyw7quDJfE/Z0Si7lUF/RLLvDbEzq4BvKPVb4nXr/JzyAV3zhKge7dyeGq2m79uwPvD+wDC/jBcy8VEAtr/XTcuqzQJlyv9LgKrhJGsld9W/uXQW3uYSEjkfPYrxjf5drQNuyVfwIl92x66KUth67FDbt1XwhD7taRcSTA71P2Zyqb8IywwCq+LJ1wL8x1Clg1xLNzR3PUfVdGF0wmxbuh/oj6YhiuRTN56DMYBVFEikAm+jcAmpifa4k74vHkqFa7WxLvE/tGj6SRd+EorUwTVtUd2zwXp2pK5V1zMB2rlN4ZdJhf0CECVhOsXqR5I+2/+YGTP34yJ8QmU2uAFD/VMZOgei+02EcAK6xOPeMH2GNejTZAcUSG+E41HXXe9vyMGyhBMNGXhkflTZ2zF4LWTdySEXxmaFgHZuQb9+Bzz4bZiOsWl2VmxkogiHuHi3J/5pDUlW4ULQxPtrAcgp+DBVAkvx1w4WUx6gfvt8pWCWVttuKU17mRYYGf2uno4WC8/BrQ/ZMa0x/xvh6nTAAqTBYBJw02VYfQNyV8BE7An4FN/NyilIctmSSLDP9SiKK0psgycwlXLk8ZktXanEbvyxaiph1XH0sn5XAn14hALrKefQseBQbKLytJWSwvnUfzCFU49OLT6zxpbVE/L6UYg1TWFf5YGU2ymsWzPUkX5OjmG4W7uqQtLItW56FXMuT4i0fdRWvj/U/0cEpbmgJmr4nayvAts1QpWASk6XV6sltQJFi5KghmGy3/PbaauQ2bLxsHpCWVcODDHgLqLwmvzPZLmkpR8w3Hww3N8t+Gx+Eq34kcH7XQX0o/HErAlqV/c6nOm+u/JYe9FEaZP11eYFOLeWx2GC1/fPdwmrR/jSycM4GOes1JbNWeugA8oTQNKnSJPt5SHh5jnHOCOEzTYOPmGfQOUTKF/oGo5DWabLdy3LeTYktdtMDBd6gRW3dVep1XM3rmGDpZmG/Z3xYyAW45iECjC7R/vOx8xKRVeE/ZjJMogPd+ClqkkhniQ34V+jPd4qFL+JptZH9iGHgJ2/OSoz37r0SRviqySIEums1Mn0s5gijJ8gpnK0huCyujW6rTgCHwhwYWofoj75S0xhm/ut3z7tsG+lnHF0I/+z4Kv5Fmqa0dN6M/AKl89fS9tQTLGym5mRMCvIPGqPvc4zqx1mhVuGbV65A2qmB/JNoYF8oCgp5BdmDhukhfzMD8BIYQwG9RPBJNyGIEaT5QmXIgxXMSGQYVEuU7pbIoWQrmGcFQLA/M5ROBCICDOjEvsCZfW6NAmNMUu+zjvdllBweTSGnsM0chgWkZyoCQ/6X5PJtoLwFJh3ZZp4BJa1aGXbo2Mzrcj1nvlLbEaRpMxN9430lI5GwgIzqh5xVxp9zFVfz5VOVDd/Eewxi3MP5ao5fG3KF2mZZdn+/4z0ju4hsICUqWtdfhxMcPp/x3ZiVc1JoqGG/yTaGBfkrlxAQYh68DAPne8xjrNEmdFEuOMEHZkraa6uEvbN4D9TMO0gHcBhWfgXT4laCUjjQHkCDN6zF3WezY/ZUSUlqj+m4aJYpaqU7+ZyyIclKt0tasEFT15c+c4Z16+Ma+Jqp/R2tSCYy/bFGqUbYnj0xsWROoTatUyjvbEyiT/idzso9BXr9zKnXVe3H5nuhSwnDaOSBE+NA8W8uJkWC9zVrNa40P7XfnD5iY/VN9xOmkLY5WcoKZXLooKN7Xoe2o3L3dzzJ5WmUic/Hm+kqObX4RTq/jV/C693OH4YyUTrzGShElidG5zLDYgSHHiKnlob0KIo+AOr0xsQyobsCla3LwNhguAZjUHEFBNwx3RB5ziKsSwPH2+jKGpaGHD9Y9+/BZrMwGRgy5zc4xCwwNL7TtR8k4s85jaQ3WlyL66+QYHQ23dNLwweFdA1+43RzWNmiURh/rZ68nSSA+I5Dkx5AN014ytYKqt66+hfrDseCueyvB2taDOgCBf6kUEh8lFPDzw3DNLWxQ1WBf3ixR2ata0gPn2Giomj35UYiegoZ/Oal70Bicu55oovBIpar7LBTnJ9+q1Y9DpKmU2xrSBo/Qpeh4cTvfNeRD72amjaD41DRhL8UMdfJNEauWH0G3lRmpZb8mMCRU2+p2BDQCd2/ksJJUi05d2EJMtEevhCSvk9UVqpmIiSHZj2Xx0x/lGe7a+AAZ+JxIkqmfz7S5THMBnb6Vedqfi2J8L700IGbvzTWNaf90ntHKGKdsyRJrh9Nv0ZjvkCHI4Arh4YwvmstjSEDkPB3KiCweaJtMNEMZy1c7Gg4Oxt8w2Jy53gkUWk5/5meGaDikSxARM8u+5H7SHYPdxP4tpWIHv5GZ8tbk7GQuK4mrkB2lG1piTecV8rgsFo7tGF65XOxzfneoNzcl/znQVsTZW8pwBFBgsBCM+Jc/1EOFnnansYq2GE7qJ3xEtGLy9AdnBh03by6BabeM3bP2B1Pmfnwnj3ouAFK25OxxlOzbttmOdHL/POFzPFoJLPQFHLqqYJXtyAz362i8IIUrrB7B/npl3W4laJrbNh6/uo9rCnJYe1Rq/3K+Gd+5q+Ej7Mkykak9jvhItyyzOIHEiy6+ry69+ST2xFc41K450b6xpVCaI0/yhplW++Ay3tJFQKQ2cfqMlSvufvGQPtqP0v+ZPnpncmqDNafvVXCdwNc7a/ze6FhiYzPg5Vtls0HB/oj6yBvrwBgzLjI49nIKi4HhU3Cqw52bcpULfc9M4tcrItmPd9xKakwPC7frvm/QKhgo11WLMfTy13iZzBWKZxTdpaZ4heA4p86/V2HSpTn/KaLDYG1UIRzwki4096Kj3DSvVj5kEfNWWAQIoSDjBkBj2BJKdGLr+UwR+w5KIuty0mXgNn0K8OSas3yWGsuBR9znSyOklVXkR2XOPTsItbirt8dE5KtH+yrr6AC9Fl9cZ8pBDBtx/iZzVtbLOYw99uO9n6WHVlt+sozDpDLMFqbEGqfeKCRCPEqo4uyuGD3f+v2xr4SPQXRDA9WGuunRa93AvNnRfH89bbS3aVJpX3qoNF3XRRgx6K187NVtRfKeLIRA20ZZOHJn2mLyYr914oq5GD5Hu2CuDIaj4I/lssOFm7v7F9TYmzsJRrGC54CG8OvLIX5vMY4VlHqylsbelpDFuxeXkvwNxlSyMqkJA11LcWF3K8suxYXY6Uw+AtgjnofJnK/KXBRJczoP30NZjNnoiUdFK+1ipab9/JbWR3RAlNMbB8Eop/gegodpRC5nH8w9S7SWBzeThv1myyWyrql4FewjMkIBXmTud8+aXsAYLx9hSC7xT4Lj+shnNxqH2amQc4Vo7J9eBlpwQPF5S49S+sTkoaVlEDPmELIeUK7+de74l7taPktU1vnxYSgjEDtmgUBB+L4pjxab/C8VNYbeEso+RgLpDlKerSve+deyY9EgR5f3ZD1aGvS62Eg3SQDsulr9fEkG+OsG7t3bhYjpF7IjGKR3qnA0d+5elVC9imEN8Xigk3D7lT+6BxIT1YMvumgRRwXaJd6wwjf1j3zOTwtCCowRxFcPuuQ4u7reKbge/tpUMY1oQfvasOXEaLkX5ziuEhAZYtGafvq/CZOXGX2gkm2pBMvWtc48qpN4DSz78sia+YBCsVYN8/5zjCz2YMZU4LJFtwRU4bxBiElhYV+puxb2Q65NkFEkpuxCgq83BIOKgSk2Bgkz6upQNMeGfE86Ya3RU2Vohet6qtrpQ6g97hkQIaEqwR9iJxUTnVtSsp3O3m3Sq293hp3MwT4/dTHhkPOTkvUiYdmXhjE2DKnGh6YeunrbuForbzolY8dzqU5Ua3b5lyMsROkdBiAFLu41a5AM4u9r4b6E2iy7AlSgjbbSQHwb4VzA/9+hdIgAAO1DOBb+BZSIJ1Y0tSfMzVWiwvd5cIIUfPrj6CFqt/R292yZy8hEpCRPFdUzCO65dj+B3q3UAJyqo/WvRygc2hyzET3rhWX4a9CC1BpyPxjgqlXybL+5xuX41uOSjEZ//ytNshdsf0o668c9fRkqfFrYzuZFtKCw5YK2oRDa/7528GJ7UAvQrum5lU385bNe+jvbZEBSxJPjlWSCHZTmd50uSdGQL9l7sd0ifShzw5X73vggZ7V4cuIcKGp4ap038K83kZ44EXmOn49L68BdwxDev7kOT4i6Lf5oLZNvPbVag7KcPWfgO100xn8nH/WnH/NNJyu9aDI8fnc1dyzDmnP7YhEYssipcf7JSM1UzLIpYlUxr0BPg9x5PBDOyHfC8ySYd0NJaLBpaG3xgyw7lvAbEZl4D7LVDATJC322NdmAP1MN2j3iKrPygHoc6kF7jF8uAnyBTl/sOb9cjWKgva0Kropug3/uzQPO+vVyfI7513Uy+lKKaz40GX6kBtAvNiEIQ3BZZENkFQGopUy8/Bkq18cfsBdTcgiDNL+yezBGOc9R8/Z3x/kw4r+Uc6kjCeZW7QD5uUYpg9njnd338GDBncBjF+DwjYQWIQd7borv/5Ik6eJJ98XTPPtCztjbBKSnD9IJSWSyjEOpkvy9E+YvnyC3ZIY91owtsL8twcusjSxX5Rxk1Jl/C/7l4gEyQxXEfnu7syt40DvF93oa/3KJ6HwQhFo5QPWDvBFSXDQB8a6BXMxiVieKHG4WNnwN+onb3hDePx28+AZ4WGN58SPScDhYwfiOTZGUaVpa+G2UY/q8kDQf5AYB4soFlQ9+xetmf8eppWohkTz4XG4stYzmVYukvnHUFcUeTB6h3E+vztMbkkHZz/FmSapPZ7npYJFg/yHtQ68mpYt8B3pwCeJwDL6tdsRpXqIkfPKu/eQpyM/16Db4mR0lV22jIAcgkNk3QnL4T1oJUIKTpTGOpxXpCPXsugnSwC0raNoRxQR+oocYVG9ylo5AjS7dr90K3AZzGOb90hUAUHY1IY44lfNRZ41foFS+2r7sDhM2uFgTmVUpl6/MexTh7bwdk0gvJApXQt8wmDdgMVCENjRIQ6JF7sk+M3KDwRpIu9DZ3adfujngesXIWhQ3+wED1MKWfu2ZusjqkTZjc3QXnzieaYiQSlEAlSnq/T6hdbiqVwovO9Geg6COa497LU+yVRFFTXGAbH4IrmBwIK/kKKiceYs7J2LDOwj6CIS52suNFdhPufJ6fi99U6fcobGLx3o8/xS+bNN0wWTdtKwtF+ql3bM0dHbWr2YuuHFjJ+C/nzR+96UcKOx+tTrpIy2o5/QZKpW960qrRs4p0k5zLwLcGd4RZfU4CtIAC+xBFocYRvz1o8sj3QsnkTBEAQknj/KP8kqymj3oWLpwd/ELIRodiWkWwS5GP+j/JAoE5+T+4DWHRNMCykeYOVLES5hYWhqsz2Anm+xvdlSnk9uCWfIbxblXjk7fD3VCseLMPwZi0HkrwBQIzOWT1cLrx4HTi/Nydo1oaVfx08DL2oeSWIqEWzry3SpgeH1DKu7Uc2uIgoHvRr1G916bF9Lldl6J4+rHO+xuA8nzXV44+tIgcUYposmr3FlywXgmACL057uw2L2Rx0Uoo/aiD28oI5/ztWQ3o+zEV5u9raXriEl4PaFT8WdmSQhjNYJAM6aeiBCdLMWIej+ugwuPFV89t/7COUPbDHpxMyGBGox3xWuMe6EzokXuh6nrTHiJwEw/Ei4JwCD+cGYR07gLH6ORFF+b61a+Q+9KK632BhmiqFr0xwhXUQgVQ1CKIUcqDcHklLtkoIERmX5ZXBw2AvKApWHJ5YF57dmDFX/0baWDd9Rm9exgjnoNJ2L/ejX5L7/pgUVPFHXhlFolEZbUik3/qxA7MT4bCRn3taD/QiU9CMwBTDq7k2ydXxP/ZvF6uQOZWks7tou6nwKCM9DTG07F+kbEQ7SiI8ipA71VoCO3kMBi1YxMOcBz0CsSPId1+dIP6KudVD0EKgxQyI6zlEDknRC/VugpSyA7A+H5kjwghJVNZ/t4/LsNv514XA4hkag7zDp2f526VpPH+qjXHhVR16R6PPHKepT+FKp5Isa1KQsXBw9sQ1e6h+QnUBWxbQw8s+dwI9tCWMLvCLPKbfhh/6u6sMo8Yia2Z4qZfwZOTnEZAO33CuJNYvciR+HBeXGCem1W7Dl8VMhfctTbS/4d6C3ZNVawkVOiLEQESuilJYJzOSxbr1mZozRXUZgZY6tLeocdXq3+/NUfrZwuFEWDCUhwXpQBj9MVKqwDODbF/trGXGiTX1IPgr7EA/Ri8OCs+n46dtobqUHWvmpPjuwWDfsxapsJjS1Bto5AOtcTy2gGE3CrVXmqm/9SVt2PCyxiiRQ0Pj/JMl0TOkl0olUisUSCyW8GXW/wVzG9MO8lXSuk3kqRwfv0YwG7KQBzt48N2EWQELky+Gw242D+zCYZ7lKDIwBBQZiCz7f6/8x3/ADFOY4ufVEYgW7Iq2p/7pCvCw50q5bV7xgxgTdbpQ6ha0pitWD9c+HulWnEQAlbzqS3/vSzNCvnqPB78Z8A5G06uJgBlGGONUP4FsRCrxHW5ZfzGzHvIgdANURzoSUU1G3+bbY30lVQPRMTLyVKu1iO0clpuH1n2xd2haxp2VQqvBrzMyVCMW07W+f/6gc6t9TUR0DUIFRWK56G5ZzxWUd8s5R0qF3Zl6vcX2AZofxQZ/b//ca/0twRgUES9kuuKTthPkCr1Op+MZ3SvDe0P4ob+y4NEdFa4nvDSPdnBkH6kuyH9M9xJm3sqwkfwYdefYQ1rETWY66lILKA35dNzf1LSHAUkACUEK3SEVBNQbv3hno5c/xnnnfBhD6GVHTT3jOl2zDgjK1wJCBhdXBcA74LqF/YWWIpGg+od7oGpHBZKAkh0V5+oeJtQsFwxH6XEh7l8TpXgz+rdVT8pTDB+HsGHcTvArTkQ+vO+yJhkWsNiwaJcH1xWZQI+UTGgd2e4s6nJSQ3S6nvfpQol2ze9NpPR3IY0kLrLAHm7Ub+2Zm5hG8VlGlOFlHlatWhiHdhVolbgNkV0UlFp3zGc3xcWllsCO/IuQeNHopqNt1EmqfGyY/AlZZmDGLYCprZ/QbqWLqWktHxsxv2KJeFFsHBfXxHFyI/xp6Qbwbofm1KM/uA6PlyHR6hoTtIJa1g+gxg701QvzsL/UwjVaXXUG2APGnYNqd3s5nxuh5qDKwQa/lObRodUMrfA3FaFpdSkcWDUswUupasL1cnJ6J35j6XNDul2oGZSuX2lYzpXYeP45zQtc6AmXsEPeKLIOU37TdR/aBVpocer+L9MYr3wrLezbAHq/XuZ14AZzQtj7wvbaarTmBoFx++HQGytJtPz3X8AIJqB7x4z5KbnwOejAtnyuEEZwAO9R7gZLifbXRCc/haJRbg5uJ0SzbNb1Ph5CjM2UT7vVzUoAeIMQyjT7yK5K2xJlLTwdZlVDWI8/HPs3UXCbzmut2uonL6nvJrZ/gSLnnx4nXlsZhPzM4xCMIsGkQeSRSFKO6lWIE/vkT6tprUC4SUY3aAuqgkwCtjP2e+phT/QsghS5azBaplrtglTE2ROFas28U0iC31UmPE0mB0ndbZ8riqGBB2FzJ3QDPM6RTgJKpxzfwslIBJ1cAEfmiZylD2PzvCucjfAFy1PusrqHwiti5efg1o0lD2kolYFZB/VG3gLQ2JUMYtfMUkdivQpIoMrc3zlBu/GizGbtcQ5/Eb3lpUZynTAk8f1zy+I9ags4pP0798cUeAffkepu4dS6CI7AntoRp+4sp1ez3amPnVbj/LQ3CYO6upDyZtKQthhJKNB+3CvGTgMiqWmREsVbGh0uMcFIJBaUA/VvUhMv0MhKCF7hgiSWfLeRSfLEnMzI05teo6QWuEArQODqPU6rmb1zDB0szDfs74sZMcBaeRtlAkzK2mXiUbLsaWAxFvMp3PL6/OpsUqPGxJdtWfE5GcUEvj3x/VfTgMPinKcDjIUz6zPoTNFvnTPCPHE6U9dDt1BEYqod8UfV4aF3ZrNUQqjGk4gPLUArY+fnYtg+hhINVme0W7LcvPDNAkG+l0A1G5JJCLx77yo7bOkKRxfUCs60a4/LR6zWLL4J2UPgUHRnU4VLiVGZqcuFNK8fsVnjccHcOITnBYdR1VGHEXDxfjdcYXdiOXumBte2uKol7UDw8OBYKMMfIJVag5oK982Eyz6U7XvXkM7Lyt2U3I3c2PtjNvwT5Y95Otwai6nlPLsS56uBvx0Ll3xCg7HS28aSKUFMoMq1+dUBBT0JM0siwJrBQsO9eYm2IeP1dYUUixjUCq40hzMDEcRFmTsfjbt2dZwDGBrhiDXc7hp8BUa5ht6FkzKIIvEnrfAl8Xg1cIHl9gqgA/59jdxAFPnOT6XDapYmc+y2iPkr7SbTV/7jkICc7Z39r/wRnUjiuPvlyyoJnhp5y/RK+Fvgf7Z6/+JT1VzOXfa7/WkwOCIVwkJFbMXjGiFldGN3l6WLbYRft1IJlS+EyfHymMVVkW8ImjrleRXtw4BHCno0xJ7cYfVP63wXby36upDQnl1+2Q8/Nn/EFKiKuWNp2Vna+UZUfYNfbEi2+NnYCJTPeWkhh62kLpFfhCigFxVliAoasuhPYSolHjKLmuPZZpplrjZXF9WYR0/8hQjVOpq9jDF5cbrMY4f57qoHPoo6WkpvRPmJDGSWBgzvgsgtYgu7pHEMzY5TyKhjg1XEHS3HnfDmWnjP2KarHqXFx9Lp40Zl9/mrTQPmbD9DXDc8HtYi1d127S3SJYIidFVkAAQRl46ly0rKSlfJ/69J30Q6KikQyMRAURL2AfkgF664rhaOp01ohbZyNJCeosFKvb2GQnl4pM+lZDA7JDdw3r9ARu59PtYL6CBNVn4aX0FNNEXQVe4tXbEnH8KDnP32KtZJiyDpcNRIxd3yB8CjcPYvmAY36z/fccGLZoDZfLOl39t/Udn+Ffoz3d038gkq2XVG47R59WDFJshCuh6iLB38MAUZ7TPzHqjkEGZGdNRz6wpnVt5pGJm6H6oSEXputIQHF7NTN8DIzuBbGk3f84wXa5IKiaHRWnVVR6I/FUpicIVrq4Zvh48glMivY6+Wagxq1HM0Dt+Juof1iS5HPNmuiKmJXghzj5BrFdX18EksCcidwEbg2gMtovRBUxeCFiIS1c9RNbJhECErRBSEpjvDPT8usIIQLlSYyyni9eGrgz+mi3Te2410rlIWU7L9jnwPZ9oLbH0Mmq9terWw5L1Bi+nTrX1UeB4nN1DxNmQKT4ghEI0K6NCVwzj/EOyNejfI/ZPsTLXAfXeDsLLH9j+GZ4npOM3N/0g1XqexnMXdqVrvVD66KK8rldE/kudS34As228JyJ3ARuBqCoXghWR9d3CXe3OnytGsUQOZQbCuTqkPREVx8UuQeUqZacjx9AcE3/ZHKSZ3WsOHP66RxXpTEG7UldbD8zQBPxWjGA8XUg8cxGrCR9Zbt2z4wGXRA4JGkIS6wTQlv+lLnJ7d4i3tPezlujMXpfGG+51XLvrlu5FGHwUKTw+2EZw//pb2XUXOeiFQyHRmzyE0l9sMd/GVfEMz6HrcFllHs1Rul/tXYl2X9WkcrDQpXR98SQ3DiwMSQmmi9IuI4sLvyHcSSMeoMKRObM5P60ZfX74mQmnO6W1OToSfJR/UQsTcBi6y79f2Ht6LhnWHxy23X/3MyPkjbq6cbtUknIdmZlgGXnp/rmqxarBUNXF0O5yuz+DhOsf+6G8MulGhmZrZAJ5wmYy1MOQ3t+W4HVj/fWJO4wgLPleDbqD0qQlJGyeJNb21rVNcZshNLBJC8xxU5eESOho3W6bA1Stm8QQ0jgIWZedrj+aFbeJKrhgjZrn80CnlYMVKu3TmCsWMWY1USROom2cqZxGKoDoGRRQEymbUwScssrJIM4Uuq7x7R6UA/7Ky0m3DGO/M1mxVakGq3xx00hwAQD/kcqcSUOUgobBM//Qcwb7TM2JS3vTopUU1kxonSILgVtIpHU0xEjhH54kvE3J1GuAn6gcXIuCoLFdCG2C4qzRYk5WIviyH0yyGSAAAAAAAAAAAAAAAAACJiyxL52YQi3zGxhmcbs0cO4nPWCBf1GJ6XdfUmhCF1XnuqqtVyFm9yiQawrIExImGMoxNO2jtmSpmyuLcs5jWTZvA+2eN/jTjtwLPN1aycdOYvqHWMKRul2oiHzmabv0f+zQyyB1VzNdbOL9v7gxjsxwYF207pMB6t7RUi4IjaNGK6RuIVILr8IsId7sZ4GYHwDjOT69rKM89qPPW4OpLBZOQA+gTzT/o/81CFfhs+Xv5ydcl1YOESKUmer06qABr1zpcx4svwBlBu7uWVbx6wo7sJ+FoV/wGA+EQOyaFEd2VirRBWtdNXTLH+lvNFZCW8M9u+PadSr5VEKjmXgBNo+X1bSvQurd+10q7YkCwBa5ZH6HhoZmvIuE4ZDqgTvM9I1XIqD0NWYvxHZH9qhm53TDLY9+D5xSuGWC4hzOUjfdjXOVdW5rqOEWWFbME7gUME8VAx/gL7uD0sUIyEq6gfUbonGspACR8JFLRal0v8/3fnaM2O05crWNui+BVTvlUQkQkutd8OqhAwPlPL781PjpOpqyxhlzYIFVLVHS5//tXNUrmgGBbBsFWgA0tZGYIUtakFZC2bwVkCPfVomH3Mm8LIybF0+vjLJN5pXmXt04ZRRCzKSX1EAxZgPhSlegi5COmQweCfmBjoUzgqgTR2K890fI8F0sWXv1Dwhna20tMDOcYWd880WwmFEx+pivBuchCqL4v8bVI29Abng+WlGzA/pWNt5sHd4LkC9BYtv2v40T//s4eTmwVmsoXGqkucUP4QjGcpUHxkDV3gFWYJ/M35sCycARskYSORboNqkna5K417LPamZpmFF7uCcrLoAauPmPOp+VgEi7sl3Tlhn4+NhXWFcFxJerOx7AO3BosCMI6yiCL1+dtotujjB5W1r6t1kZmJklIGAm3Y1eiNYpPAPDXJRLa/Z5efg+VyG0aAfPPiR+hfFk3UHtTmzy4rqdSN1kov1TZKn5TyG2h9wrohJJWnzTs1Gx8WLsMAkA0/Fi2FjVSBzSVwmyQW/sjRwjIg3CMHdxWXt8w80LJdQBdPoAIJt1nf1qxy5J11/pKeNJgHQBW3LBqT2z1odfFakf24kFkF5tnweBggN1um5PtqvlmQOJaHffh+dClV7LV055tf6gwSpSfCFcvgYuB43JZD35tA1T6MwJMequFq+BSyhAvhhqNTkfH+bHzLIbklUpzSBsMswnuAxYl/b95fLRnJTaIJ744eAy4mJFrQCiZpDrW11JAM9ZlMlrguw4d0RdsACF6xg3xRroKZmTrJ9/L6xZfTP0Oy1HsG0APtdc/9hhDPn+TIclzhyYxlcYSlMHeq0fSLndmAhBuqsCeycyW/FP6LIom2mi+1dsPmzOxXgkSDxUBynknbOrDWadXKpeH7cVthbkXdSZL+lLSsjO7r0n7qzn0o2zA9hUCal2ELhe7fokRq5lIbXdOai1OQnKp9GK+oGInOYjxwwxYvST2J10eRs3V76AiifbjrvswW08P//SHYfgC0HS4KPjOZNEvf2AvAbx+O9llJLCG+uZ9yJ2Sas1cFHr0fYJp180Oyqzvo8AGEOD6eraUObwi+4JifuEREeVRn/rbGmA3FhuukAag9glaER3v0V3A6S+L/vtpg3ZWob7JXQ7sxtudRUKF4rA91v56qz576fba8xlvCIMrjLpBAq2+YGgAee41Tke4y8cZvG5lAwklw+cz5NoacQMb756E9MOa8ZWxlIzJcP/wYlUUHKhghhQZsYAYP8zxSKXEf8c/qpGuT9czxSoo0L/6wEGycsN0WW7TFVVwfAa7BYZQuzJ/2M7AtdQ/2qOeHsqNmQemZWBUhiVn1G08sEzdn8oq/SuKY2/xrBsQaRAg4s4vHHNgmr1FFJ/Ry8ht2FFyHfqZw5wEeU+57TEg0em1wuzNqlOw0q+6xMP2q6f8gJGdd0uMJNuVDjwlNLN7paIqsy5pLS7iy9d0lZztFw9UOjS0NF9B4HmXKeRdeKWj5XwdS5ovsP8BVBuoZGYBPCsmrbHhnL9U0Y1R2gh5ij1HajWzbcoxR5fPyvdhBRQWahxogtPP05N+FJvWZPEWWLeBvZ7f1KQ6iGHLpu0fBARA2R3yfxVuzGsNAz2/MQiwsK+uaR+sxjkL/0CEsD49mzhVnreqt4GzgBFC6gf5L7dO8OgU7SgQQ/fVwFOpgnH6F12fsRrtLGOOT2+Qjb1Ab9w9dEaD80Cz6CJYmVFQ0w1q5myiI+4NcbBDxY28dK0XbkyEnk6bX+BslDmZJHAGPWOgTg+L1nmrvHBXUZmEvr91Bq6EeimK8JWEhBaTniQegHOrTxOj9N9WHi2Wh2HbaDg8WBvB9ig1IRtY0QWku6Io1CynVUL17bVuzR7TmHHPW0W5WQyAamkEliI96X5eoj7xPKoSSfrfsvjCQYYeuNlNjs3Z11CPVGn0NMF6CuqdKUQtfpTOm+wgFtDv+E5S9Dkk5k9pBSQP9SzFfsAt8UgtOUWojXnI/mgx90bjJgp7kTeAuwBzwf7VCxv72Sien/AAA43hBXMhgT9y5lJqbX2b17rLgTTTdl5vEGRjzuusUwmZI43iJOQbw/oGbD+ru3TDIxxfhE1KXuvz6lTMnfLBKuTs9s1Kq3rnb1YUXkrGQ5RsshkfAzjHEg6keq/9gDnYSEs6CDAF53u0V1i5ENr8ZRoGZIBvCiogk9/7G8fm2reqNSVZsgtiloOblCAH5JAqRNf7EB7oLLTv9+0LYCjf6piBTIS1fNeUbqwQKUidU70OvwfadKpaJ+xIfD1bPgTo5vIblQuUnS++r8722W19j02tEc7pZwKMJ+wspesSNSVQ6uT61dB0Q3xAu8mJDxFM0XCZF5ReYZVqCGs2GCgJMOx7+Ade8vFrbyfplRnYcu78TosNXYrwtE6cG7YECcu34bFl4KYhfyUCI2uJeoQ20go+WFKwemFVkAtPLi/mnb6Yf9Vl7Gdgi77zK/tf+4E3TnZ1I6yJqF8oAyayyNJ77+NVqa5BxrII4cxr33F6l32d0dRGOQDKjZNahi2UO7y/0ApM/3R3rG1yLdhvCPe/a2a21NX8ogNa6oXpdTOxuUqlTwbpfKDg4lKNyCmvdNcFvmstmzpBr8M8vjflkihY5nz3wxiu7qjtijhEspExS0wUYlzGE8aYOuWPqUeZm4CLO1hbSVIktLcsa//hWOkKfwxFolm8iLeB/LtqQfBMgQp/Uygz3sozQB6unV7g62FkFcir8jqquRwxuUr3TygDYfO/WE/F3QwjzpBtfZZb8kpgCE+Zk9UAShJUli9g0FvTlw3kbgAQhEpLKoIlrJ74Ns7Edm1O33iHkYHJ10SQXdJI/J6ufHslBpJNAwli7F1OQXn0inXYN/iHlS1lCNVwo1shqAXclzabhyut5FjDfdleooER1esMaGvvU0Ae82keE7k0pqf9GlhYk0pJ05zt0W1ybSSXBIV3oxK8rLeyNsp4W4oJv9M7kEJ+OIXCcvh3sCDC/KfhfKpzwZ8Qo0bNIhtQ6D0HkV0Ovn4wAGvnqU5zZ3clFnRhu7iVPEcpwA0gWXydqS8q8a2w7b+aK3ZdrOILp3SmgGYEUblJoSpanEADyPd8tepGVh1OpaCNMx6J3QCFc0ayqV+Ck8+KxDwKgxpYnTPJaWAblODdtn65aUmTKOrWbpphMv92RiyEnx+ly77162ZDVvt95MIUQMt474FWkXkxJznv2/pwLognSmN4GKMTKPeKrl/FwUnGXL84hxmzmuakDXu03IEuN4+qnMGFrHCyexEj9vMfcu9yAA05IqM9ll7Pmyw8kwLeGqWHzRO0g75YFW318ipIMoyig+2sPdcXl+hpxi9KuMId3tSD/dvgsaz6264n321POFNIv+/TWVnA9OMoMZ6xs46AIpplplIn8XapduNjbO3Vvg6IvF5fHw+fgmk2SF2zR62qfVjhIkCEusE70R4Hk7s3Ks2VtT3uPHKNuRl/IheV4oSV4CsXYJuGLWhVP3veyH8p+7nUwOa/1SFu1m7zrqII+6MhaAbG04D0RW9AZzcBhuvUT673zSii7IybfZqHhPlEKZFskCkEwcnQ3/g4v2BnBZorfsWu0fbCvqx5HOlXILKMNkViT36JzDHp5vGJD6E/yYir7+1ifOwGVZJH396AkEptfRQ4rYt64qp6E85WuOlXQLEVh9n6MwoGZEzMyl22uKLtB9N0k0/HewqvTMa2CmLeF46eZ0kI2LfhxKso9brksqObCWe0o690sYAMfabm2XujXkyup4Wwg+iXQppMKqkZl9lh0OmiEgajvyoisTps+6sbX/wnZrsNngvoe/ld5FSzyI+elCcN09u0xcr7iZhuF0SuHB6q8CVwXZk57IkoByt6cuzTlpokltHSmFD5x4qQ5CKOagX+ZsgEHhPG4PbmJDKtEkhEW5hnckxuqWyXYqyDmFpEZGzCzpLCvqSYpe1W2jvyi4JAXxlT6Z9//xYu0FoLQV1bgNqgLY7pM8voUvwbYAW+71g+rtscj52PZcRninXFBP3k9/xCFh4hAyY9WFZDqr4bFMRXvpxXfYXAoSYK0bJeOpWyf0OhC6TAgDx3LouWT59Qc1mTQ24ihn9d8ub+ZH0E+rIT7GVyQ56IdVJqdkA+WKu2CEGo8uDLYW5mki6udALStyPYJPr5CO6mgcXUfiWhL/DjL1dXW4DWGtMM1Dyep5e1UmJvFSDDiVATQVeAYRwaL2vMKoJib1OUF45wmYWsbeF1MILCO0rVJbSlOad9WaXYzFZBlhWbl5J2fDAVBBQ75ky9q52Gd8X92viKGCJW9Hcbq90hPf00RuDKpTSkAGCJExO8AAzjsjKPyBgdswS54doxkplsGZC6hPsJWrbVnTNwKPvkZ9D0gly5uIAfd8b2POYjAHT8BsrEkHmuVv7EPQw5ld3KaSbbhZw7BB4w/ITPjjrCuFmIJ/UY4aPiRSio4v9Bx4Cyzy4/h0DUf0DC+gEQDo9LB98NGgRJdB7ZOhHxu6142mo2pLzq5TMRov8M+/9ioAqrKit5dr26lJeP9RYeYepMb8lvfLCEBECckr5A+nZzu35/G6wNuoLy72BtFHMcHnDSX59VF7vfBpjoZvyZ7aAfWEiyqLI4GSZe7AGWFeo2kK4FsgpohKlKIfwEZZ5gLGszICNYBEIm+m8hcVjKEGRfD6CL9hXxTzXTXv7dGm5nXDVkAAHIypeKcx2Qrr4sM9vFvwIQC01Fj7TF8afR/8/dq+uJKvwikqRFKn9RTFkFe0UEzJcBTO+DxskcOrMkaT/MQwdAhTAZRBrdSsBWKObSjzDnd9R3bAJOOwWlpcapQmQt7nD///dUYLYctD8QygAMjjFGlbZBwZM1x+hJO38w64JXWo6rVllwL9Cc0szbVkkxWqBY3+q4sktONDXHcXPiXSdPHT6byJU2jcdkhRKZvSxCStEJ4hS7owApD2NtNzC4LX2gnWFV4TYmZsFbfe96TE7zWCodqga+6c+5rQ337qXMkXoUX5cHpJZP2jvCMNuiFO/6auRNl5idTMBqWfFVnToXPlUaQc2BN1GSMJgCtm+3cxePQEeobXWBf2QxFn6A/CpxDhhuk5RWm8+/0wbbjssCMSB6LsIryG7tbfVUurBWLvApdqQ57hBbblVPFXYkkzBcSIj/y0bhY4k/+YSReORPwJKguIwuj2u8SfW/ejdl8FFqyjg7Nh734hIKQb3WV/qUBqfcotxo585dRzyxOCOwqhIi7abTc7eUXjoKAISQw3tYSt7zDNEpN5QtFK86IQG5LlAXhfIWFhgsQiBBATn1iw26tohLy9FUIxpkpUx16wRiDWyidd3PY5xo2oH9IxSpNVhwzyTidc8tnLHuJGAS/l/1WlFJm7akyX/Z9nyh5aM3KZka48BuPA9qP6q9hdfzzYXoP2/KRotw5780QqzY05uJCgohmVX9de825Eu9d2B+AoRYrq7wcOyw9a+tJolTF4tpodYN+zYt+CDaCDi69lhmjoUtgQb8XPnf6P42f3Ky2YdMJG2nnkU12nDfb5NNqnpfJ2ofrQL6hAzRYy1W5C3GIdfgBHNsWkfyVCc2nSvaLHQplaX1kuuY6XWiCyCT4G/39eiH6zI41005V2cA4N78nP98QQE5O3MKYUHZF6D1QQXNYATI0Xs1hIaqvXIRlOlc6PvPvDbrrI1hJqZYXphW46YgSGZOdKNm3ADCVRO6CsuZUYcY2JYdjueBzb4PSHjFvIm3ApR9pkz0l5WNQUUjJNK+pHThJlRJxgnAp1z3S5t4dYbDKESJb6eetJmW455DVtkfnpzYZe5ttESeKtXa09a8CEv+LX6ZyclOcO6FPNSJj3rfpC6JfSxDiAOzh5sRLvY4jxiOdqPlRtKpeuw4KbPn9GXvIMjbYa3iOI8DCEMaKUEv31Ja4WDN6jxHP4bC66wLDf/vwWJCFNzLSRqI245lBDu2UmOM5aw7lk1FgT27GjBXuxylRhLIPeS2Vl7OKA3ONsWbrMoEm3Eh3YwfpYeased/tRp7US70dNpOH12kVQHFv3vs/m8TVbjgQhe4s9lDIPPEVvPvW2Nbjh/F+v61ZztuXrVnO24yKbqrqxAQivf7skAZZPOTX+bk67Bvai5RO5fQxxKacYHPsQhWKcV6jzjFKxLlo+LU9xwEUpen3TknXkjEOJJq1A68w6manFL7DX2DIa7THrX/RUBE9iYnpVelb6nUV39TncOB3nHqn1Y3UwpcU+lAbm48IaE0bJ8rR2GX5ajhVIQAAAAAAPQl7+dS0u82MC+Xr0iLfXFwaRGYxFbKfIbr9ibRPVlIZZDEwA0k0SHpLWyE+uXGbJDz6HNuYrGLtRYWs64X3+2EQ/Mu1H6RzHN8epM3aMGBw4VUtF2Ag9zjORqc6A24RKcKgL0tDmGhntLsNWoQnekWwHsKMXkmOiYHFVAtRTlc4yIgvxrS21fgDo8gXuQCYN4V7tl+ZKccz/s9WIW4Qk/KHhjnGV6Iz9w3gDo1RwMAGLdPKGumEYfFbwShvAFz8p2dayQG0smLLOKz8fhhiIbgsm5jqg5ELefNouh6jXbkeLGx7hD7WuPIgOnJ2cH6JQcIeu3ikA4lPPyz3KtT3pGaps+P+tsBdzxbo/BkaMtZe/A4gAAAAANbty/eXZXoYA5JglGEOsDyXsJFVoA3Vu/DETu8YKKkSG+qjzs3yb4faa7GCWWZyy/QVdA9mQQX+JSvDI0J5N8bdiNuZ6d+EHdUoRUDXEFyjacyANoCK4a0R9mNFj/AO3C57DB3pgsU+RngWVjmzaPzRgHYlhgAAAAAAAAAAAAAAAAAAAAAAAAAAEVYSUa6AAAARXhpZgAASUkqAAgAAAAGABIBAwABAAAAAQAAABoBBQABAAAAVgAAABsBBQABAAAAXgAAACgBAwABAAAAAgAAABMCAwABAAAAAQAAAGmHBAABAAAAZgAAAAAAAABIAAAAAQAAAEgAAAABAAAABgAAkAcABAAAADAyMTABkQcABAAAAAECAwAAoAcABAAAADAxMDABoAMAAQAAAP//AAACoAQAAQAAAPMEAAADoAQAAQAAAHYDAAAAAAAA;clipPath=inset(78.57% 70% 8.1% 9.33%);" vertex="1" parent="1">
          <mxGeometry x="263.58000000000004" y="284" width="66.43" height="30" as="geometry" />
        </mxCell>
        <mxCell id="rLr-IdZesuFoyCVZBpzc-79" value="&lt;span style=&quot;font-size: 16px;&quot;&gt;&lt;b&gt;...&lt;/b&gt;&lt;/span&gt;" style="text;html=1;strokeColor=none;fillColor=none;align=center;verticalAlign=middle;whiteSpace=wrap;rounded=0;fontFamily=Helvetica;" vertex="1" parent="1">
          <mxGeometry x="233.79" y="291" width="36.5" height="16" as="geometry" />
        </mxCell>
        <mxCell id="rLr-IdZesuFoyCVZBpzc-80" value="&lt;b&gt;预取&lt;/b&gt;" style="text;html=1;strokeColor=none;fillColor=none;align=center;verticalAlign=middle;whiteSpace=wrap;rounded=0;fontFamily=Helvetica;" vertex="1" parent="1">
          <mxGeometry x="510" y="430" width="68" height="30" as="geometry" />
        </mxCell>
        <mxCell id="rLr-IdZesuFoyCVZBpzc-81" value="&lt;b&gt;卸载&lt;/b&gt;" style="text;html=1;strokeColor=none;fillColor=none;align=center;verticalAlign=middle;whiteSpace=wrap;rounded=0;fontFamily=Helvetica;" vertex="1" parent="1">
          <mxGeometry x="314.5" y="432" width="68" height="30" as="geometry" />
        </mxCell>
        <mxCell id="rLr-IdZesuFoyCVZBpzc-82" value="&lt;p style=&quot;line-height: 53%;&quot;&gt;&lt;font style=&quot;font-size: 14px;&quot;&gt;&lt;b&gt;页面热度管理&lt;/b&gt;&lt;/font&gt;&lt;/p&gt;" style="rounded=0;whiteSpace=wrap;html=1;shadow=0;strokeColor=default;strokeWidth=2;fontSize=20;fontColor=#000000;fillColor=#25aff4;gradientColor=#f52424;gradientDirection=east;verticalAlign=middle;labelPosition=center;verticalLabelPosition=middle;align=center;spacing=0;" vertex="1" parent="1">
          <mxGeometry x="215.02" y="427.5" width="105.48" height="32.5" as="geometry" />
        </mxCell>
        <mxCell id="rLr-IdZesuFoyCVZBpzc-83" value="&lt;font&gt;&lt;span style=&quot;font-size: 14px;&quot;&gt;&lt;b&gt;多卡通信&lt;/b&gt;&lt;/span&gt;&lt;/font&gt;" style="rounded=1;whiteSpace=wrap;html=1;fillColor=#dae8fc;strokeColor=#6c8ebf;fontFamily=Helvetica;" vertex="1" parent="1">
          <mxGeometry x="626" y="443.75" width="43" height="55" as="geometry" />
        </mxCell>
        <mxCell id="rLr-IdZesuFoyCVZBpzc-91" value="&lt;font&gt;&lt;span style=&quot;font-size: 14px;&quot;&gt;&lt;b&gt;页面级图数据分配&lt;/b&gt;&lt;/span&gt;&lt;/font&gt;" style="rounded=1;whiteSpace=wrap;html=1;fillColor=#dae8fc;strokeColor=#6c8ebf;fontFamily=Helvetica;" vertex="1" parent="1">
          <mxGeometry x="203" y="468.75" width="118.12" height="30" as="geometry" />
        </mxCell>
        <mxCell id="rLr-IdZesuFoyCVZBpzc-93" value="" style="group" vertex="1" connectable="0" parent="1">
          <mxGeometry x="216" y="572" width="60" height="60" as="geometry" />
        </mxCell>
        <mxCell id="rLr-IdZesuFoyCVZBpzc-94" value="" style="sketch=0;pointerEvents=1;shadow=0;dashed=0;html=1;strokeColor=none;fillColor=#434445;aspect=fixed;labelPosition=center;verticalLabelPosition=bottom;verticalAlign=top;align=center;outlineConnect=0;shape=mxgraph.vvd.cpu;" vertex="1" parent="rLr-IdZesuFoyCVZBpzc-93">
          <mxGeometry width="60" height="60" as="geometry" />
        </mxCell>
        <mxCell id="rLr-IdZesuFoyCVZBpzc-95" value="&lt;b&gt;FPGA&lt;/b&gt;" style="text;html=1;align=center;verticalAlign=middle;whiteSpace=wrap;rounded=0;" vertex="1" parent="rLr-IdZesuFoyCVZBpzc-93">
          <mxGeometry x="10" y="15" width="40" height="30" as="geometry" />
        </mxCell>
        <mxCell id="rLr-IdZesuFoyCVZBpzc-96" value="&lt;span style=&quot;font-size: 14px;&quot;&gt;&lt;b&gt;解压器&lt;/b&gt;&lt;/span&gt;" style="rounded=1;whiteSpace=wrap;html=1;fillColor=#dae8fc;strokeColor=#6c8ebf;fontFamily=Helvetica;" vertex="1" parent="1">
          <mxGeometry x="142" y="579.5" width="65" height="20" as="geometry" />
        </mxCell>
        <mxCell id="rLr-IdZesuFoyCVZBpzc-97" value="&lt;span style=&quot;font-size: 14px;&quot;&gt;&lt;b&gt;更新器&lt;/b&gt;&lt;/span&gt;" style="rounded=1;whiteSpace=wrap;html=1;fillColor=#dae8fc;strokeColor=#6c8ebf;fontFamily=Helvetica;" vertex="1" parent="1">
          <mxGeometry x="142" y="604.5" width="65" height="20" as="geometry" />
        </mxCell>
        <mxCell id="rLr-IdZesuFoyCVZBpzc-98" value="" style="sketch=0;pointerEvents=1;shadow=0;dashed=0;html=1;strokeColor=none;fillColor=#434445;aspect=fixed;labelPosition=center;verticalLabelPosition=bottom;verticalAlign=top;align=center;outlineConnect=0;shape=mxgraph.vvd.ssd;" vertex="1" parent="1">
          <mxGeometry x="694" y="584.25" width="42.25" height="30" as="geometry" />
        </mxCell>
        <mxCell id="rLr-IdZesuFoyCVZBpzc-99" value="&lt;span style=&quot;font-size: 14px;&quot;&gt;&lt;b&gt;压缩数据&lt;/b&gt;&lt;/span&gt;" style="rounded=1;whiteSpace=wrap;html=1;fillColor=#dae8fc;strokeColor=#6c8ebf;fontFamily=Helvetica;" vertex="1" parent="1">
          <mxGeometry x="618" y="579.5" width="65" height="20" as="geometry" />
        </mxCell>
        <mxCell id="rLr-IdZesuFoyCVZBpzc-100" value="&lt;span style=&quot;font-size: 14px;&quot;&gt;&lt;b&gt;优化器状态&lt;/b&gt;&lt;/span&gt;" style="rounded=1;whiteSpace=wrap;html=1;fillColor=#dae8fc;strokeColor=#6c8ebf;fontFamily=Helvetica;" vertex="1" parent="1">
          <mxGeometry x="618.5" y="603" width="71.5" height="20" as="geometry" />
        </mxCell>
      </root>
    </mxGraphModel>
  </diagram>
</mxfile>
